<svg width="708.008" height="138.77" viewBox="0 0 708.008 138.77" xmlns="http://www.w3.org/2000/svg"><g id="svgGroup" stroke-linecap="round" fill-rule="evenodd" font-size="9pt" stroke="#f9e96e" stroke-width="0.25mm" fill="#f9e96e" style="stroke:#f9e96e;stroke-width:0.25mm;fill:#f9e96e"><path d="M 79.199 91.309 L 78.516 91.992 Q 78.223 92.285 78.125 92.871 Q 77.832 94.043 77.832 95.264 A 1.728 1.728 0 0 1 77.112 96.701 Q 76.844 96.906 76.477 97.065 A 3.934 3.934 0 0 1 76.465 97.071 Q 76.559 97.353 76.562 98.092 A 12.113 12.113 0 0 1 76.563 98.145 A 5.835 5.835 0 0 1 76.279 99.973 A 5.55 5.55 0 0 1 76.27 100 Q 75.977 100.879 76.074 101.953 Q 74.414 103.809 73.291 105.762 Q 72.168 107.715 71.582 109.961 A 787.377 787.377 0 0 1 64.209 117.237 Q 60.449 120.899 56.494 124.317 Q 52.539 127.735 48.34 130.811 A 67.65 67.65 0 0 1 39.648 136.231 L 38.965 136.231 A 10.509 10.509 0 0 0 37.656 136.307 Q 36.989 136.391 36.437 136.567 A 4.476 4.476 0 0 0 35.449 137.012 A 10.39 10.39 0 0 1 34.256 137.636 Q 33.637 137.914 32.91 138.161 A 20.012 20.012 0 0 1 32.227 138.379 Q 30.995 138.051 29.349 137.998 A 20.102 20.102 0 0 0 28.711 137.988 A 30.003 30.003 0 0 0 26.318 138.086 Q 25.098 138.184 23.828 138.184 A 12.117 12.117 0 0 1 22.253 138.086 A 9.105 9.105 0 0 1 20.85 137.793 A 29.068 29.068 0 0 1 18.311 136.914 A 200.671 200.671 0 0 0 15.82 135.938 A 11.731 11.731 0 0 0 13.628 135.338 A 13.419 13.419 0 0 0 13.086 135.254 A 45.473 45.473 0 0 1 3.516 121.143 Q 0 113.086 0 104.59 A 27.771 27.771 0 0 1 1.074 96.924 A 27.427 27.427 0 0 0 2.148 89.356 A 64.204 64.204 0 0 0 5.225 82.129 A 678.399 678.399 0 0 1 7.91 74.707 A 109.832 109.832 0 0 1 10.889 67.432 A 42.369 42.369 0 0 1 14.746 60.645 Q 15.234 58.106 16.309 56.25 A 399.472 399.472 0 0 0 17.432 54.297 A 527.082 527.082 0 0 0 18.652 52.149 A 8.655 8.655 0 0 1 19.265 48.883 A 8.297 8.297 0 0 1 19.58 48.194 A 10.43 10.43 0 0 0 20.571 45.17 A 12.519 12.519 0 0 0 20.703 44.141 Q 22.266 42.676 23.242 40.821 Q 24.219 38.965 25.098 37.012 Q 25.977 35.059 27.1 33.252 Q 28.223 31.446 30.176 30.176 A 6.37 6.37 0 0 0 30.356 29.313 A 8.08 8.08 0 0 0 30.42 28.662 A 3.12 3.12 0 0 1 30.499 28.11 Q 30.575 27.798 30.717 27.553 A 1.687 1.687 0 0 1 30.859 27.344 L 32.91 25.098 Q 33.887 23.828 34.717 22.51 A 17.331 17.331 0 0 1 36.222 20.459 A 15.674 15.674 0 0 1 36.523 20.117 A 6.01 6.01 0 0 1 37.793 19.141 A 5.982 5.982 0 0 0 38.536 18.643 A 4.919 4.919 0 0 0 38.965 18.262 A 1.256 1.256 0 0 0 39.34 17.34 Q 39.341 17.225 39.324 17.104 A 2.1 2.1 0 0 0 39.307 16.992 Q 39.211 16.485 39.384 16.101 A 1.27 1.27 0 0 1 39.648 15.723 A 1.428 1.428 0 0 1 39.806 15.589 Q 39.892 15.524 39.999 15.46 A 3.566 3.566 0 0 1 40.234 15.332 A 7.511 7.511 0 0 0 40.595 15.14 Q 40.769 15.041 40.918 14.942 A 18.397 18.397 0 0 0 42.056 14.09 Q 42.596 13.651 43.038 13.212 A 11.227 11.227 0 0 0 43.066 13.184 A 4.253 4.253 0 0 1 44.155 12.407 Q 44.639 12.16 45.23 11.989 A 7.748 7.748 0 0 1 45.508 11.914 A 36.117 36.117 0 0 0 47.121 10.571 A 30.508 30.508 0 0 0 47.998 9.766 A 25.328 25.328 0 0 1 50.147 7.923 A 23.248 23.248 0 0 1 50.293 7.813 A 10.785 10.785 0 0 1 52.832 6.397 A 7.03 7.03 0 0 1 54.107 6.039 Q 54.735 5.921 55.462 5.881 A 14.17 14.17 0 0 1 56.25 5.86 A 6.293 6.293 0 0 1 57.031 5.908 A 6.293 6.293 0 0 0 57.813 5.957 A 15.969 15.969 0 0 1 62.793 15.039 A 12.092 12.092 0 0 0 61.084 17.969 A 44.123 44.123 0 0 1 59.668 21.094 Q 58.008 21.68 56.543 22.803 Q 55.078 23.926 53.662 25.098 Q 52.246 26.27 50.732 27.149 A 6.56 6.56 0 0 1 47.486 28.027 A 7.761 7.761 0 0 1 47.363 28.028 A 236.73 236.73 0 0 0 46.915 28.421 Q 46.193 29.056 44.999 30.113 A 1633.584 1633.584 0 0 0 44.873 30.225 A 252.112 252.112 0 0 0 42.255 32.578 A 280.667 280.667 0 0 0 41.357 33.399 A 198.498 198.498 0 0 0 39.624 35.01 A 157.936 157.936 0 0 0 38.037 36.524 A 47.147 47.147 0 0 0 37.429 37.122 Q 36.612 37.942 36.261 38.397 A 3.217 3.217 0 0 0 36.133 38.574 Q 35.84 39.063 35.645 39.453 A 10.115 10.115 0 0 0 35.449 39.868 A 13.363 13.363 0 0 0 35.254 40.332 L 32.715 44.629 A 226.729 226.729 0 0 1 28.32 51.904 A 52.526 52.526 0 0 0 24.414 59.375 Q 23.633 61.133 23.145 62.891 A 137.438 137.438 0 0 0 22.656 64.697 A 159.315 159.315 0 0 0 22.168 66.602 A 8.899 8.899 0 0 1 21.716 67.7 A 9.762 9.762 0 0 1 21.68 67.774 A 16.931 16.931 0 0 0 21.419 68.318 Q 21.3 68.579 21.204 68.816 A 10.241 10.241 0 0 0 21.191 68.848 A 44.096 44.096 0 0 0 20.215 70.825 A 32.427 32.427 0 0 0 19.434 72.656 A 10.925 10.925 0 0 0 18.879 74.657 Q 18.699 75.641 18.652 76.758 A 211.262 211.262 0 0 0 14.111 87.744 A 64.75 64.75 0 0 0 10.938 99.121 A 12.63 12.63 0 0 1 11.478 102.769 A 12.619 12.619 0 0 1 11.475 103.076 A 162.22 162.22 0 0 0 11.426 107.031 Q 11.426 108.789 11.603 110.116 A 12.892 12.892 0 0 0 11.768 111.084 Q 12.109 112.696 12.744 114.014 A 53.341 53.341 0 0 0 13.732 115.959 A 61.921 61.921 0 0 0 14.16 116.748 A 36.826 36.826 0 0 1 14.862 118.09 Q 15.326 119.019 15.82 120.117 A 21.593 21.593 0 0 1 18.235 122.362 A 19.811 19.811 0 0 1 18.457 122.608 A 28.946 28.946 0 0 1 20.399 125.054 A 32.339 32.339 0 0 1 20.703 125.488 A 17.514 17.514 0 0 0 25.498 127.104 A 15.629 15.629 0 0 0 28.223 127.344 A 18.336 18.336 0 0 0 32.884 126.724 A 21.1 21.1 0 0 0 33.789 126.465 A 38.192 38.192 0 0 0 39.307 124.268 Q 41.992 122.949 44.531 121.387 A 852.075 852.075 0 0 0 48.23 119.098 A 759.904 759.904 0 0 0 49.414 118.36 A 45.085 45.085 0 0 0 53.906 115.323 A 36.5 36.5 0 0 0 56.543 113.086 A 55.647 55.647 0 0 0 62.061 107.129 A 62.423 62.423 0 0 0 66.699 100.44 A 632.797 632.797 0 0 0 68.896 96.765 A 744.703 744.703 0 0 0 71.191 92.871 Q 71.289 92.383 71.582 91.699 L 72.168 90.235 A 211.225 211.225 0 0 1 72.449 89.49 A 155.579 155.579 0 0 1 72.705 88.819 A 10.647 10.647 0 0 0 72.788 88.596 Q 72.913 88.247 72.941 88.074 A 0.549 0.549 0 0 0 72.949 87.988 A 2.816 2.816 0 0 0 72.923 87.589 Q 72.854 87.112 72.607 86.865 A 1.364 1.364 0 0 1 72.409 86.619 A 0.912 0.912 0 0 1 72.266 86.133 A 2.437 2.437 0 0 1 72.292 85.758 Q 72.368 85.275 72.656 85.059 Q 73.034 84.775 73.55 84.491 A 10.563 10.563 0 0 1 73.584 84.473 Q 74.121 84.18 74.561 83.789 A 1.063 1.063 0 0 0 74.824 83.41 Q 74.972 83.068 74.996 82.533 A 4.768 4.768 0 0 0 75 82.324 A 0.654 0.654 0 0 0 74.871 82.278 Q 74.735 82.243 74.528 82.232 A 3.929 3.929 0 0 0 74.316 82.227 Q 73.828 82.227 73.34 82.324 Q 72.852 82.422 72.363 82.422 A 2.888 2.888 0 0 1 71.335 82.245 A 2.595 2.595 0 0 1 70.41 81.641 A 2.833 2.833 0 0 0 69.907 81.907 Q 69.685 82.053 69.463 82.249 A 4.706 4.706 0 0 0 69.434 82.276 Q 68.945 82.715 68.506 83.203 A 26.289 26.289 0 0 1 68.079 83.667 A 20.28 20.28 0 0 1 67.676 84.082 A 2.315 2.315 0 0 1 67.487 84.253 Q 67.212 84.473 66.992 84.473 Q 66.688 84.473 66.478 84.397 A 0.762 0.762 0 0 1 66.26 84.278 Q 66.022 84.087 65.644 84.082 A 1.54 1.54 0 0 0 65.625 84.082 A 5.995 5.995 0 0 0 63.971 84.303 A 5.091 5.091 0 0 0 62.695 84.863 Q 61.426 85.645 59.961 86.133 A 3.558 3.558 0 0 1 59.375 86.084 A 3.558 3.558 0 0 0 58.789 86.035 A 6.598 6.598 0 0 0 56.689 86.377 A 27.604 27.604 0 0 0 54.999 87.001 A 24.813 24.813 0 0 0 54.736 87.11 Q 53.809 87.5 52.832 87.793 A 5.075 5.075 0 0 1 51.367 88.013 A 4.904 4.904 0 0 1 50.879 87.988 A 44.477 44.477 0 0 0 48.327 89.003 A 36.621 36.621 0 0 0 46.924 89.649 A 7.176 7.176 0 0 1 44.45 90.328 Q 43.649 90.405 42.773 90.332 A 47.457 47.457 0 0 0 41.721 90.799 A 53.723 53.723 0 0 0 41.357 90.967 A 8.935 8.935 0 0 0 39.941 91.797 A 6.646 6.646 0 0 1 39.667 91.883 Q 39.282 91.992 39.063 91.992 Q 38.574 91.992 38.281 91.504 A 3.935 3.935 0 0 1 36.726 92.564 A 4.976 4.976 0 0 1 36.23 92.725 A 31.276 31.276 0 0 1 33.636 93.303 A 33.778 33.778 0 0 1 33.594 93.311 Q 32.227 93.555 31.006 93.897 A 3.554 3.554 0 0 0 29.831 94.46 A 3.265 3.265 0 0 0 29.102 95.215 A 3.876 3.876 0 0 0 26.614 94.336 A 4.848 4.848 0 0 0 26.563 94.336 Q 25.098 94.336 23.73 94.873 A 7.887 7.887 0 0 1 20.995 95.408 A 8.987 8.987 0 0 1 20.801 95.41 A 2.759 2.759 0 0 1 20.548 95.4 Q 20.299 95.377 20.149 95.304 A 0.471 0.471 0 0 1 20.02 95.215 Q 19.629 94.141 19.141 93.067 Q 18.652 91.992 17.578 91.504 A 56.072 56.072 0 0 1 17.236 89.404 A 14.227 14.227 0 0 1 17.09 87.525 A 13.078 13.078 0 0 1 17.09 87.403 Q 17.09 84.766 18.652 82.617 Q 20.02 82.129 21.436 81.787 A 27.348 27.348 0 0 0 24.219 80.957 Q 25.293 81.153 26.367 81.25 Q 27.441 81.348 28.516 81.348 A 29.919 29.919 0 0 0 36.328 80.322 A 182.677 182.677 0 0 0 43.848 78.125 Q 47.363 77.051 50.977 76.172 A 148.626 148.626 0 0 0 58.203 74.219 A 94.387 94.387 0 0 0 64.941 72.217 Q 68.262 71.094 71.875 70.801 A 12.499 12.499 0 0 1 75.112 69.177 A 16.546 16.546 0 0 1 77.588 68.555 A 110.801 110.801 0 0 0 80.823 67.945 A 87.141 87.141 0 0 0 83.789 67.285 Q 88.281 66.211 92.676 65.088 A 150.907 150.907 0 0 1 101.66 63.086 A 98.451 98.451 0 0 0 111.572 60.449 A 311.909 311.909 0 0 0 121.289 57.129 L 122.266 57.129 A 15.373 15.373 0 0 0 125.028 56.871 A 17.516 17.516 0 0 0 125.684 56.738 Q 127.441 56.348 129.199 56.348 Q 129.573 56.348 129.861 56.376 A 3.962 3.962 0 0 1 130.029 56.397 A 4.837 4.837 0 0 0 130.476 56.439 A 5.826 5.826 0 0 0 130.762 56.446 A 0.874 0.874 0 0 0 130.917 56.427 Q 131.2 56.374 131.801 56.162 A 23.944 23.944 0 0 0 132.227 56.006 A 218.352 218.352 0 0 0 132.77 55.802 Q 133.441 55.548 133.805 55.404 A 23.837 23.837 0 0 0 133.887 55.371 A 16.97 16.97 0 0 0 136.719 57.813 A 14.093 14.093 0 0 1 139.453 60.254 A 17.5 17.5 0 0 1 139.236 61.336 Q 139.108 61.884 138.937 62.485 A 29.768 29.768 0 0 1 138.818 62.891 A 12.002 12.002 0 0 1 137.911 65.11 A 10.893 10.893 0 0 1 137.646 65.576 Q 136.914 66.797 135.84 67.627 A 3.976 3.976 0 0 1 133.55 68.451 A 4.999 4.999 0 0 1 133.301 68.457 Q 132.227 68.457 131.152 68.213 A 10.043 10.043 0 0 0 129.057 67.97 A 11.163 11.163 0 0 0 128.906 67.969 A 1.586 1.586 0 0 0 128.39 68.06 Q 128.188 68.129 127.978 68.251 A 2.948 2.948 0 0 0 127.881 68.311 A 2.546 2.546 0 0 1 127.485 68.519 Q 127.161 68.653 126.855 68.653 A 2.713 2.713 0 0 1 126.483 68.628 Q 126.228 68.593 126.025 68.506 Q 125.723 68.377 125.307 68.362 A 3.089 3.089 0 0 0 125.195 68.36 Q 124.924 68.36 124.234 68.527 A 16.967 16.967 0 0 0 124.121 68.555 A 59.729 59.729 0 0 1 123.315 68.75 A 70.603 70.603 0 0 1 122.461 68.946 A 21.191 21.191 0 0 0 121.21 69.262 A 18.361 18.361 0 0 0 120.801 69.385 A 181.49 181.49 0 0 0 120.451 69.495 Q 120.066 69.616 119.846 69.687 A 18.552 18.552 0 0 0 119.727 69.727 Q 117.09 70.606 114.453 71.289 A 29.958 29.958 0 0 1 108.984 72.168 Q 108.536 72.019 107.744 71.84 A 33.476 33.476 0 0 0 107.227 71.729 A 19.578 19.578 0 0 0 106.677 71.622 Q 105.908 71.485 105.469 71.485 A 2.131 2.131 0 0 0 104.894 71.557 Q 104.236 71.741 103.979 72.396 A 1.875 1.875 0 0 0 103.955 72.461 A 2.523 2.523 0 0 1 102.675 73.907 A 3.279 3.279 0 0 1 102.637 73.926 A 5.327 5.327 0 0 1 101.318 74.463 Q 100.586 74.658 99.707 74.707 A 63.954 63.954 0 0 0 96.191 75 A 15.246 15.246 0 0 0 93.89 75.43 A 13.249 13.249 0 0 0 92.92 75.733 Q 91.406 76.27 90.723 77.735 Q 90.234 77.637 89.697 77.588 Q 89.16 77.539 88.574 77.539 A 14.209 14.209 0 0 0 82.715 78.76 Q 79.98 79.981 77.148 80.957 A 5.332 5.332 0 0 1 77.561 81.925 Q 77.734 82.466 77.832 83.106 Q 78.027 84.375 78.223 85.596 Q 78.418 86.817 78.76 87.94 Q 79.102 89.063 79.98 89.649 A 2.327 2.327 0 0 1 79.943 90.077 Q 79.895 90.334 79.785 90.541 A 1.387 1.387 0 0 1 79.736 90.625 A 4.04 4.04 0 0 1 79.382 91.111 A 3.458 3.458 0 0 1 79.199 91.309 Z M 609.082 101.27 L 609.863 101.27 Q 610.346 101.27 610.256 101.652 A 0.671 0.671 0 0 1 610.254 101.66 A 3.871 3.871 0 0 1 610.396 101.89 Q 610.463 102.007 610.512 102.115 A 2.06 2.06 0 0 1 610.547 102.197 A 0.792 0.792 0 0 0 610.693 102.429 Q 610.791 102.539 610.938 102.637 A 0.585 0.585 0 0 1 611.033 102.919 Q 611.05 103.136 610.938 103.418 A 8.536 8.536 0 0 1 609.961 107.031 A 9.709 9.709 0 0 0 608.887 110.645 Q 607.715 110.938 606.738 110.938 A 6.277 6.277 0 0 1 604.91 110.566 A 5.521 5.521 0 0 1 603.809 110.01 A 12.33 12.33 0 0 1 601.465 108.008 Q 600.391 106.836 599.414 105.615 A 12.032 12.032 0 0 0 597.56 103.744 A 11.062 11.062 0 0 0 597.266 103.516 A 96.882 96.882 0 0 1 596.594 100.635 A 127.212 127.212 0 0 1 595.947 97.461 A 19.441 19.441 0 0 0 595.17 94.563 A 14.263 14.263 0 0 0 593.848 91.797 A 4.233 4.233 0 0 0 594.128 90.887 Q 594.211 90.464 594.231 89.979 A 7.761 7.761 0 0 0 594.238 89.649 A 14.188 14.188 0 0 0 594.256 88.94 A 13.959 13.959 0 0 0 593.896 85.791 A 11.793 11.793 0 0 1 593.592 83.131 A 12.026 12.026 0 0 1 593.652 81.934 Q 593.652 80.86 593.896 79.785 A 16.375 16.375 0 0 0 594.238 77.637 A 10.224 10.224 0 0 0 594.256 77.036 A 9.639 9.639 0 0 0 593.896 74.414 A 9.639 9.639 0 0 1 593.537 71.792 A 10.224 10.224 0 0 1 593.555 71.192 A 7.856 7.856 0 0 1 593.896 69.678 A 4.032 4.032 0 0 1 594.629 68.36 A 4.686 4.686 0 0 1 594.357 67.484 Q 594.28 67.104 594.28 66.735 A 3.469 3.469 0 0 1 594.336 66.113 Q 594.434 64.453 594.727 62.988 Q 595.02 61.524 595.117 60.059 Q 595.117 59.278 595.02 58.545 A 9.92 9.92 0 0 0 594.727 57.129 L 593.848 56.836 A 2.314 2.314 0 0 0 592.725 57.129 A 4.242 4.242 0 0 0 592.069 57.567 A 3.662 3.662 0 0 0 591.797 57.813 A 14.739 14.739 0 0 1 591.518 58.085 Q 591.296 58.295 591.113 58.447 A 1.257 1.257 0 0 1 590.907 58.589 Q 590.771 58.663 590.635 58.683 A 0.71 0.71 0 0 1 590.527 58.692 Q 590.332 58.692 590.088 58.643 A 2.775 2.775 0 0 0 589.884 58.609 Q 589.778 58.596 589.683 58.594 A 1.615 1.615 0 0 0 589.648 58.594 Q 589.479 58.594 589.054 58.887 A 6.554 6.554 0 0 0 588.916 58.985 A 13.997 13.997 0 0 1 588.409 59.336 Q 588.146 59.51 587.849 59.692 A 23.726 23.726 0 0 1 587.646 59.815 A 53.928 53.928 0 0 0 586.23 60.694 Q 585.679 61.048 585.318 61.18 A 1.609 1.609 0 0 1 585.156 61.231 A 4.76 4.76 0 0 1 584.412 61.036 Q 584.004 60.891 583.684 60.677 A 2.646 2.646 0 0 1 583.447 60.498 A 19.809 19.809 0 0 1 582.55 59.693 A 17.29 17.29 0 0 1 582.275 59.424 A 10.487 10.487 0 0 0 581.152 58.447 A 1.793 1.793 0 0 0 580.264 58.103 Q 579.993 58.072 579.688 58.106 A 3.342 3.342 0 0 1 579.346 56.836 Q 579.297 56.153 579.395 55.469 L 579.395 53.906 A 6.267 6.267 0 0 1 581.201 51.807 A 13.61 13.61 0 0 1 583.594 50.391 L 586.133 49.219 A 10.896 10.896 0 0 0 588.477 47.754 L 589.355 47.754 A 6.944 6.944 0 0 0 589.741 47.765 Q 591.26 47.765 592.432 47.071 A 16.721 16.721 0 0 0 594.922 45.264 A 1127.181 1127.181 0 0 0 597.314 43.164 Q 598.535 42.09 600 41.504 Q 601.074 41.992 602.246 42.334 A 11.976 11.976 0 0 0 604.688 42.774 A 9.086 9.086 0 0 0 606.479 42.589 A 10.87 10.87 0 0 0 607.324 42.383 A 4.148 4.148 0 0 0 608.644 41.751 A 3.768 3.768 0 0 0 609.473 40.918 Q 609.811 41.053 610.079 41.118 A 2.383 2.383 0 0 0 610.303 41.162 A 4.293 4.293 0 0 0 610.58 41.192 Q 610.735 41.204 610.912 41.208 A 8.772 8.772 0 0 0 611.133 41.211 A 6.774 6.774 0 0 0 611.584 41.226 Q 612.743 41.226 613.903 40.828 A 8.077 8.077 0 0 0 614.063 40.772 A 18.617 18.617 0 0 0 616.895 39.453 Q 618.848 39.551 620.752 39.209 A 156.857 156.857 0 0 0 624.561 38.477 A 156.857 156.857 0 0 1 628.369 37.744 Q 630.273 37.403 632.227 37.5 A 26.548 26.548 0 0 0 633.031 37.512 A 25.866 25.866 0 0 0 638.574 36.914 A 22.958 22.958 0 0 1 643.494 36.383 A 23.591 23.591 0 0 1 644.922 36.426 A 66.308 66.308 0 0 1 649.365 36.768 A 28.628 28.628 0 0 0 652.529 36.942 A 29.453 29.453 0 0 0 653.809 36.914 A 109.493 109.493 0 0 0 654.981 37.448 Q 655.538 37.696 656.037 37.911 A 65.125 65.125 0 0 0 656.104 37.94 A 3.618 3.618 0 0 0 656.93 38.177 Q 657.562 38.283 658.338 38.22 A 8.231 8.231 0 0 0 658.691 38.184 Q 661.816 40.821 664.355 44.336 L 664.355 45.996 Q 664.258 48.242 663.574 50.391 A 42.056 42.056 0 0 1 661.963 54.639 A 59.716 59.716 0 0 1 659.961 58.74 Q 658.887 60.742 657.91 62.696 A 2009.445 2009.445 0 0 1 645.215 74.121 Q 638.867 79.785 632.129 85.059 A 9.511 9.511 0 0 1 631.863 86.096 A 7.532 7.532 0 0 1 631.592 86.817 A 5.682 5.682 0 0 0 631.152 88.477 Q 631.152 88.965 631.25 89.258 A 2.772 2.772 0 0 1 632.399 89.921 A 3.284 3.284 0 0 1 632.471 89.99 Q 632.954 90.473 632.844 91.232 A 2.331 2.331 0 0 1 632.813 91.406 L 633.691 91.406 A 0.896 0.896 0 0 1 633.87 91.423 Q 634.18 91.486 634.18 91.797 L 635.742 91.895 A 47.062 47.062 0 0 0 638.216 91.96 A 47.233 47.233 0 0 0 643.164 91.699 A 309.945 309.945 0 0 0 650.635 90.821 Q 654.395 90.332 658.105 89.893 Q 661.816 89.453 665.527 89.356 Q 666.406 89.063 667.383 88.867 Q 668.359 88.672 669.141 88.086 L 669.434 88.086 Q 670.117 88.086 670.459 88.477 A 1.317 1.317 0 0 0 670.919 88.809 Q 671.103 88.892 671.329 88.938 A 2.614 2.614 0 0 0 671.484 88.965 A 2.743 2.743 0 0 0 672.112 88.889 A 3.514 3.514 0 0 0 672.51 88.77 Q 673.047 88.574 673.633 88.477 A 13.531 13.531 0 0 1 676.231 88.009 A 15.071 15.071 0 0 1 676.514 87.988 Q 678.027 87.891 679.492 87.696 Q 685.156 87.207 690.723 87.061 Q 696.289 86.914 701.855 85.645 Q 702.344 86.328 703.223 86.572 A 68.719 68.719 0 0 0 704.126 86.817 A 79.658 79.658 0 0 0 705.078 87.061 A 21.617 21.617 0 0 1 706.242 87.385 A 17.663 17.663 0 0 1 706.885 87.598 A 1.729 1.729 0 0 1 707.935 88.578 A 2.307 2.307 0 0 1 708.008 88.77 A 4.925 4.925 0 0 1 707.787 89.73 Q 707.588 90.305 707.247 90.729 A 2.814 2.814 0 0 1 706.982 91.016 Q 706.152 91.797 705.078 92.481 Q 704.59 92.383 704.15 92.334 A 8.082 8.082 0 0 0 703.479 92.289 A 9.384 9.384 0 0 0 703.223 92.285 Q 700.408 92.195 697.889 92.948 A 15.454 15.454 0 0 0 697.51 93.067 A 31.571 31.571 0 0 1 691.992 94.336 Q 691.016 94.531 690.186 94.483 Q 689.438 94.439 688.652 94.592 A 7.003 7.003 0 0 0 688.477 94.629 A 88.596 88.596 0 0 1 683.995 95.208 A 104.283 104.283 0 0 1 681.836 95.41 A 171.522 171.522 0 0 0 674.805 96.143 A 112.642 112.642 0 0 0 667.92 97.217 A 34.814 34.814 0 0 0 663.113 98.471 A 30.872 30.872 0 0 0 661.621 99.024 A 6.716 6.716 0 0 1 661.145 98.674 A 7.579 7.579 0 0 1 661.035 98.584 Q 660.742 98.34 660.352 98.34 A 5.835 5.835 0 0 0 658.524 98.624 A 5.55 5.55 0 0 0 658.496 98.633 A 4.152 4.152 0 0 1 657.198 98.853 Q 657.188 98.853 657.178 98.853 A 3.976 3.976 0 0 1 656.738 98.828 A 6.903 6.903 0 0 1 654.639 99.658 Q 653.516 99.903 652.393 100.049 A 16.405 16.405 0 0 0 650.195 100.488 A 5.398 5.398 0 0 0 648.67 101.182 A 6.595 6.595 0 0 0 648.145 101.563 Q 647.424 101.203 646.414 101.133 A 6.855 6.855 0 0 0 646.24 101.123 A 2.958 2.958 0 0 1 645.695 101.053 Q 645.013 100.893 644.727 100.391 A 14.951 14.951 0 0 1 639.99 101.758 A 32.177 32.177 0 0 1 636.227 101.978 A 32.95 32.95 0 0 1 634.961 101.953 A 25.448 25.448 0 0 1 633.415 101.812 Q 632.624 101.717 631.747 101.569 A 45.069 45.069 0 0 1 631.152 101.465 Q 629.004 101.074 626.855 100.342 A 25.143 25.143 0 0 1 623.35 98.851 A 22.828 22.828 0 0 1 622.852 98.584 A 9.367 9.367 0 0 1 621.351 97.565 A 6.982 6.982 0 0 1 620.02 96.094 Q 619.336 95.117 619.043 93.946 A 2.649 2.649 0 0 0 617.775 92.244 A 3.294 3.294 0 0 0 617.676 92.188 A 88.697 88.697 0 0 1 618.359 87.793 Q 618.75 85.645 619.141 83.399 A 47.353 47.353 0 0 0 622.852 79.883 A 47.768 47.768 0 0 0 626.172 75.977 A 18.113 18.113 0 0 0 629.639 73.828 A 224.348 224.348 0 0 0 632.861 71.24 A 224.348 224.348 0 0 1 636.084 68.653 A 22.58 22.58 0 0 1 639.551 66.406 A 2.993 2.993 0 0 1 640.083 65.566 A 2.769 2.769 0 0 1 640.381 65.283 A 33.766 33.766 0 0 1 641.495 64.411 A 38.954 38.954 0 0 1 641.504 64.404 Q 642.09 63.965 642.578 63.428 A 2.903 2.903 0 0 0 643.17 62.417 A 3.556 3.556 0 0 0 643.262 62.11 A 22.617 22.617 0 0 0 649.219 56.934 A 15.96 15.96 0 0 0 652.539 49.903 A 8.603 8.603 0 0 0 648.779 48.096 Q 646.68 47.656 644.434 47.461 A 39.848 39.848 0 0 0 642.444 47.412 A 44.408 44.408 0 0 0 640.381 47.461 A 30.24 30.24 0 0 1 638.976 47.494 A 31.387 31.387 0 0 1 636.133 47.363 Q 633.984 48.047 631.689 48.242 A 230.286 230.286 0 0 1 627.148 48.584 A 33.872 33.872 0 0 0 622.705 49.17 A 14.093 14.093 0 0 0 618.473 50.772 A 15.589 15.589 0 0 0 618.457 50.781 Q 618.066 50.781 617.725 50.684 Q 617.383 50.586 616.992 50.586 A 13.74 13.74 0 0 0 616.563 50.579 A 12.343 12.343 0 0 0 611.133 51.807 A 11108.787 11108.787 0 0 1 605.762 54.395 Q 605.612 54.695 605.577 54.88 A 0.551 0.551 0 0 0 605.566 54.981 Q 605.566 55.567 605.811 56.104 Q 606.055 56.641 606.055 57.227 Q 605.957 57.324 605.957 57.422 Q 605.957 57.52 605.859 57.617 A 6.436 6.436 0 0 1 605.742 58.109 A 4.932 4.932 0 0 1 605.615 58.496 Q 605.469 58.887 605.273 59.375 A 21.743 21.743 0 0 0 604.234 63.817 A 19.268 19.268 0 0 0 604.102 65.528 A 65.429 65.429 0 0 0 604.053 68.042 A 61.693 61.693 0 0 0 604.102 70.508 A 61.693 61.693 0 0 1 604.15 72.974 A 65.429 65.429 0 0 1 604.102 75.488 A 28.822 28.822 0 0 1 603.556 79.601 A 25.035 25.035 0 0 1 603.125 81.348 A 87.288 87.288 0 0 1 603.802 85.001 A 99.7 99.7 0 0 1 604.004 86.279 A 67.785 67.785 0 0 0 604.98 91.406 Q 605.566 93.946 606.396 96.338 Q 607.227 98.731 608.594 100.879 A 0.363 0.363 0 0 0 608.574 100.926 Q 608.523 101.079 608.675 101.163 A 0.409 0.409 0 0 0 608.691 101.172 A 0.941 0.941 0 0 0 608.911 101.251 A 0.798 0.798 0 0 0 609.082 101.27 Z M 243.652 58.399 L 243.652 56.25 A 0.246 0.246 0 0 0 243.533 56.286 Q 243.373 56.376 243.164 56.69 A 6.568 6.568 0 0 0 242.784 57.34 A 7.771 7.771 0 0 0 242.627 57.666 A 25.863 25.863 0 0 0 242.341 58.319 A 21.748 21.748 0 0 0 242.188 58.692 Q 242.029 59.088 241.935 59.227 A 0.35 0.35 0 0 1 241.895 59.278 A 8.776 8.776 0 0 0 239.307 62.451 Q 238.379 64.356 237.305 66.016 Q 235.938 68.067 234.424 70.02 Q 232.91 71.973 230.664 73.047 L 230.664 73.242 A 1.268 1.268 0 0 1 230.641 73.492 Q 230.613 73.633 230.549 73.739 A 0.583 0.583 0 0 1 230.371 73.926 A 0.356 0.356 0 0 0 230.237 74.103 Q 230.141 74.356 230.266 74.874 A 3.824 3.824 0 0 0 230.273 74.903 A 16.886 16.886 0 0 0 225.732 77.149 A 12.201 12.201 0 0 0 222.266 80.86 A 18.88 18.88 0 0 0 218.818 82.076 A 17.499 17.499 0 0 0 218.604 82.178 A 70.999 70.999 0 0 0 215.247 83.924 A 77.322 77.322 0 0 0 215.137 83.985 Q 214.355 84.375 213.477 84.961 A 5.903 5.903 0 0 1 212.57 85.462 A 4.628 4.628 0 0 1 211.719 85.742 A 4.879 4.879 0 0 1 211.118 85.921 Q 210.801 85.995 210.426 86.048 A 12.205 12.205 0 0 1 209.619 86.133 A 525.686 525.686 0 0 1 207.587 86.279 A 584.367 584.367 0 0 1 206.885 86.328 A 40.452 40.452 0 0 1 204.102 86.426 L 201.953 86.426 A 1.319 1.319 0 0 1 201.619 86.378 Q 201.309 86.297 200.916 86.076 A 5.767 5.767 0 0 1 200.684 85.938 A 377.084 377.084 0 0 1 199.866 85.425 A 489.935 489.935 0 0 1 198.975 84.863 Q 198.047 84.278 197.07 83.74 Q 196.094 83.203 195.215 83.008 A 16.381 16.381 0 0 0 193.686 79.502 A 14.723 14.723 0 0 0 193.018 78.467 A 141.913 141.913 0 0 0 190.039 74.414 A 43.534 43.534 0 0 0 189.206 71.099 A 51.32 51.32 0 0 0 188.721 69.531 Q 187.891 66.992 185.84 65.332 A 2.621 2.621 0 0 0 186.328 63.77 A 4.527 4.527 0 0 0 185.84 61.719 A 4.68 4.68 0 0 1 185.356 59.789 A 5.498 5.498 0 0 1 185.352 59.571 Q 185.352 58.921 185.419 58.541 A 2.124 2.124 0 0 1 185.449 58.399 A 6.112 6.112 0 0 0 184.313 60.21 A 7.973 7.973 0 0 0 183.936 61.377 Q 183.535 63.025 183.499 64.388 A 10.071 10.071 0 0 0 183.496 64.649 A 8.163 8.163 0 0 0 183.594 65.938 A 6.629 6.629 0 0 0 183.789 66.797 A 6.368 6.368 0 0 0 182.905 68.606 A 8.868 8.868 0 0 0 182.568 70.215 Q 182.372 71.865 182.334 73.199 A 21.891 21.891 0 0 0 182.324 73.828 A 24.387 24.387 0 0 0 182.617 77.637 A 5.174 5.174 0 0 0 181.055 81.375 A 6.41 6.41 0 0 0 181.055 81.446 A 4.677 4.677 0 0 0 181.225 82.729 A 3.972 3.972 0 0 0 181.641 83.692 A 1.245 1.245 0 0 1 181.622 83.912 Q 181.581 84.142 181.445 84.278 Q 181.25 84.473 181.006 84.571 A 3.34 3.34 0 0 0 180.609 84.761 A 3.779 3.779 0 0 0 180.518 84.815 A 0.469 0.469 0 0 0 180.311 85.083 Q 180.283 85.168 180.276 85.273 A 1.134 1.134 0 0 0 180.273 85.352 A 11.31 11.31 0 0 0 180.286 85.864 A 14.941 14.941 0 0 0 180.322 86.426 A 14.105 14.105 0 0 1 180.371 87.598 A 41.482 41.482 0 0 1 180.316 89.704 A 46.154 46.154 0 0 1 180.273 90.43 A 43.759 43.759 0 0 0 180.182 92.572 A 39.32 39.32 0 0 0 180.176 93.262 A 23.929 23.929 0 0 0 180.209 94.577 Q 180.31 96.399 180.713 97.315 A 5.605 5.605 0 0 0 181.157 98.141 Q 181.561 98.755 182.08 99.121 A 27.262 27.262 0 0 0 183.175 99.854 A 32.333 32.333 0 0 0 183.887 100.293 Q 184.815 100.85 185.744 102.379 A 13.147 13.147 0 0 1 185.84 102.539 Q 185.547 103.418 184.814 103.955 A 25.892 25.892 0 0 0 183.771 104.761 A 22.669 22.669 0 0 0 183.447 105.029 A 6.672 6.672 0 0 0 182.324 106.25 A 2.013 2.013 0 0 0 182.029 106.886 Q 181.875 107.438 181.934 108.203 L 181.445 108.203 Q 180.176 108.203 179.004 108.594 A 7.669 7.669 0 0 1 176.563 108.985 A 3.558 3.558 0 0 1 175.977 108.936 A 3.558 3.558 0 0 0 175.391 108.887 L 174.414 108.301 A 2.175 2.175 0 0 0 173.956 108.091 A 1.7 1.7 0 0 0 173.438 108.008 A 3.206 3.206 0 0 0 173.104 108.027 Q 172.705 108.069 172.168 108.203 A 63.558 63.558 0 0 1 170.068 99.121 A 59.565 59.565 0 0 1 169.337 90.223 A 55.222 55.222 0 0 1 169.336 89.942 A 2.199 2.199 0 0 1 169.418 89.361 A 2.964 2.964 0 0 1 169.58 88.916 Q 169.822 88.383 170.305 88.571 A 0.931 0.931 0 0 1 170.313 88.574 L 170.313 86.719 Q 170.313 83.692 170.85 80.811 A 32.412 32.412 0 0 0 171.382 75.389 A 35.969 35.969 0 0 0 171.387 74.805 A 31.683 31.683 0 0 0 171.338 73.047 A 25.56 25.56 0 0 0 171.248 71.885 A 21.601 21.601 0 0 0 171.191 71.387 Q 171.68 69.727 172.217 68.018 Q 172.754 66.309 172.754 64.453 A 5.14 5.14 0 0 0 172.713 63.826 Q 172.671 63.487 172.587 63.105 A 10.697 10.697 0 0 0 172.461 62.598 A 3.601 3.601 0 0 0 173.633 61.084 Q 174.023 60.156 174.219 59.033 A 27.271 27.271 0 0 0 174.506 56.903 A 25.173 25.173 0 0 0 174.512 56.836 A 114.527 114.527 0 0 1 174.609 55.811 A 85.067 85.067 0 0 1 174.707 54.883 A 10.28 10.28 0 0 0 175.781 50.684 Q 175.879 48.438 176.758 46.485 A 2.19 2.19 0 0 1 176.715 46.253 Q 176.66 45.85 176.66 45.117 A 12.845 12.845 0 0 1 177.146 41.662 A 14.635 14.635 0 0 1 177.295 41.162 A 5.2 5.2 0 0 1 179.747 38.163 A 6.749 6.749 0 0 1 179.883 38.086 A 9.685 9.685 0 0 0 181.916 38.62 Q 182.855 38.765 183.916 38.77 A 15.971 15.971 0 0 0 183.984 38.77 A 13.498 13.498 0 0 0 188.281 38.086 A 8.791 8.791 0 0 1 188.976 38.349 A 7.305 7.305 0 0 1 189.355 38.526 A 29.831 29.831 0 0 0 190.115 38.892 A 33.493 33.493 0 0 0 190.381 39.014 Q 190.918 39.258 191.504 39.404 Q 192.002 39.529 192.641 39.477 A 5.333 5.333 0 0 0 192.871 39.453 Q 193.848 42.285 194.58 45.215 A 51.951 51.951 0 0 1 195.703 51.172 A 13.572 13.572 0 0 1 195.847 52.697 Q 195.87 53.284 195.85 53.906 Q 195.813 55.005 195.914 55.994 A 12.753 12.753 0 0 0 195.996 56.641 A 3.521 3.521 0 0 0 196.402 57.916 A 3.387 3.387 0 0 0 196.484 58.057 A 16.627 16.627 0 0 1 196.924 58.817 A 21.079 21.079 0 0 1 197.266 59.473 A 7.912 7.912 0 0 1 197.697 60.526 A 9.822 9.822 0 0 1 197.9 61.231 A 5.409 5.409 0 0 1 198.02 61.889 Q 198.099 62.544 198.064 63.364 A 13.207 13.207 0 0 1 198.047 63.672 A 44.505 44.505 0 0 0 200.439 68.506 A 62.269 62.269 0 0 0 203.32 73.047 A 7.516 7.516 0 0 1 204.295 73.447 A 6.181 6.181 0 0 1 204.883 73.779 A 1.859 1.859 0 0 1 205.581 74.612 A 2.772 2.772 0 0 1 205.762 75.196 A 4.501 4.501 0 0 1 206.592 75.269 A 3.482 3.482 0 0 1 207.324 75.488 L 208.984 75.977 A 30.736 30.736 0 0 0 215.869 72.852 A 41.288 41.288 0 0 1 222.559 69.531 Q 226.855 65.332 229.98 60.205 Q 233.105 55.078 236.23 50 L 236.23 47.852 A 3.914 3.914 0 0 0 237.242 47.133 A 3.725 3.725 0 0 0 237.256 47.119 A 2.393 2.393 0 0 1 238.011 46.615 A 3.045 3.045 0 0 1 238.379 46.485 Q 238.477 45.313 238.916 44.19 A 21.549 21.549 0 0 1 239.893 42.041 Q 240.43 41.016 240.82 39.99 Q 241.211 38.965 241.211 37.793 A 8.118 8.118 0 0 0 241.197 37.308 Q 241.182 37.058 241.151 36.84 A 4.131 4.131 0 0 0 241.113 36.621 A 4.79 4.79 0 0 1 244.565 35.157 A 5.705 5.705 0 0 1 244.629 35.156 Q 246.582 35.156 248.584 36.084 A 291.766 291.766 0 0 0 250.525 36.975 A 237.545 237.545 0 0 0 252.344 37.793 A 23.025 23.025 0 0 1 253.955 42.725 A 40.288 40.288 0 0 1 254.688 48.047 A 76.733 76.733 0 0 1 254.883 53.516 L 254.883 60.449 Q 254.785 61.231 254.346 61.572 A 1.632 1.632 0 0 0 253.929 62.065 Q 253.813 62.27 253.733 62.524 A 2.984 2.984 0 0 0 253.711 62.598 L 253.711 63.574 Q 253.711 64.063 253.613 64.551 A 19.175 19.175 0 0 1 253.382 67.463 A 22.862 22.862 0 0 1 253.125 68.848 Q 252.637 71.68 251.904 74.561 A 23.495 23.495 0 0 0 251.172 80.371 Q 251.172 81.446 251.27 82.52 Q 251.367 83.594 251.66 84.668 A 3.59 3.59 0 0 0 251.312 85.591 Q 251.172 86.183 251.172 86.914 A 7.956 7.956 0 0 0 251.403 88.86 A 6.995 6.995 0 0 0 251.709 89.795 Q 252.246 91.113 253.027 92.383 A 38.367 38.367 0 0 0 255.762 92.285 A 39.275 39.275 0 0 1 258.229 92.189 A 43.396 43.396 0 0 1 258.594 92.188 A 13.47 13.47 0 0 1 260.187 92.278 A 11.042 11.042 0 0 1 261.133 92.432 Q 262.305 92.676 263.574 93.457 A 7.448 7.448 0 0 0 263.225 95.689 A 7.192 7.192 0 0 0 263.281 96.582 A 1.54 1.54 0 0 1 263.037 96.843 A 1.097 1.097 0 0 1 262.598 97.071 A 7.193 7.193 0 0 0 261.816 97.315 Q 261.426 97.461 261.182 97.705 A 0.431 0.431 0 0 0 261.076 97.888 Q 261.012 98.097 261.085 98.443 A 2.823 2.823 0 0 0 261.133 98.633 A 19.657 19.657 0 0 0 254.98 100 A 90.909 90.909 0 0 0 249.219 102.539 A 13.295 13.295 0 0 1 247.852 102.002 A 9.935 9.935 0 0 1 246.68 101.367 A 5.231 5.231 0 0 0 245.502 100.82 Q 244.801 100.589 243.945 100.488 A 80.399 80.399 0 0 1 240.958 93.735 A 87.532 87.532 0 0 1 240.869 93.506 Q 239.453 89.844 239.453 86.133 A 13.288 13.288 0 0 1 239.797 83.058 A 11.322 11.322 0 0 1 240.43 81.153 A 33.849 33.849 0 0 1 240.918 75.391 A 107.032 107.032 0 0 1 242.041 69.776 A 107.032 107.032 0 0 0 243.164 64.16 A 33.849 33.849 0 0 0 243.652 58.399 Z M 328.613 43.653 L 328.613 44.043 A 1.009 1.009 0 0 0 328.253 44.222 Q 328.031 44.401 327.961 44.711 A 1.412 1.412 0 0 0 327.93 45.02 A 10.668 10.668 0 0 1 325.684 45.752 A 10.668 10.668 0 0 0 323.438 46.485 Q 322.363 46.387 321.24 46.338 A 50.599 50.599 0 0 0 319.043 46.289 A 88.062 88.062 0 0 0 313.184 46.485 Q 310.254 46.68 307.324 46.485 A 12.645 12.645 0 0 1 304.546 47.649 A 14.046 14.046 0 0 1 304.346 47.705 Q 302.734 48.145 301.27 48.145 Q 300.18 48.145 299.344 47.892 A 4.732 4.732 0 0 1 299.219 47.852 A 27.855 27.855 0 0 1 295.456 49.39 A 32.427 32.427 0 0 1 294.092 49.805 A 282.544 282.544 0 0 1 288.477 51.319 A 62.954 62.954 0 0 0 283.707 52.75 A 57.416 57.416 0 0 0 283.057 52.979 A 14.814 14.814 0 0 0 279.4 54.875 A 13.617 13.617 0 0 0 278.516 55.567 A 39.763 39.763 0 0 0 278.223 58.252 Q 278.125 59.571 278.125 60.84 A 22.443 22.443 0 0 0 278.177 62.395 A 18.007 18.007 0 0 0 278.271 63.379 A 8.847 8.847 0 0 0 278.79 65.43 A 10.024 10.024 0 0 0 278.906 65.723 A 4.453 4.453 0 0 0 279.466 65.903 A 6.021 6.021 0 0 0 280.029 66.016 Q 280.575 66.1 281.012 66.112 A 5.2 5.2 0 0 0 281.152 66.113 A 3.383 3.383 0 0 0 282.129 65.967 A 1.01 1.01 0 0 0 282.766 65.435 A 1.302 1.302 0 0 0 282.813 65.332 Q 284.277 65.137 285.742 65.186 A 87.934 87.934 0 0 0 288.672 65.235 A 41.866 41.866 0 0 0 291.553 65.137 A 13.479 13.479 0 0 0 294.336 64.649 Q 295.898 64.258 297.412 64.16 A 1394.239 1394.239 0 0 0 300.391 63.965 A 33.886 33.886 0 0 0 302.932 63.696 A 37.905 37.905 0 0 0 303.418 63.623 A 10.946 10.946 0 0 0 305.409 63.108 A 13.775 13.775 0 0 0 306.641 62.598 A 7.154 7.154 0 0 0 309.229 63.086 A 16.995 16.995 0 0 1 311.816 63.281 A 5.547 5.547 0 0 1 312.525 63.879 A 4.519 4.519 0 0 1 312.939 64.356 A 2.198 2.198 0 0 1 313.378 65.638 A 2.722 2.722 0 0 1 313.379 65.723 Q 313.379 67.09 312.402 68.457 A 23.686 23.686 0 0 0 311.623 69.616 Q 311.169 70.337 310.84 70.996 L 309.766 70.996 A 16.279 16.279 0 0 0 305.225 71.631 A 57.924 57.924 0 0 0 300.83 73.096 Q 298.633 73.926 296.436 74.561 A 16.279 16.279 0 0 1 291.895 75.196 A 0.503 0.503 0 0 0 291.711 75.226 Q 291.498 75.309 291.458 75.614 A 0.974 0.974 0 0 0 291.455 75.635 A 1.82 1.82 0 0 1 291.416 75.863 Q 291.351 76.129 291.211 76.27 A 3.736 3.736 0 0 0 290.898 76.223 Q 290.553 76.184 290.061 76.175 A 17.161 17.161 0 0 0 289.746 76.172 A 18.709 18.709 0 0 0 285.965 76.546 A 17.21 17.21 0 0 0 285.449 76.66 A 18.067 18.067 0 0 1 281.25 77.149 A 14.105 14.105 0 0 1 280.078 77.1 Q 279.492 77.051 278.906 76.953 A 2.626 2.626 0 0 1 278.413 77.543 A 2.131 2.131 0 0 1 277.637 77.979 A 4.021 4.021 0 0 0 276.443 78.593 A 4.79 4.79 0 0 0 276.172 78.809 Q 275.932 79.529 275.856 80.511 A 11.484 11.484 0 0 0 275.83 80.957 A 1821.055 1821.055 0 0 0 275.732 83.545 A 20.549 20.549 0 0 1 275.596 85.289 A 17.568 17.568 0 0 1 275.488 86.035 Q 275.327 87.001 274.901 87.635 A 2.747 2.747 0 0 1 274.707 87.891 A 0.516 0.516 0 0 0 274.784 88.083 Q 274.953 88.331 275.432 88.244 A 1.842 1.842 0 0 0 275.488 88.233 Q 276.095 88.103 276.163 88.703 A 1.457 1.457 0 0 1 276.172 88.867 A 8.879 8.879 0 0 1 276.088 90.063 A 10.744 10.744 0 0 1 275.977 90.723 A 9.937 9.937 0 0 0 275.781 92.676 Q 275.781 94.531 276.221 96.729 A 16.468 16.468 0 0 0 277.205 99.953 A 14.826 14.826 0 0 0 277.588 100.781 Q 278.516 102.637 280.078 103.858 A 5.663 5.663 0 0 0 282.596 104.959 A 7.762 7.762 0 0 0 283.984 105.078 A 7.358 7.358 0 0 0 286.914 104.492 A 4.872 4.872 0 0 0 288.918 102.889 A 6.053 6.053 0 0 0 289.16 102.539 L 289.648 102.442 Q 290.039 102.442 290.381 102.539 Q 290.723 102.637 291.113 102.637 Q 291.605 102.637 292.338 102.121 A 6.623 6.623 0 0 0 292.627 101.904 A 47.169 47.169 0 0 0 293.54 101.164 Q 294.081 100.714 294.678 100.196 A 64.679 64.679 0 0 1 296.973 98.291 A 10.41 10.41 0 0 1 297.944 97.604 Q 298.455 97.287 298.945 97.08 A 5.806 5.806 0 0 1 299.219 96.973 Q 299.902 95.606 300.537 94.238 A 4.879 4.879 0 0 1 302.441 92.09 L 302.441 89.258 Q 303.418 88.184 304.541 87.305 A 5.598 5.598 0 0 0 306.25 85.059 A 6.686 6.686 0 0 0 306.784 85.248 A 5.292 5.292 0 0 0 307.178 85.352 A 4.169 4.169 0 0 0 307.924 85.446 A 4.75 4.75 0 0 0 308.105 85.449 Q 308.594 85.449 309.131 85.352 A 5.312 5.312 0 0 0 310.156 85.059 Q 310.938 86.133 311.377 87.451 Q 311.816 88.77 312.5 89.942 Q 311.896 91.15 311.153 92.682 A 405.595 405.595 0 0 0 310.449 94.141 A 87.412 87.412 0 0 1 307.91 99.024 A 58.893 58.893 0 0 1 305.029 103.662 Q 303.87 105.345 302.74 106.426 A 10.384 10.384 0 0 1 302.051 107.031 A 1.334 1.334 0 0 1 301.862 107.184 Q 301.53 107.411 300.847 107.688 A 13.118 13.118 0 0 1 300.781 107.715 A 42.045 42.045 0 0 0 299.756 108.484 A 33.615 33.615 0 0 0 298.828 109.229 A 11.497 11.497 0 0 0 297.514 110.522 A 13.223 13.223 0 0 0 297.168 110.938 Q 294.336 111.817 291.748 113.281 A 277.223 277.223 0 0 1 286.621 116.113 A 9.843 9.843 0 0 0 284.938 115.851 A 11.929 11.929 0 0 0 284.082 115.821 A 18.878 18.878 0 0 0 281.738 115.967 A 18.836 18.836 0 0 1 280.238 116.091 A 23.458 23.458 0 0 1 279.199 116.113 Q 278.809 115.625 278.076 115.479 A 0.911 0.911 0 0 1 277.81 115.385 Q 277.401 115.157 277.528 114.505 A 2.075 2.075 0 0 1 277.539 114.453 Q 274.219 114.258 272.168 112.647 A 14.523 14.523 0 0 1 268.701 108.692 A 23.954 23.954 0 0 1 266.406 103.613 Q 265.527 100.879 264.551 98.34 L 264.551 98.047 Q 264.551 97.559 264.941 97.461 Q 265.322 97.366 265.332 96.9 A 1.185 1.185 0 0 0 265.332 96.875 A 0.623 0.623 0 0 0 265.323 96.765 Q 265.302 96.65 265.234 96.582 A 123.267 123.267 0 0 1 265.028 95.818 Q 264.948 95.516 264.878 95.244 A 65.12 65.12 0 0 1 264.746 94.727 Q 264.551 93.946 264.551 92.871 Q 264.551 91.309 264.746 89.795 A 24.015 24.015 0 0 0 264.941 86.719 A 10.614 10.614 0 0 0 264.867 85.427 Q 264.771 84.644 264.551 83.985 A 2.895 2.895 0 0 0 264.859 83.502 Q 265.046 83.14 265.186 82.666 A 9.931 9.931 0 0 0 265.527 80.957 A 31.977 31.977 0 0 0 265.674 79.199 A 8.446 8.446 0 0 1 265.756 78.394 Q 265.817 77.993 265.916 77.642 A 5.154 5.154 0 0 1 265.918 77.637 Q 265.582 76.714 265.319 75.971 A 152.223 152.223 0 0 1 265.234 75.733 A 4.772 4.772 0 0 1 265.029 74.91 Q 264.941 74.372 264.941 73.731 L 264.941 73.047 A 23.615 23.615 0 0 0 266.602 69.629 A 139.504 139.504 0 0 1 267.873 66.478 A 153.71 153.71 0 0 1 268.066 66.016 L 268.066 65.723 A 82.3 82.3 0 0 0 267.871 60.059 A 82.3 82.3 0 0 1 267.676 54.395 L 267.676 52.539 A 17.538 17.538 0 0 1 267.726 51.186 A 15.115 15.115 0 0 1 267.773 50.684 A 2.95 2.95 0 0 0 268.484 50.195 A 2.516 2.516 0 0 0 268.945 49.61 A 2.605 2.605 0 0 1 269.849 48.685 A 3.275 3.275 0 0 1 270.117 48.535 L 273.34 48.535 L 273.926 47.559 A 3.038 3.038 0 0 0 274.316 46.485 A 10.433 10.433 0 0 0 276.416 45.654 A 21.719 21.719 0 0 0 277.872 44.821 A 18.939 18.939 0 0 0 278.32 44.531 A 712.322 712.322 0 0 1 279.626 43.787 A 528.519 528.519 0 0 1 280.811 43.115 Q 281.934 42.481 283.057 42.041 A 16.756 16.756 0 0 1 284.978 41.424 A 18.878 18.878 0 0 1 285.449 41.309 A 22.124 22.124 0 0 1 286.635 41.071 Q 287.445 40.93 288.379 40.821 A 3.246 3.246 0 0 0 288.716 40.804 Q 289.217 40.752 289.404 40.528 Q 289.637 40.248 290.093 39.879 A 9.964 9.964 0 0 1 290.137 39.844 A 58.06 58.06 0 0 0 292.48 40.186 A 18.878 18.878 0 0 0 294.824 40.332 Q 297.168 40.332 299.219 39.453 Q 302.148 39.453 305.029 39.356 Q 307.91 39.258 310.84 39.258 A 66.187 66.187 0 0 1 315.918 39.453 A 41.668 41.668 0 0 1 320.898 40.137 A 5.659 5.659 0 0 1 322.073 39.885 A 7.132 7.132 0 0 1 322.852 39.844 A 12.11 12.11 0 0 1 325.092 40.059 A 13.391 13.391 0 0 1 325.244 40.088 A 6.826 6.826 0 0 0 326.585 40.224 A 6.384 6.384 0 0 0 327.637 40.137 Q 327.734 41.211 328.174 41.944 A 3.07 3.07 0 0 1 328.579 43.123 A 3.927 3.927 0 0 1 328.613 43.653 Z M 587.793 43.653 L 587.793 44.043 A 1.009 1.009 0 0 0 587.432 44.222 Q 587.21 44.401 587.141 44.711 A 1.412 1.412 0 0 0 587.109 45.02 A 10.668 10.668 0 0 1 584.863 45.752 A 10.668 10.668 0 0 0 582.617 46.485 Q 581.543 46.387 580.42 46.338 A 50.599 50.599 0 0 0 578.223 46.289 A 88.062 88.062 0 0 0 572.363 46.485 Q 569.434 46.68 566.504 46.485 A 12.645 12.645 0 0 1 563.726 47.649 A 14.046 14.046 0 0 1 563.525 47.705 Q 561.914 48.145 560.449 48.145 Q 559.36 48.145 558.523 47.892 A 4.732 4.732 0 0 1 558.398 47.852 A 27.855 27.855 0 0 1 554.636 49.39 A 32.427 32.427 0 0 1 553.271 49.805 A 282.544 282.544 0 0 1 547.656 51.319 A 62.954 62.954 0 0 0 542.887 52.75 A 57.416 57.416 0 0 0 542.236 52.979 A 14.814 14.814 0 0 0 538.58 54.875 A 13.617 13.617 0 0 0 537.695 55.567 A 39.763 39.763 0 0 0 537.402 58.252 Q 537.305 59.571 537.305 60.84 A 22.443 22.443 0 0 0 537.356 62.395 A 18.007 18.007 0 0 0 537.451 63.379 A 8.847 8.847 0 0 0 537.969 65.43 A 10.024 10.024 0 0 0 538.086 65.723 A 4.453 4.453 0 0 0 538.646 65.903 A 6.021 6.021 0 0 0 539.209 66.016 Q 539.754 66.1 540.192 66.112 A 5.2 5.2 0 0 0 540.332 66.113 A 3.383 3.383 0 0 0 541.309 65.967 A 1.01 1.01 0 0 0 541.946 65.435 A 1.302 1.302 0 0 0 541.992 65.332 Q 543.457 65.137 544.922 65.186 A 87.934 87.934 0 0 0 547.852 65.235 A 41.866 41.866 0 0 0 550.732 65.137 A 13.479 13.479 0 0 0 553.516 64.649 Q 555.078 64.258 556.592 64.16 A 1394.239 1394.239 0 0 0 559.57 63.965 A 33.886 33.886 0 0 0 562.112 63.696 A 37.905 37.905 0 0 0 562.598 63.623 A 10.946 10.946 0 0 0 564.589 63.108 A 13.775 13.775 0 0 0 565.82 62.598 A 7.154 7.154 0 0 0 568.408 63.086 A 16.995 16.995 0 0 1 570.996 63.281 A 5.547 5.547 0 0 1 571.705 63.879 A 4.519 4.519 0 0 1 572.119 64.356 A 2.198 2.198 0 0 1 572.557 65.638 A 2.722 2.722 0 0 1 572.559 65.723 Q 572.559 67.09 571.582 68.457 A 23.686 23.686 0 0 0 570.802 69.616 Q 570.349 70.337 570.02 70.996 L 568.945 70.996 A 16.279 16.279 0 0 0 564.404 71.631 A 57.924 57.924 0 0 0 560.01 73.096 Q 557.813 73.926 555.615 74.561 A 16.279 16.279 0 0 1 551.074 75.196 A 0.503 0.503 0 0 0 550.891 75.226 Q 550.678 75.309 550.637 75.614 A 0.974 0.974 0 0 0 550.635 75.635 A 1.82 1.82 0 0 1 550.596 75.863 Q 550.531 76.129 550.391 76.27 A 3.736 3.736 0 0 0 550.077 76.223 Q 549.733 76.184 549.241 76.175 A 17.161 17.161 0 0 0 548.926 76.172 A 18.709 18.709 0 0 0 545.145 76.546 A 17.21 17.21 0 0 0 544.629 76.66 A 18.067 18.067 0 0 1 540.43 77.149 A 14.105 14.105 0 0 1 539.258 77.1 Q 538.672 77.051 538.086 76.953 A 2.626 2.626 0 0 1 537.593 77.543 A 2.131 2.131 0 0 1 536.816 77.979 A 4.021 4.021 0 0 0 535.622 78.593 A 4.79 4.79 0 0 0 535.352 78.809 Q 535.112 79.529 535.035 80.511 A 11.484 11.484 0 0 0 535.01 80.957 A 1821.055 1821.055 0 0 0 534.912 83.545 A 20.549 20.549 0 0 1 534.776 85.289 A 17.568 17.568 0 0 1 534.668 86.035 Q 534.507 87.001 534.081 87.635 A 2.747 2.747 0 0 1 533.887 87.891 A 0.516 0.516 0 0 0 533.963 88.083 Q 534.133 88.331 534.612 88.244 A 1.842 1.842 0 0 0 534.668 88.233 Q 535.275 88.103 535.343 88.703 A 1.457 1.457 0 0 1 535.352 88.867 A 8.879 8.879 0 0 1 535.267 90.063 A 10.744 10.744 0 0 1 535.156 90.723 A 9.937 9.937 0 0 0 534.961 92.676 Q 534.961 94.531 535.4 96.729 A 16.468 16.468 0 0 0 536.385 99.953 A 14.826 14.826 0 0 0 536.768 100.781 Q 537.695 102.637 539.258 103.858 A 5.663 5.663 0 0 0 541.776 104.959 A 7.762 7.762 0 0 0 543.164 105.078 A 7.358 7.358 0 0 0 546.094 104.492 A 4.872 4.872 0 0 0 548.098 102.889 A 6.053 6.053 0 0 0 548.34 102.539 L 548.828 102.442 Q 549.219 102.442 549.561 102.539 Q 549.902 102.637 550.293 102.637 Q 550.785 102.637 551.518 102.121 A 6.623 6.623 0 0 0 551.807 101.904 A 47.169 47.169 0 0 0 552.719 101.164 Q 553.261 100.714 553.857 100.196 A 64.679 64.679 0 0 1 556.152 98.291 A 10.41 10.41 0 0 1 557.124 97.604 Q 557.634 97.287 558.125 97.08 A 5.806 5.806 0 0 1 558.398 96.973 Q 559.082 95.606 559.717 94.238 A 4.879 4.879 0 0 1 561.621 92.09 L 561.621 89.258 Q 562.598 88.184 563.721 87.305 A 5.598 5.598 0 0 0 565.43 85.059 A 6.686 6.686 0 0 0 565.964 85.248 A 5.292 5.292 0 0 0 566.357 85.352 A 4.169 4.169 0 0 0 567.104 85.446 A 4.75 4.75 0 0 0 567.285 85.449 Q 567.773 85.449 568.311 85.352 A 5.312 5.312 0 0 0 569.336 85.059 Q 570.117 86.133 570.557 87.451 Q 570.996 88.77 571.68 89.942 Q 571.075 91.15 570.333 92.682 A 405.595 405.595 0 0 0 569.629 94.141 A 87.412 87.412 0 0 1 567.09 99.024 A 58.893 58.893 0 0 1 564.209 103.662 Q 563.05 105.345 561.92 106.426 A 10.384 10.384 0 0 1 561.23 107.031 A 1.334 1.334 0 0 1 561.041 107.184 Q 560.709 107.411 560.027 107.688 A 13.118 13.118 0 0 1 559.961 107.715 A 42.045 42.045 0 0 0 558.936 108.484 A 33.615 33.615 0 0 0 558.008 109.229 A 11.497 11.497 0 0 0 556.694 110.522 A 13.223 13.223 0 0 0 556.348 110.938 Q 553.516 111.817 550.928 113.281 A 277.223 277.223 0 0 1 545.801 116.113 A 9.843 9.843 0 0 0 544.118 115.851 A 11.929 11.929 0 0 0 543.262 115.821 A 18.878 18.878 0 0 0 540.918 115.967 A 18.836 18.836 0 0 1 539.417 116.091 A 23.458 23.458 0 0 1 538.379 116.113 Q 537.988 115.625 537.256 115.479 A 0.911 0.911 0 0 1 536.989 115.385 Q 536.58 115.157 536.708 114.505 A 2.075 2.075 0 0 1 536.719 114.453 Q 533.398 114.258 531.348 112.647 A 14.523 14.523 0 0 1 527.881 108.692 A 23.954 23.954 0 0 1 525.586 103.613 Q 524.707 100.879 523.73 98.34 L 523.73 98.047 Q 523.73 97.559 524.121 97.461 Q 524.502 97.366 524.511 96.9 A 1.185 1.185 0 0 0 524.512 96.875 A 0.623 0.623 0 0 0 524.503 96.765 Q 524.482 96.65 524.414 96.582 A 123.267 123.267 0 0 1 524.208 95.818 Q 524.128 95.516 524.057 95.244 A 65.12 65.12 0 0 1 523.926 94.727 Q 523.73 93.946 523.73 92.871 Q 523.73 91.309 523.926 89.795 A 24.015 24.015 0 0 0 524.121 86.719 A 10.614 10.614 0 0 0 524.046 85.427 Q 523.95 84.644 523.73 83.985 A 2.895 2.895 0 0 0 524.039 83.502 Q 524.226 83.14 524.365 82.666 A 9.931 9.931 0 0 0 524.707 80.957 A 31.977 31.977 0 0 0 524.854 79.199 A 8.446 8.446 0 0 1 524.935 78.394 Q 524.996 77.993 525.096 77.642 A 5.154 5.154 0 0 1 525.098 77.637 Q 524.762 76.714 524.498 75.971 A 152.223 152.223 0 0 1 524.414 75.733 A 4.772 4.772 0 0 1 524.209 74.91 Q 524.121 74.372 524.121 73.731 L 524.121 73.047 A 23.615 23.615 0 0 0 525.781 69.629 A 139.504 139.504 0 0 1 527.052 66.478 A 153.71 153.71 0 0 1 527.246 66.016 L 527.246 65.723 A 82.3 82.3 0 0 0 527.051 60.059 A 82.3 82.3 0 0 1 526.855 54.395 L 526.855 52.539 A 17.538 17.538 0 0 1 526.906 51.186 A 15.115 15.115 0 0 1 526.953 50.684 A 2.95 2.95 0 0 0 527.664 50.195 A 2.516 2.516 0 0 0 528.125 49.61 A 2.605 2.605 0 0 1 529.029 48.685 A 3.275 3.275 0 0 1 529.297 48.535 L 532.52 48.535 L 533.105 47.559 A 3.038 3.038 0 0 0 533.496 46.485 A 10.433 10.433 0 0 0 535.596 45.654 A 21.719 21.719 0 0 0 537.051 44.821 A 18.939 18.939 0 0 0 537.5 44.531 A 712.322 712.322 0 0 1 538.806 43.787 A 528.519 528.519 0 0 1 539.99 43.115 Q 541.113 42.481 542.236 42.041 A 16.756 16.756 0 0 1 544.158 41.424 A 18.878 18.878 0 0 1 544.629 41.309 A 22.124 22.124 0 0 1 545.815 41.071 Q 546.625 40.93 547.559 40.821 A 3.246 3.246 0 0 0 547.895 40.804 Q 548.397 40.752 548.584 40.528 Q 548.817 40.248 549.272 39.879 A 9.964 9.964 0 0 1 549.316 39.844 A 58.06 58.06 0 0 0 551.66 40.186 A 18.878 18.878 0 0 0 554.004 40.332 Q 556.348 40.332 558.398 39.453 Q 561.328 39.453 564.209 39.356 Q 567.09 39.258 570.02 39.258 A 66.187 66.187 0 0 1 575.098 39.453 A 41.668 41.668 0 0 1 580.078 40.137 A 5.659 5.659 0 0 1 581.253 39.885 A 7.132 7.132 0 0 1 582.031 39.844 A 12.11 12.11 0 0 1 584.271 40.059 A 13.391 13.391 0 0 1 584.424 40.088 A 6.826 6.826 0 0 0 585.765 40.224 A 6.384 6.384 0 0 0 586.816 40.137 Q 586.914 41.211 587.354 41.944 A 3.07 3.07 0 0 1 587.758 43.123 A 3.927 3.927 0 0 1 587.793 43.653 Z M 387.988 117.383 L 385.938 116.699 A 9.701 9.701 0 0 0 384.641 116.409 A 12.052 12.052 0 0 0 383.789 116.309 A 17.276 17.276 0 0 0 382.857 115.54 Q 382.386 115.177 381.845 114.804 A 28.124 28.124 0 0 0 381.689 114.697 A 4.003 4.003 0 0 0 380.989 114.312 Q 380.13 113.952 379.297 114.16 Q 378.809 112.696 377.832 111.621 Q 376.855 110.547 375.586 109.668 A 3.931 3.931 0 0 0 374.962 109.331 A 4.278 4.278 0 0 0 374.951 109.326 A 2.246 2.246 0 0 1 374.706 109.204 Q 374.587 109.135 374.494 109.057 A 1.19 1.19 0 0 1 374.414 108.985 Q 373.926 108.692 373.535 107.813 A 3.176 3.176 0 0 0 373.361 107.473 Q 373.156 107.13 372.927 107.005 A 0.559 0.559 0 0 0 372.656 106.934 Q 372.568 106.934 372.44 107.013 A 1.057 1.057 0 0 0 372.412 107.031 Q 372.266 107.129 372.168 107.129 A 8.161 8.161 0 0 0 371.582 105.42 A 1.757 1.757 0 0 0 370.464 104.458 A 2.466 2.466 0 0 0 370.215 104.395 A 28.255 28.255 0 0 1 369.141 99.317 Q 368.848 96.778 368.359 94.238 Q 368.225 93.701 368.068 93.003 A 91.848 91.848 0 0 1 367.92 92.334 Q 367.676 91.211 367.676 90.332 A 12.173 12.173 0 0 1 367.738 89.151 Q 367.8 88.51 367.927 87.783 A 25.468 25.468 0 0 1 368.115 86.817 A 182.44 182.44 0 0 0 368.472 85.116 Q 368.63 84.341 368.762 83.652 A 100.045 100.045 0 0 0 368.848 83.203 A 77.306 77.306 0 0 1 371.973 72.217 A 194.296 194.296 0 0 1 376.221 61.621 Q 378.516 56.348 380.957 51.172 A 190.917 190.917 0 0 0 385.547 40.625 A 1.203 1.203 0 0 0 385.709 40.615 Q 385.96 40.581 386.035 40.43 L 386.328 39.942 Q 386.462 39.74 386.574 39.585 A 7.445 7.445 0 0 1 386.67 39.453 A 0.379 0.379 0 0 1 386.811 39.342 Q 386.984 39.258 387.305 39.258 L 387.305 38.965 Q 387.207 38.379 387.549 37.988 Q 387.871 37.621 387.716 36.82 A 3.657 3.657 0 0 0 387.695 36.719 A 17.459 17.459 0 0 0 390.332 32.764 A 180.728 180.728 0 0 1 392.529 28.418 A 66.523 66.523 0 0 1 394.922 24.219 A 12.751 12.751 0 0 1 398.145 20.703 L 398.145 20.02 Q 398.06 19.596 398.159 19.134 A 2.679 2.679 0 0 1 398.193 18.994 A 1.182 1.182 0 0 1 398.364 18.621 A 1.012 1.012 0 0 1 398.828 18.262 A 25.977 25.977 0 0 0 400.598 16.312 A 20.337 20.337 0 0 0 401.758 14.746 A 130.624 130.624 0 0 1 404.15 11.279 Q 405.371 9.571 406.885 8.057 A 14.136 14.136 0 0 1 408.666 6.561 Q 409.607 5.889 410.742 5.274 A 3.385 3.385 0 0 0 411.694 4.64 A 3.001 3.001 0 0 0 412.305 3.809 A 3.732 3.732 0 0 1 412.721 3.147 Q 413.057 2.726 413.485 2.489 A 2.331 2.331 0 0 1 413.574 2.442 Q 413.965 2.246 414.404 2.197 Q 414.844 2.149 415.234 1.953 A 27.332 27.332 0 0 0 418.555 0.733 A 8.614 8.614 0 0 1 422.07 0 A 6.644 6.644 0 0 1 423.472 0.139 Q 424.35 0.328 425.007 0.777 A 3.688 3.688 0 0 1 425.635 1.319 A 9.661 9.661 0 0 1 427.218 3.652 A 11.571 11.571 0 0 1 427.588 4.492 A 28.705 28.705 0 0 1 428.778 8.271 A 31.343 31.343 0 0 1 428.809 8.399 A 10.801 10.801 0 0 0 429.492 10.411 A 8.616 8.616 0 0 0 430.371 11.914 Q 433.301 12.11 436.328 12.549 Q 439.355 12.988 441.602 15.039 A 0.86 0.86 0 0 0 441.806 15.109 Q 441.934 15.137 442.09 15.137 A 0.896 0.896 0 0 0 442.268 15.121 Q 442.578 15.058 442.578 14.746 Q 442.578 14.356 443.066 14.356 L 443.359 14.356 A 55.308 55.308 0 0 1 448.975 18.213 A 163.55 163.55 0 0 1 454.297 22.559 A 11.664 11.664 0 0 0 455.322 23.291 A 3.772 3.772 0 0 1 456.25 24.121 A 8.182 8.182 0 0 1 456.784 24.842 A 10.437 10.437 0 0 1 457.178 25.488 A 25.827 25.827 0 0 0 457.579 26.178 Q 457.773 26.499 457.956 26.777 A 15.041 15.041 0 0 0 458.008 26.856 A 54.779 54.779 0 0 1 464.551 45.117 Q 464.746 46.192 464.893 47.168 A 13.306 13.306 0 0 1 465.022 48.408 A 11.177 11.177 0 0 1 465.039 49.024 A 3.059 3.059 0 0 0 465.06 49.395 Q 465.129 49.959 465.43 50.147 A 0.709 0.709 0 0 1 465.697 50.463 Q 465.81 50.711 465.82 51.102 A 2.983 2.983 0 0 1 465.82 51.172 Q 465.82 56.738 465.088 61.963 A 98.242 98.242 0 0 1 462.988 72.559 A 4.334 4.334 0 0 0 461.951 73.677 A 3.88 3.88 0 0 0 461.426 75 Q 461.133 76.465 460.449 77.735 A 13.135 13.135 0 0 1 459.814 78.774 Q 459.46 79.3 459.023 79.858 A 22.343 22.343 0 0 1 458.887 80.029 Q 457.91 81.25 456.738 82.569 A 197.864 197.864 0 0 0 454.395 85.254 A 19.249 19.249 0 0 0 453.111 86.92 A 15.746 15.746 0 0 0 452.441 87.988 A 6.484 6.484 0 0 0 448.656 91.28 A 9.241 9.241 0 0 0 448.242 92.188 A 59.563 59.563 0 0 0 445.844 93.149 A 67.498 67.498 0 0 0 445.02 93.506 A 4.302 4.302 0 0 0 442.697 95.942 A 5.509 5.509 0 0 0 442.676 95.996 Q 439.063 97.852 435.889 100.244 A 39.462 39.462 0 0 1 429.004 104.395 A 3.195 3.195 0 0 1 427.881 105.127 A 21.132 21.132 0 0 0 426.611 105.664 A 5.448 5.448 0 0 0 425.439 106.397 A 1.718 1.718 0 0 0 424.805 107.52 A 1.637 1.637 0 0 1 424.625 107.511 Q 424.441 107.49 424.333 107.424 A 0.351 0.351 0 0 1 424.268 107.373 A 0.468 0.468 0 0 0 424.166 107.299 Q 423.992 107.201 423.637 107.13 A 4.082 4.082 0 0 0 423.633 107.129 Q 422.56 107.714 422.656 108.981 A 2.887 2.887 0 0 0 422.656 108.985 Q 422.38 108.847 421.959 108.806 A 3.947 3.947 0 0 0 421.582 108.789 A 3.924 3.924 0 0 0 419.887 109.184 A 5.075 5.075 0 0 0 419.287 109.522 A 13.651 13.651 0 0 0 418.25 110.266 A 10.198 10.198 0 0 0 417.383 111.035 A 26.639 26.639 0 0 1 416.125 111.621 Q 415.454 111.914 414.697 112.207 A 4.247 4.247 0 0 0 413.374 113.004 A 3.861 3.861 0 0 0 412.5 114.16 Q 412.109 113.77 411.328 113.77 A 3.272 3.272 0 0 0 410.367 113.921 Q 409.985 114.038 409.587 114.246 A 5.709 5.709 0 0 0 409.473 114.307 Q 408.663 114.752 408.19 115.298 A 3.088 3.088 0 0 0 408.008 115.528 A 7.59 7.59 0 0 0 405.458 115.953 A 7.268 7.268 0 0 0 405.42 115.967 A 214.55 214.55 0 0 1 402.93 116.846 A 111.549 111.549 0 0 1 400.439 117.676 A 8.371 8.371 0 0 1 398.064 118.064 A 9.452 9.452 0 0 1 397.852 118.067 A 2.49 2.49 0 0 1 397.412 118.03 Q 397.171 117.987 396.981 117.892 A 1.158 1.158 0 0 1 396.68 117.676 A 3.35 3.35 0 0 0 396.148 117.247 A 4.36 4.36 0 0 0 395.703 116.992 Q 395.215 117.383 393.994 117.871 A 12.636 12.636 0 0 1 393.423 118.085 Q 392.627 118.36 392.188 118.36 A 7.605 7.605 0 0 1 390.088 118.067 Q 389.063 117.774 387.988 117.383 Z M 523.828 44.238 L 522.461 46.094 Q 521.777 46.973 520.996 47.803 A 5.372 5.372 0 0 1 519.571 48.874 A 6.512 6.512 0 0 1 519.043 49.121 A 71.412 71.412 0 0 1 516.65 57.373 Q 515.234 61.328 514.551 65.625 A 21.029 21.029 0 0 0 512.874 69.684 A 23.711 23.711 0 0 0 512.695 70.313 A 415.217 415.217 0 0 1 511.279 75.44 A 63.649 63.649 0 0 1 509.939 79.633 A 57.165 57.165 0 0 1 509.668 80.371 A 14.208 14.208 0 0 1 507.227 84.571 A 127.401 127.401 0 0 0 506.25 87.634 A 153.279 153.279 0 0 0 505.664 89.6 Q 504.883 92.285 503.027 94.043 Q 503.125 94.238 503.125 94.629 A 4.357 4.357 0 0 1 502.539 96.826 A 4.484 4.484 0 0 0 502.057 98.028 A 3.917 3.917 0 0 0 501.953 98.926 A 20.788 20.788 0 0 0 499.421 101.182 A 23.482 23.482 0 0 0 498.975 101.66 Q 497.559 103.223 496.094 104.785 Q 494.629 106.348 492.969 107.52 A 9.402 9.402 0 0 1 489.355 109.082 A 18.083 18.083 0 0 1 486.816 106.885 A 9.883 9.883 0 0 0 484.082 104.883 Q 483.301 100.488 483.154 96.24 A 81.377 81.377 0 0 0 482.422 87.793 A 24.782 24.782 0 0 0 481.201 83.106 A 13.144 13.144 0 0 1 480.371 78.516 Q 480.371 78.028 480.42 77.49 A 10.009 10.009 0 0 1 480.521 76.712 A 8.885 8.885 0 0 1 480.566 76.465 Q 479.59 75.391 479.297 73.779 Q 479.004 72.168 478.809 70.459 Q 478.613 68.75 478.271 67.09 A 7.868 7.868 0 0 0 477.776 65.508 A 6.291 6.291 0 0 0 477.051 64.258 A 1.292 1.292 0 0 0 477.395 63.619 A 1.938 1.938 0 0 0 477.441 63.184 A 3.383 3.383 0 0 0 477.295 62.207 A 3.383 3.383 0 0 1 477.148 61.231 A 1.261 1.261 0 0 1 477.201 60.884 Q 477.244 60.732 477.324 60.567 A 2.804 2.804 0 0 1 477.441 60.352 A 7.902 7.902 0 0 1 476.968 59.698 Q 476.576 59.09 476.416 58.545 A 10.029 10.029 0 0 1 476.074 56.885 Q 475.977 56.055 475.928 55.176 Q 475.879 54.297 475.684 53.321 A 2.518 2.518 0 0 0 475.503 52.856 Q 475.359 52.577 475.152 52.384 A 1.491 1.491 0 0 0 475.049 52.295 Q 474.663 51.995 474.616 51.808 A 0.204 0.204 0 0 1 474.609 51.758 Q 474.609 51.27 475 50.977 A 21.007 21.007 0 0 1 472.754 46.875 Q 471.875 44.727 470.801 42.578 A 3.001 3.001 0 0 1 470.956 41.841 A 2.134 2.134 0 0 1 471.582 40.918 A 3.059 3.059 0 0 0 472.388 39.82 A 3.901 3.901 0 0 0 472.559 39.356 L 475.684 39.356 A 83.071 83.071 0 0 1 482.275 56.787 Q 484.57 65.821 486.328 75 Q 486.816 77.637 487.256 80.274 Q 487.695 82.91 488.281 85.645 Q 488.463 86.189 488.813 86.818 A 9.988 9.988 0 0 0 488.867 86.914 A 3.091 3.091 0 0 1 489.16 87.597 A 2.478 2.478 0 0 1 489.258 88.281 A 2.494 2.494 0 0 1 489.086 89.179 A 3.063 3.063 0 0 1 488.965 89.453 A 2.673 2.673 0 0 1 489.803 90.361 A 3.224 3.224 0 0 1 489.893 90.528 A 10.795 10.795 0 0 1 490.479 91.944 A 25.01 25.01 0 0 1 490.918 93.408 A 4.508 4.508 0 0 0 491.342 94.463 A 4.105 4.105 0 0 0 491.504 94.727 A 2.939 2.939 0 0 0 493.266 93.943 A 3.953 3.953 0 0 0 493.555 93.653 A 11.524 11.524 0 0 0 494.596 92.298 A 14.227 14.227 0 0 0 495.166 91.358 A 50.885 50.885 0 0 0 496.533 88.721 A 8.006 8.006 0 0 1 497.135 87.67 Q 497.552 87.061 498.047 86.621 A 9.272 9.272 0 0 1 498.486 84.522 Q 498.828 83.496 498.828 82.422 A 96.258 96.258 0 0 0 499.756 80.811 A 77.043 77.043 0 0 0 500.586 79.297 Q 501.367 77.832 501.563 75.781 A 4.745 4.745 0 0 0 501.776 75.601 Q 502.074 75.332 502.148 75.147 A 0.185 0.185 0 0 1 502.252 75.046 Q 502.459 74.956 503.027 75.098 A 16.108 16.108 0 0 1 503.857 69.971 A 20.521 20.521 0 0 1 506.152 65.235 A 20.653 20.653 0 0 1 506.947 61.123 A 23.078 23.078 0 0 1 507.08 60.694 Q 507.813 58.399 508.789 56.153 Q 509.082 55.469 509.57 54.541 A 4.994 4.994 0 0 0 509.868 53.866 Q 509.999 53.491 510.04 53.143 A 2.656 2.656 0 0 0 510.059 52.832 A 1.839 1.839 0 0 0 509.912 52.1 A 1.839 1.839 0 0 1 509.766 51.367 A 1.864 1.864 0 0 1 510.314 50.038 A 2.447 2.447 0 0 1 510.352 50 A 18.109 18.109 0 0 0 511.176 49.121 A 15.994 15.994 0 0 0 511.426 48.828 A 21.091 21.091 0 0 1 511.914 44.336 Q 512.402 42.09 513.867 40.43 A 69.399 69.399 0 0 1 515.137 33.936 A 29.228 29.228 0 0 1 517.383 27.832 L 520.898 27.832 A 3.02 3.02 0 0 1 520.972 27.132 Q 521.197 26.191 522.109 26.016 A 2.396 2.396 0 0 1 522.559 25.977 A 4.602 4.602 0 0 1 523.55 26.091 Q 523.999 26.19 524.482 26.375 A 8.23 8.23 0 0 1 524.707 26.465 A 20.075 20.075 0 0 1 525.447 29.052 A 25.932 25.932 0 0 1 525.83 31.299 A 45.164 45.164 0 0 1 526.086 33.875 A 34.125 34.125 0 0 1 526.172 36.231 A 34.078 34.078 0 0 1 526.089 38.639 A 29.882 29.882 0 0 1 526.025 39.404 A 16.008 16.008 0 0 1 525.686 41.454 A 19.484 19.484 0 0 1 525.391 42.578 A 7.536 7.536 0 0 0 523.961 44.054 A 8.533 8.533 0 0 0 523.828 44.238 Z M 141.992 90.235 L 141.211 90.235 A 3.253 3.253 0 0 0 140.24 90.371 Q 139.261 90.676 138.785 91.666 A 3.252 3.252 0 0 0 138.77 91.699 A 5.871 5.871 0 0 1 138.159 91.276 A 7.291 7.291 0 0 1 137.793 90.967 A 4.823 4.823 0 0 0 136.719 90.235 A 49.03 49.03 0 0 1 132.336 91.345 A 53.64 53.64 0 0 1 132.031 91.406 A 24.841 24.841 0 0 1 127.148 91.895 L 125.781 91.895 A 4.069 4.069 0 0 1 125.111 91.836 A 5.46 5.46 0 0 1 124.512 91.699 A 9.423 9.423 0 0 0 123.261 92.306 A 8.093 8.093 0 0 0 122.754 92.627 Q 121.973 93.164 120.996 93.164 A 2.176 2.176 0 0 1 120.509 93.105 Q 120.105 93.012 119.629 92.774 A 1.031 1.031 0 0 0 119.432 92.791 Q 119.061 92.863 119.09 93.243 A 0.8 0.8 0 0 0 119.092 93.262 Q 119.133 93.673 118.656 93.738 A 1.473 1.473 0 0 1 118.457 93.75 L 117.578 93.75 Q 116.211 93.75 114.893 93.848 Q 113.574 93.946 112.207 93.946 A 15.309 15.309 0 0 1 109.127 93.623 A 17.496 17.496 0 0 1 108.398 93.457 Q 107.91 93.75 107.324 93.75 A 1.213 1.213 0 0 0 106.797 94.266 A 1.568 1.568 0 0 0 106.738 94.385 A 10.115 10.115 0 0 1 106.543 94.8 A 7.493 7.493 0 0 1 106.348 95.166 A 1.823 1.823 0 0 1 105.855 95.719 A 2.113 2.113 0 0 1 105.811 95.752 A 0.913 0.913 0 0 1 105.457 95.902 Q 105.264 95.941 105.025 95.918 A 2.164 2.164 0 0 1 104.883 95.899 A 3.541 3.541 0 0 1 104.6 96.831 A 2.797 2.797 0 0 1 103.906 97.754 Q 103.185 98.386 103.13 99.601 A 4.521 4.521 0 0 0 103.125 99.805 A 5.875 5.875 0 0 0 101.909 100.676 A 5.155 5.155 0 0 0 101.367 101.27 A 45.261 45.261 0 0 0 100.171 102.883 A 50.121 50.121 0 0 0 100 103.125 Q 99.316 104.102 98.584 104.981 A 5.022 5.022 0 0 1 96.777 106.348 Q 96.291 106.931 96.483 108.192 A 5.759 5.759 0 0 0 96.484 108.203 A 9.671 9.671 0 0 1 95.288 109.033 Q 94.65 109.412 93.896 109.744 A 15.401 15.401 0 0 1 93.848 109.766 A 8.952 8.952 0 0 1 92.518 110.233 Q 91.739 110.436 91.014 110.449 A 5.511 5.511 0 0 1 90.918 110.449 A 4.019 4.019 0 0 1 89.092 110.05 Q 88.176 109.59 87.566 108.602 A 6.175 6.175 0 0 1 87.012 107.422 A 14.878 14.878 0 0 1 87.063 106.211 A 18.582 18.582 0 0 1 87.158 105.322 A 14.848 14.848 0 0 1 87.559 103.311 A 13.632 13.632 0 0 1 87.598 103.174 A 6.092 6.092 0 0 1 88.477 101.319 A 3.234 3.234 0 0 1 89.69 100.29 A 4.142 4.142 0 0 1 90.137 100.098 Q 90.137 99.219 89.551 98.877 A 0.973 0.973 0 0 1 89.069 98.16 Q 89.032 97.935 89.063 97.656 A 15.651 15.651 0 0 0 93.652 94.336 A 37.74 37.74 0 0 0 97.217 89.99 A 1369.758 1369.758 0 0 1 100.488 85.352 A 25.563 25.563 0 0 1 104.199 81.153 L 104.199 79.102 A 15.526 15.526 0 0 0 107.204 74.564 A 14.403 14.403 0 0 0 108.008 72.071 A 2.64 2.64 0 0 0 108.581 71.903 Q 109.184 71.643 109.424 71.094 Q 109.766 70.313 109.766 69.238 A 0.822 0.822 0 0 0 110.013 69.204 Q 110.266 69.124 110.377 68.861 A 0.863 0.863 0 0 0 110.4 68.799 A 0.448 0.448 0 0 1 110.513 68.614 Q 110.724 68.41 111.23 68.555 A 34.86 34.86 0 0 1 112.468 65.647 A 29.304 29.304 0 0 1 113.184 64.258 A 434.59 434.59 0 0 0 115.332 60.303 Q 116.406 58.301 117.236 56.153 A 20.566 20.566 0 0 0 118.098 53.295 A 25.693 25.693 0 0 0 118.457 51.367 Q 119.824 51.27 119.971 50.049 Q 120.117 48.828 120.313 47.852 Q 121.777 46.485 122.51 44.629 A 44.692 44.692 0 0 0 123.828 40.772 A 63.871 63.871 0 0 1 125.146 36.768 A 11.209 11.209 0 0 1 127.246 33.203 L 127.246 32.91 Q 127.246 32.422 126.855 32.276 A 0.578 0.578 0 0 1 126.599 32.096 Q 126.465 31.927 126.465 31.641 Q 126.563 31.543 126.563 31.446 Q 127.734 30.957 128.32 29.834 Q 128.906 28.711 130.078 28.223 A 15.654 15.654 0 0 0 131.282 29.112 Q 132.555 29.954 133.609 30.206 A 4.406 4.406 0 0 0 133.691 30.225 A 18.841 18.841 0 0 0 134.763 30.424 Q 136.047 30.628 137.793 30.762 Q 139.063 32.129 139.209 34.033 Q 139.355 35.938 139.844 37.793 A 111.265 111.265 0 0 0 141.553 43.897 Q 142.48 46.875 142.969 50 A 12.959 12.959 0 0 0 144.043 53.516 A 13.025 13.025 0 0 1 145.117 56.934 A 9.821 9.821 0 0 1 145.207 57.961 Q 145.232 58.636 145.177 59.381 A 15.909 15.909 0 0 1 145.117 60.01 A 7.488 7.488 0 0 0 145.071 60.635 Q 145.048 61.404 145.2 62.075 A 4.582 4.582 0 0 0 145.508 62.988 L 146.191 64.551 Q 146.68 65.625 147.021 66.797 A 62.557 62.557 0 0 1 147.656 69.141 A 81.211 81.211 0 0 1 148.576 72.975 A 97.573 97.573 0 0 1 149.072 75.44 Q 149.707 78.809 151.074 81.543 A 2.716 2.716 0 0 0 152.588 82.91 A 8.679 8.679 0 0 0 153.928 83.296 A 10.958 10.958 0 0 0 154.883 83.447 A 16.365 16.365 0 0 0 156.76 83.557 A 15.346 15.346 0 0 0 157.373 83.545 A 72.181 72.181 0 0 1 158.241 83.515 Q 158.582 83.506 158.89 83.501 A 37.739 37.739 0 0 1 159.473 83.496 L 160.449 83.496 A 3.685 3.685 0 0 1 161.617 83.69 A 4.38 4.38 0 0 1 161.621 83.692 A 4.746 4.746 0 0 1 161.839 84.194 Q 161.931 84.447 161.974 84.675 A 2.078 2.078 0 0 1 162.012 85.059 A 2.832 2.832 0 0 1 161.897 85.884 A 2.188 2.188 0 0 1 161.23 86.914 A 2.61 2.61 0 0 0 160.771 87.429 A 1.855 1.855 0 0 0 160.449 88.477 Q 160.449 88.965 160.84 89.551 A 2.437 2.437 0 0 0 160.589 89.504 Q 160.314 89.465 159.92 89.456 A 10.984 10.984 0 0 0 159.668 89.453 Q 157.422 89.453 155.273 90.235 A 8.272 8.272 0 0 0 156.974 92.654 A 7.874 7.874 0 0 0 157.373 93.018 A 29.647 29.647 0 0 0 160.156 95.117 A 3.852 3.852 0 0 1 160.998 94.597 A 2.953 2.953 0 0 1 162.207 94.336 A 4.666 4.666 0 0 1 164.404 94.873 Q 165.43 95.41 166.602 95.41 A 4.201 4.201 0 0 0 167.034 95.39 Q 167.477 95.344 167.749 95.195 A 1.002 1.002 0 0 0 167.871 95.117 A 9.751 9.751 0 0 1 168.733 96.235 A 8.226 8.226 0 0 1 169.141 96.924 Q 169.629 97.852 170.41 98.633 A 4.459 4.459 0 0 1 169.977 99.831 A 3.69 3.69 0 0 1 169.189 100.83 A 6.872 6.872 0 0 1 167.456 101.954 A 8.055 8.055 0 0 1 166.992 102.149 Q 165.723 102.637 164.404 102.783 A 25.543 25.543 0 0 1 163.148 102.893 A 18.617 18.617 0 0 1 162.012 102.93 A 8.769 8.769 0 0 1 161.335 102.905 A 7.557 7.557 0 0 1 161.084 102.881 A 8.082 8.082 0 0 0 160.412 102.836 A 9.384 9.384 0 0 0 160.156 102.832 Q 159.769 102.832 159.689 103.14 A 0.719 0.719 0 0 0 159.668 103.321 A 0.747 0.747 0 0 1 159.608 103.628 Q 159.528 103.807 159.342 103.923 A 1.026 1.026 0 0 1 159.18 104.004 A 5.581 5.581 0 0 0 158.234 103.717 A 5.197 5.197 0 0 0 158.203 103.711 Q 157.715 103.613 157.227 103.613 A 8.738 8.738 0 0 0 156.028 103.694 A 7.998 7.998 0 0 0 155.908 103.711 A 8.314 8.314 0 0 1 154.985 103.803 A 7.259 7.259 0 0 1 154.688 103.809 Q 153.906 103.809 153.564 103.613 A 2.991 2.991 0 0 1 153.193 103.364 A 2.46 2.46 0 0 1 152.979 103.174 A 7.708 7.708 0 0 1 152.62 102.789 A 8.947 8.947 0 0 1 152.49 102.637 A 1.376 1.376 0 0 0 152.23 102.399 Q 152.032 102.258 151.758 102.149 Q 151.169 101.896 150.762 102.006 A 0.867 0.867 0 0 0 150.635 102.051 A 0.466 0.466 0 0 1 150.455 102.09 Q 150.037 102.1 149.337 101.483 A 6.228 6.228 0 0 1 149.316 101.465 Q 148.145 100.488 147.314 99.072 A 50.312 50.312 0 0 1 145.899 96.482 A 55.255 55.255 0 0 1 145.703 96.094 Q 144.922 94.531 144.043 92.969 A 12.846 12.846 0 0 0 142.5 90.776 A 11.544 11.544 0 0 0 141.992 90.235 Z M 458.105 47.071 L 458.105 46.582 L 456.934 44.434 A 9.39 9.39 0 0 0 456.619 42.579 A 8.264 8.264 0 0 0 456.396 41.895 Q 455.957 40.723 455.371 39.551 A 76.7 76.7 0 0 1 454.248 37.207 A 9.047 9.047 0 0 1 453.57 35.007 A 10.225 10.225 0 0 1 453.516 34.668 A 15.536 15.536 0 0 1 450.732 31.983 A 26.26 26.26 0 0 1 448.535 28.809 A 6.692 6.692 0 0 0 447.916 28.577 Q 447.598 28.477 447.305 28.425 A 4.043 4.043 0 0 0 447.266 28.418 A 0.503 0.503 0 0 1 447.004 28.3 Q 446.733 28.054 446.875 27.344 A 11.512 11.512 0 0 1 444.337 26.313 A 10.443 10.443 0 0 1 443.701 25.928 A 26.799 26.799 0 0 1 441.261 24.117 A 29.491 29.491 0 0 1 440.918 23.828 A 42.78 42.78 0 0 1 436.475 22.608 A 13.969 13.969 0 0 0 432.031 21.875 A 8.08 8.08 0 0 0 429.004 22.461 A 3.162 3.162 0 0 1 429.492 24.17 A 8.303 8.303 0 0 0 429.688 25.977 A 5.811 5.811 0 0 1 431.494 26.743 Q 432.895 27.668 433.401 29.415 A 6.378 6.378 0 0 1 433.496 29.785 Q 433.008 30.078 432.617 30.518 A 21.222 21.222 0 0 1 432.239 30.933 A 15.826 15.826 0 0 1 431.885 31.299 A 3.846 3.846 0 0 1 431.454 31.668 A 4.933 4.933 0 0 1 431.055 31.934 A 2.016 2.016 0 0 1 430.368 32.186 A 2.737 2.737 0 0 1 429.883 32.227 A 6.156 6.156 0 0 1 429.099 32.18 Q 428.29 32.076 427.783 31.738 A 1.667 1.667 0 0 0 427.283 31.519 Q 426.644 31.35 425.651 31.514 A 7.834 7.834 0 0 0 425.488 31.543 Q 423.828 30.078 422.266 28.467 Q 420.703 26.856 418.75 25.586 Q 418.457 24.61 417.822 23.828 A 62.191 62.191 0 0 0 416.553 22.315 Q 415.918 21.582 415.381 20.752 A 3.362 3.362 0 0 1 414.852 19.113 A 4.123 4.123 0 0 1 414.844 18.848 A 7.656 7.656 0 0 1 414.85 18.53 Q 414.868 18.091 414.941 17.871 A 6.646 6.646 0 0 0 414.667 17.786 Q 414.282 17.676 414.063 17.676 A 2.252 2.252 0 0 0 412.836 18.044 A 2.913 2.913 0 0 0 412.598 18.213 A 3.843 3.843 0 0 1 411.035 18.946 A 12.896 12.896 0 0 1 409.499 22.102 A 11.708 11.708 0 0 1 408.789 23.047 Q 407.324 24.805 405.762 26.465 A 36.137 36.137 0 0 0 402.881 29.932 Q 401.563 31.738 400.977 34.375 A 54.571 54.571 0 0 0 396.91 40.231 A 64.705 64.705 0 0 0 395.215 43.213 A 54.819 54.819 0 0 0 392.531 48.983 A 44.738 44.738 0 0 0 391.211 52.832 A 22.004 22.004 0 0 0 388.487 56.633 A 19.47 19.47 0 0 0 387.695 58.203 A 17.021 17.021 0 0 0 386.367 62.986 A 20.195 20.195 0 0 0 386.23 64.453 Q 385.742 64.746 385.449 65.235 L 384.473 67.188 A 1.561 1.561 0 0 1 383.882 67.91 A 1.962 1.962 0 0 1 383.789 67.969 L 383.789 68.457 A 3.597 3.597 0 0 1 383.687 69.328 A 3.061 3.061 0 0 1 383.496 69.873 A 14.382 14.382 0 0 1 382.861 71.094 A 48.595 48.595 0 0 0 382.532 71.668 A 41.627 41.627 0 0 0 382.227 72.217 A 2.409 2.409 0 0 0 381.948 73.141 A 2.979 2.979 0 0 0 381.934 73.438 A 3.325 3.325 0 0 0 382.163 74.634 A 4.083 4.083 0 0 0 382.324 75 Q 381.25 75.196 380.908 76.123 A 5.479 5.479 0 0 1 380.339 77.26 A 4.81 4.81 0 0 1 379.98 77.735 Q 379.59 80.86 379.199 84.082 Q 378.809 87.305 378.809 90.43 Q 378.809 94.043 379.59 97.754 Q 380.469 98.633 381.152 99.707 Q 381.836 100.781 382.568 101.758 A 10.217 10.217 0 0 0 383.962 103.28 A 9.376 9.376 0 0 0 384.18 103.467 A 3.769 3.769 0 0 0 385.274 104.092 Q 385.746 104.27 386.311 104.363 A 6.895 6.895 0 0 0 386.523 104.395 A 2.513 2.513 0 0 0 386.545 104.739 Q 386.599 105.127 386.786 105.339 A 0.721 0.721 0 0 0 386.816 105.371 Q 387.091 105.646 387.28 106.092 A 3.302 3.302 0 0 1 387.305 106.153 A 34.373 34.373 0 0 0 391.322 107.22 A 37.584 37.584 0 0 0 391.602 107.276 A 23.345 23.345 0 0 0 396.094 107.715 A 13.359 13.359 0 0 0 399.066 107.372 A 14.818 14.818 0 0 0 399.268 107.324 A 5.223 5.223 0 0 0 401.953 105.762 A 26.931 26.931 0 0 0 410.632 103.925 A 31.185 31.185 0 0 0 411.865 103.418 A 74.807 74.807 0 0 0 418.254 100.279 A 63.567 63.567 0 0 0 420.898 98.731 L 422.949 98.731 A 8.823 8.823 0 0 1 425.586 96.338 A 38.003 38.003 0 0 1 428.809 94.629 A 2.937 2.937 0 0 1 429.053 94.484 Q 429.182 94.415 429.336 94.346 A 6.591 6.591 0 0 1 429.59 94.238 A 6.295 6.295 0 0 0 429.916 94.098 Q 430.066 94.028 430.192 93.957 A 2.767 2.767 0 0 0 430.371 93.848 Q 431.445 93.067 432.568 92.09 Q 433.691 91.113 434.863 90.235 Q 436.816 88.77 438.867 87.403 A 49.646 49.646 0 0 0 442.822 84.473 A 39.183 39.183 0 0 0 446.436 81.104 Q 448.145 79.297 449.316 77.051 Q 449.902 77.051 450.244 76.709 A 4.133 4.133 0 0 0 450.83 75.977 A 2.961 2.961 0 0 1 451.416 75.293 A 1.077 1.077 0 0 1 451.773 75.095 Q 451.93 75.042 452.122 75.018 A 2.642 2.642 0 0 1 452.441 75 A 3.797 3.797 0 0 1 452.507 74.278 A 2.769 2.769 0 0 1 452.783 73.487 Q 453.125 72.852 453.564 72.315 A 28.734 28.734 0 0 1 454.43 71.305 A 26.283 26.283 0 0 1 454.443 71.289 Q 454.883 70.801 455.273 70.02 L 455.273 67.285 Q 456.836 64.746 457.568 61.914 A 22.92 22.92 0 0 0 458.301 56.153 A 28.695 28.695 0 0 0 457.324 48.633 A 1.255 1.255 0 0 0 457.642 48.453 A 0.954 0.954 0 0 0 457.959 47.998 A 2.913 2.913 0 0 0 458.105 47.074 A 3.636 3.636 0 0 0 458.105 47.071 Z M 704.102 32.129 L 704.102 33.496 A 3.685 3.685 0 0 0 704.295 34.664 A 4.38 4.38 0 0 0 704.297 34.668 A 62.374 62.374 0 0 0 702.832 42.334 Q 702.344 46.192 701.563 50.196 Q 701.074 52.832 700.391 55.469 A 22.188 22.188 0 0 1 699.951 56.836 Q 699.707 57.52 699.512 58.203 A 20.381 20.381 0 0 0 699.256 59.377 A 23.71 23.71 0 0 0 699.17 59.863 A 22.198 22.198 0 0 1 698.934 61.076 A 19.061 19.061 0 0 1 698.828 61.524 A 417.275 417.275 0 0 1 697.852 64.795 A 417.275 417.275 0 0 0 696.875 68.067 A 136.252 136.252 0 0 1 694.971 73.926 A 136.252 136.252 0 0 0 693.066 79.785 A 61.166 61.166 0 0 0 691.602 85.742 A 31.795 31.795 0 0 0 691.016 91.797 A 0.947 0.947 0 0 0 691.163 92.295 Q 691.297 92.515 691.553 92.725 A 8.322 8.322 0 0 0 692.321 93.281 A 10.074 10.074 0 0 0 692.773 93.555 A 19.319 19.319 0 0 0 694.189 94.287 A 7.546 7.546 0 0 1 694.528 94.455 Q 694.995 94.702 695.215 94.922 L 695.215 95.801 Q 695.215 96.82 694.931 97.532 A 2.717 2.717 0 0 1 694.629 98.096 A 6.285 6.285 0 0 1 693.262 99.512 Q 692.48 100.098 691.65 100.684 A 4.084 4.084 0 0 0 690.427 102.067 A 4.842 4.842 0 0 0 690.332 102.246 Q 690.08 102.162 689.756 102.078 A 13.021 13.021 0 0 0 689.648 102.051 Q 689.258 101.953 688.867 101.953 A 3.994 3.994 0 0 0 687.137 102.354 A 4.718 4.718 0 0 0 686.963 102.442 A 4.234 4.234 0 0 1 684.961 102.93 A 2.043 2.043 0 0 1 683.392 102.232 A 2.818 2.818 0 0 1 683.203 102.002 A 4.655 4.655 0 0 0 681.841 100.749 A 4.497 4.497 0 0 0 681.543 100.586 A 19.311 19.311 0 0 0 680.713 95.654 A 16.754 16.754 0 0 1 679.98 90.723 A 19.693 19.693 0 0 1 680.002 89.771 Q 680.046 88.858 680.183 88.261 A 3.375 3.375 0 0 1 680.322 87.793 A 14.224 14.224 0 0 1 680.527 87.299 Q 680.875 86.495 681.511 85.22 A 87.434 87.434 0 0 1 681.543 85.156 A 3.558 3.558 0 0 0 681.494 84.571 A 3.558 3.558 0 0 1 681.445 83.985 A 8.753 8.753 0 0 1 681.871 81.243 A 8.348 8.348 0 0 1 681.885 81.201 A 7.085 7.085 0 0 0 682.244 78.946 A 7.934 7.934 0 0 0 682.227 78.418 A 23.889 23.889 0 0 0 684.131 73.828 A 217.911 217.911 0 0 0 685.547 68.897 A 106.868 106.868 0 0 1 687.012 64.014 A 18.093 18.093 0 0 1 689.16 59.571 A 10.907 10.907 0 0 1 689.551 57.248 A 9.857 9.857 0 0 1 689.746 56.641 A 8.358 8.358 0 0 0 690.234 53.809 A 4.69 4.69 0 0 0 689.943 52.152 A 4.202 4.202 0 0 0 689.941 52.149 A 5.141 5.141 0 0 0 690.907 50.366 Q 691.132 49.661 691.211 48.828 A 29.512 29.512 0 0 0 691.32 47.266 Q 691.368 46.12 691.309 45.117 A 10.887 10.887 0 0 0 692.041 42.92 A 21.791 21.791 0 0 1 692.569 40.954 A 24.318 24.318 0 0 1 692.676 40.625 A 6.293 6.293 0 0 0 692.627 39.844 A 6.293 6.293 0 0 1 692.578 39.063 Q 692.578 36.817 693.115 34.668 Q 693.652 32.52 693.652 30.274 A 8.377 8.377 0 0 0 693.421 28.251 A 5.864 5.864 0 0 0 691.992 25.586 Q 691.895 25.196 691.895 24.805 L 691.895 23.926 Q 691.895 22.168 692.529 20.557 Q 693.164 18.946 693.066 17.188 A 33.24 33.24 0 0 1 694.504 16.51 A 29.415 29.415 0 0 1 694.971 16.309 Q 695.898 15.918 696.973 15.918 Q 699.316 15.918 701.074 17.578 A 177.045 177.045 0 0 1 702.759 19.19 A 140.447 140.447 0 0 1 704.297 20.703 Q 704.688 22.168 704.688 23.926 A 30.005 30.005 0 0 1 704.395 28.076 A 30.133 30.133 0 0 0 704.116 31.268 A 26.7 26.7 0 0 0 704.102 32.129 Z M 134.277 58.692 L 134.277 58.399 A 5.592 5.592 0 0 1 133.218 56.646 A 6.867 6.867 0 0 1 133.008 56.006 A 90.511 90.511 0 0 1 132.275 53.174 A 16.185 16.185 0 0 0 131.653 51.16 A 14.224 14.224 0 0 0 131.396 50.537 A 4.588 4.588 0 0 0 129.76 48.585 A 5.475 5.475 0 0 0 129.688 48.535 A 2.729 2.729 0 0 0 129.437 49.333 A 3.631 3.631 0 0 0 129.395 49.903 A 5.609 5.609 0 0 0 129.452 50.719 A 4.668 4.668 0 0 0 129.541 51.172 A 4.922 4.922 0 0 1 129.672 52.014 A 5.964 5.964 0 0 1 129.688 52.442 A 2.924 2.924 0 0 0 128.271 53.955 Q 127.832 54.981 126.855 55.567 Q 126.074 58.692 124.609 61.475 Q 123.145 64.258 121.533 66.992 Q 119.922 69.727 118.457 72.51 Q 116.992 75.293 116.113 78.321 A 4.581 4.581 0 0 0 114.973 79.428 A 4.131 4.131 0 0 0 114.404 80.567 A 8.892 8.892 0 0 0 113.965 83.301 A 4.28 4.28 0 0 0 115.454 83.791 A 5.255 5.255 0 0 0 115.967 83.838 A 50.599 50.599 0 0 0 118.164 83.887 A 10.662 10.662 0 0 1 119.845 84.016 A 9.576 9.576 0 0 1 120.215 84.082 A 3.295 3.295 0 0 1 121.686 84.797 A 4.143 4.143 0 0 1 121.973 85.059 A 13.035 13.035 0 0 1 123.655 84.666 A 16.013 16.013 0 0 1 124.756 84.522 A 6.539 6.539 0 0 0 125.892 84.315 Q 126.541 84.134 127.055 83.817 A 3.866 3.866 0 0 0 127.246 83.692 A 12.367 12.367 0 0 0 130.751 84.359 A 14.328 14.328 0 0 0 131.445 84.375 A 13.37 13.37 0 0 0 133.74 84.18 A 23.928 23.928 0 0 0 135.938 83.692 Q 136.614 83.842 137.059 84.137 A 2.103 2.103 0 0 1 137.305 84.326 A 1.313 1.313 0 0 0 137.821 84.607 Q 138.17 84.709 138.639 84.679 A 3.748 3.748 0 0 0 138.77 84.668 A 2.237 2.237 0 0 0 139.048 84.407 Q 139.188 84.249 139.269 84.083 A 1.098 1.098 0 0 0 139.355 83.838 A 1.502 1.502 0 0 1 139.575 83.333 A 2.106 2.106 0 0 1 139.844 83.008 Q 139.682 81.631 139.352 80.892 A 2.595 2.595 0 0 0 139.209 80.615 Q 138.831 79.986 138.562 79.104 A 10.144 10.144 0 0 1 138.477 78.809 A 15.541 15.541 0 0 1 138.028 76.651 A 18.098 18.098 0 0 1 137.939 75.879 A 29.444 29.444 0 0 0 137.5 72.852 A 162.42 162.42 0 0 0 135.986 66.211 Q 135.156 62.891 133.887 59.766 Q 134.16 59.355 134.242 58.993 A 1.364 1.364 0 0 0 134.277 58.692 Z M 698.378 133.058 A 4.382 4.382 0 0 0 698.438 132.324 A 2.621 2.621 0 0 0 697.949 130.762 A 9.664 9.664 0 0 0 697.825 130.592 A 10.619 10.619 0 0 0 696.826 129.444 Q 696.191 128.809 695.459 128.272 A 12.624 12.624 0 0 1 695.102 128 A 10.972 10.972 0 0 1 694.141 127.149 A 18.806 18.806 0 0 1 692.48 125.244 A 2.494 2.494 0 0 0 691.328 124.382 A 2.921 2.921 0 0 0 690.332 124.219 Q 689.648 124.219 689.16 124.317 A 3.336 3.336 0 0 1 689.093 125.001 A 2.274 2.274 0 0 1 688.477 126.172 Q 687.793 126.856 686.914 127.49 A 5.748 5.748 0 0 0 686.207 128.096 A 6.954 6.954 0 0 0 685.352 129.151 A 3.459 3.459 0 0 0 684.94 130.035 Q 684.799 130.481 684.731 131.025 A 8.949 8.949 0 0 0 684.668 132.129 A 7.306 7.306 0 0 0 685.889 136.231 Q 687.109 138.086 689.16 138.77 A 4.082 4.082 0 0 0 690.051 138.49 A 2.687 2.687 0 0 0 691.26 137.451 Q 691.895 136.426 692.676 135.547 A 31.563 31.563 0 0 1 692.846 135.499 A 28.843 28.843 0 0 1 695.361 134.912 A 15.89 15.89 0 0 0 695.899 134.803 A 17.845 17.845 0 0 0 698.047 134.18 A 6.935 6.935 0 0 0 698.189 133.791 A 5.489 5.489 0 0 0 698.34 133.252 A 3.905 3.905 0 0 0 698.378 133.058 Z" vector-effect="non-scaling-stroke"/></g></svg>