<svg width="681.934" height="117.676" viewBox="0 0 681.934 117.676" xmlns="http://www.w3.org/2000/svg"><g id="svgGroup" stroke-linecap="round" fill-rule="evenodd" font-size="9pt" stroke="#3c4c20" stroke-width="0.25mm" fill="#3c4c20" style="stroke:#3c4c20;stroke-width:0.25mm;fill:#3c4c20"><path d="M 57.715 50.195 L 57.715 50.586 A 0.961 0.961 0 0 0 57.765 50.905 Q 57.855 51.162 58.105 51.319 Q 58.488 51.558 58.496 52.126 A 1.726 1.726 0 0 1 58.496 52.149 L 58.398 52.344 A 1.564 1.564 0 0 0 57.715 53.174 A 3.261 3.261 0 0 0 57.52 54.297 A 2.324 2.324 0 0 0 57.535 54.547 Q 57.562 54.795 57.637 55.138 A 11.383 11.383 0 0 0 57.715 55.469 Q 56.055 61.035 55.518 66.797 Q 54.98 72.559 54.199 78.32 L 53.32 84.766 A 22.25 22.25 0 0 0 53.075 85.548 A 19.024 19.024 0 0 0 52.979 85.889 A 4.25 4.25 0 0 0 52.832 87.012 A 41.767 41.767 0 0 0 53.272 93.115 A 28.698 28.698 0 0 1 53.576 97.31 A 30.601 30.601 0 0 1 53.516 99.219 A 6.38 6.38 0 0 1 54.051 100.231 Q 54.319 100.88 54.378 101.507 A 3.74 3.74 0 0 1 54.395 101.856 A 9.808 9.808 0 0 1 54.346 102.832 A 10.103 10.103 0 0 1 54.199 103.809 A 7.211 7.211 0 0 0 57.178 105.615 A 8.679 8.679 0 0 1 60.254 107.324 L 60.254 107.715 A 6.287 6.287 0 0 1 59.961 109.619 A 18.119 18.119 0 0 0 59.473 111.524 Q 59.323 112.122 59.145 113.121 A 58.135 58.135 0 0 0 59.033 113.77 Q 58.789 115.235 58.398 115.723 Q 57.91 116.406 56.982 116.944 A 4.36 4.36 0 0 1 56.187 117.308 A 3.166 3.166 0 0 1 55.176 117.481 A 0.844 0.844 0 0 1 54.986 117.456 Q 54.728 117.396 54.346 117.188 A 20.358 20.358 0 0 1 54.092 117.047 Q 53.819 116.893 53.626 116.771 A 5.514 5.514 0 0 1 53.516 116.699 A 1.319 1.319 0 0 0 53.182 116.747 Q 52.872 116.829 52.478 117.05 A 5.767 5.767 0 0 0 52.246 117.188 A 3.434 3.434 0 0 1 51.538 117.53 A 2.628 2.628 0 0 1 50.684 117.676 A 5.287 5.287 0 0 1 50.362 117.667 Q 50.215 117.658 50.085 117.64 A 2.925 2.925 0 0 1 50 117.627 A 1.726 1.726 0 0 1 49.767 117.57 Q 49.651 117.533 49.523 117.479 A 3.773 3.773 0 0 1 49.316 117.383 A 5.034 5.034 0 0 0 48.193 115.674 A 11.775 11.775 0 0 0 47.182 114.778 A 14.56 14.56 0 0 0 46.484 114.258 Q 46.558 113.223 46.241 112.58 A 1.783 1.783 0 0 0 45.996 112.207 A 7.834 7.834 0 0 1 45.502 111.561 Q 45.269 111.224 45.036 110.825 A 14.827 14.827 0 0 1 44.824 110.449 A 44.398 44.398 0 0 1 44.652 109.082 Q 44.572 108.361 44.502 107.556 A 75.1 75.1 0 0 1 44.482 107.324 A 3.796 3.796 0 0 0 44.237 106.231 A 2.835 2.835 0 0 0 42.969 104.785 A 2.408 2.408 0 0 0 43.319 104.037 Q 43.457 103.552 43.457 102.93 A 3.799 3.799 0 0 0 43.42 102.417 Q 43.386 102.165 43.32 101.892 A 6.114 6.114 0 0 0 43.311 101.856 A 1.488 1.488 0 0 0 43.093 101.364 A 1.338 1.338 0 0 0 42.676 100.977 L 42.676 100.781 Q 42.595 100.377 42.882 100.141 A 0.896 0.896 0 0 1 43.018 100.049 A 0.926 0.926 0 0 0 43.272 99.847 Q 43.457 99.633 43.457 99.317 L 43.457 98.926 Q 42.773 95.801 42.773 92.383 A 104.118 104.118 0 0 1 42.969 85.986 A 51.859 51.859 0 0 0 43.066 82.8 A 53.058 53.058 0 0 0 42.969 79.59 Q 43.416 79.217 43.721 78.503 A 5.313 5.313 0 0 0 43.897 78.028 A 14.414 14.414 0 0 0 44.267 76.608 A 17.551 17.551 0 0 0 44.434 75.684 A 22.212 22.212 0 0 0 44.678 73.194 Q 44.727 71.973 44.824 71.192 Q 45.313 65.625 46.387 60.205 A 69.183 69.183 0 0 0 47.656 49.121 Q 48.057 48.481 48.194 47.512 A 6.892 6.892 0 0 0 48.242 47.07 A 33.368 33.368 0 0 0 48.33 45.256 A 39.111 39.111 0 0 0 48.34 44.385 A 19.657 19.657 0 0 1 48.535 41.602 A 7.332 7.332 0 0 1 48.804 40.406 A 5.441 5.441 0 0 1 49.316 39.258 A 31.881 31.881 0 0 1 49.805 33.74 A 32.434 32.434 0 0 0 50.293 28.125 A 14.014 14.014 0 0 0 50.114 25.929 A 16.102 16.102 0 0 0 50 25.293 Q 49.023 24.903 48.242 24.903 Q 47.168 24.903 46.045 25.342 Q 44.922 25.781 44.434 26.66 Q 42.285 26.758 40.234 27.344 A 14.868 14.868 0 0 1 36.133 27.93 L 35.156 27.93 A 3.724 3.724 0 0 1 34.769 27.908 Q 34.568 27.887 34.346 27.845 A 6.314 6.314 0 0 1 34.277 27.832 Q 33.594 28.125 32.861 28.32 A 0.879 0.879 0 0 0 32.494 28.51 Q 32.18 28.792 32.22 29.408 A 2.429 2.429 0 0 0 32.227 29.492 A 26.205 26.205 0 0 0 26.318 30.762 Q 23.438 31.738 20.605 32.861 Q 17.773 33.985 14.893 34.961 A 26.205 26.205 0 0 1 8.984 36.231 Q 8.017 36.67 7.683 37.981 A 4.805 4.805 0 0 0 7.617 38.281 Q 5.624 38.1 4.219 37.331 A 6.32 6.32 0 0 1 4.004 37.207 A 20.46 20.46 0 0 0 2.417 36.353 Q 1.566 35.939 0.594 35.55 A 34.943 34.943 0 0 0 0.586 35.547 A 15.572 15.572 0 0 1 0.104 33.241 A 12.642 12.642 0 0 1 0 31.641 Q 0 29.199 0.977 26.953 Q 1.953 24.707 4.102 23.633 A 14.815 14.815 0 0 0 4.538 23.714 Q 4.773 23.754 4.98 23.779 A 6.064 6.064 0 0 0 5.396 23.816 Q 5.615 23.828 5.859 23.828 A 8.769 8.769 0 0 0 8.74 23.33 A 10.009 10.009 0 0 0 8.984 23.242 A 9.106 9.106 0 0 1 12.207 22.656 Q 12.695 22.656 13.281 22.949 A 5.054 5.054 0 0 1 13.945 22.636 Q 14.413 22.452 14.99 22.315 A 88.594 88.594 0 0 0 16.473 21.948 A 76.825 76.825 0 0 0 16.943 21.826 Q 17.871 21.582 18.652 21.094 A 2.177 2.177 0 0 0 19.332 20.443 A 2.137 2.137 0 0 0 19.629 19.727 A 2.329 2.329 0 0 0 20.52 20.177 A 2.276 2.276 0 0 0 20.703 20.215 A 7.117 7.117 0 0 0 21.875 20.313 A 7.321 7.321 0 0 0 23.625 20.092 A 9.077 9.077 0 0 0 24.512 19.824 A 4.759 4.759 0 0 0 25.832 19.115 A 4.177 4.177 0 0 0 26.66 18.262 A 2.218 2.218 0 0 0 27.894 18.971 A 3.372 3.372 0 0 0 28.613 19.043 A 5.305 5.305 0 0 0 30.803 18.56 A 6.479 6.479 0 0 0 31.299 18.311 A 6.208 6.208 0 0 1 32.514 17.788 A 4.723 4.723 0 0 1 33.887 17.578 A 2.205 2.205 0 0 1 34.488 17.655 A 1.55 1.55 0 0 1 35.352 18.262 A 7.598 7.598 0 0 1 37.183 17.163 A 9.109 9.109 0 0 1 37.891 16.895 Q 39.355 16.406 40.869 16.016 A 30.568 30.568 0 0 0 42.858 15.433 A 26.064 26.064 0 0 0 43.701 15.137 Q 45.02 14.649 45.801 13.77 A 3.481 3.481 0 0 0 46.082 13.812 Q 46.401 13.849 46.87 13.861 A 19.166 19.166 0 0 0 47.363 13.867 A 11.327 11.327 0 0 0 50.537 13.428 A 84.798 84.798 0 0 1 53.613 12.598 L 55.664 12.403 A 3.521 3.521 0 0 0 56.939 11.996 A 3.387 3.387 0 0 0 57.08 11.914 A 10.114 10.114 0 0 1 58.398 11.231 Q 59.082 10.938 59.814 10.742 A 3.681 3.681 0 0 1 60.341 10.645 Q 60.905 10.58 61.621 10.645 Q 63.965 9.375 66.602 8.692 A 92.241 92.241 0 0 1 71.973 7.471 A 71.683 71.683 0 0 0 77.344 6.201 Q 79.98 5.469 82.324 4.004 L 82.617 4.004 Q 84.57 4.004 86.475 3.32 A 14.86 14.86 0 0 0 90.039 1.465 A 1.845 1.845 0 0 0 90.616 1.563 A 1.776 1.776 0 0 0 90.625 1.563 L 91.309 1.563 A 18.316 18.316 0 0 0 96.631 0.781 Q 99.219 0 102.051 0 Q 103.153 0 103.954 0.194 A 4.183 4.183 0 0 1 104.688 0.44 A 8.023 8.023 0 0 1 106.247 1.358 A 7.419 7.419 0 0 1 106.445 1.514 A 21.854 21.854 0 0 0 108.105 2.735 Q 108.867 3.242 109.994 3.53 A 9.474 9.474 0 0 0 110.352 3.613 Q 111.23 5.274 111.23 7.178 A 77.244 77.244 0 0 0 111.328 11.035 Q 110.547 11.524 109.668 11.621 A 39.482 39.482 0 0 0 107.977 11.847 A 43.183 43.183 0 0 0 107.861 11.865 A 9.353 9.353 0 0 0 106.759 12.106 A 7.841 7.841 0 0 0 106.152 12.305 A 2.103 2.103 0 0 0 104.98 13.379 A 10.538 10.538 0 0 0 102.832 11.719 Q 101.66 11.035 100.488 10.254 Q 99.512 10.547 98.535 11.035 A 4.703 4.703 0 0 1 97.437 11.43 A 3.988 3.988 0 0 1 96.582 11.524 A 2.073 2.073 0 0 1 95.749 11.342 A 2.942 2.942 0 0 1 95.215 11.035 A 6.069 6.069 0 0 1 93.906 11.777 A 7.184 7.184 0 0 1 93.408 11.963 A 32.794 32.794 0 0 1 91.815 12.448 A 36.49 36.49 0 0 1 91.26 12.598 A 10.052 10.052 0 0 0 89.808 13.093 A 8.664 8.664 0 0 0 89.209 13.379 Q 88.281 13.867 87.891 14.844 Q 87.695 14.356 86.963 14.551 Q 86.245 14.742 86.137 14.089 A 1.226 1.226 0 0 1 86.133 14.063 A 70.9 70.9 0 0 1 79.785 15.918 A 234.22 234.22 0 0 0 73.34 17.578 Q 70.117 18.457 66.992 19.531 A 41.549 41.549 0 0 0 60.938 22.168 A 0.306 0.306 0 0 0 60.864 22.29 Q 60.848 22.338 60.843 22.397 A 0.687 0.687 0 0 0 60.84 22.461 A 5.835 5.835 0 0 0 61.124 24.289 A 5.55 5.55 0 0 0 61.133 24.317 A 24.551 24.551 0 0 1 61.454 25.351 A 19.877 19.877 0 0 1 61.621 25.977 Q 59.863 31.934 59.277 38.086 Q 58.691 44.238 57.715 50.195 Z M 681.934 41.992 L 681.934 42.383 A 1.009 1.009 0 0 0 681.573 42.562 Q 681.351 42.741 681.282 43.051 A 1.412 1.412 0 0 0 681.25 43.36 A 10.668 10.668 0 0 1 679.004 44.092 A 10.668 10.668 0 0 0 676.758 44.824 Q 675.684 44.727 674.561 44.678 A 50.599 50.599 0 0 0 672.363 44.629 A 88.062 88.062 0 0 0 666.504 44.824 Q 663.574 45.02 660.645 44.824 A 12.645 12.645 0 0 1 657.866 45.989 A 14.046 14.046 0 0 1 657.666 46.045 Q 656.055 46.485 654.59 46.485 Q 653.5 46.485 652.664 46.231 A 4.732 4.732 0 0 1 652.539 46.192 A 27.855 27.855 0 0 1 648.776 47.73 A 32.427 32.427 0 0 1 647.412 48.145 A 282.544 282.544 0 0 1 641.797 49.658 A 62.954 62.954 0 0 0 637.028 51.09 A 57.416 57.416 0 0 0 636.377 51.319 A 14.814 14.814 0 0 0 632.721 53.215 A 13.617 13.617 0 0 0 631.836 53.906 A 39.763 39.763 0 0 0 631.543 56.592 Q 631.445 57.91 631.445 59.18 A 22.443 22.443 0 0 0 631.497 60.735 A 18.007 18.007 0 0 0 631.592 61.719 A 8.847 8.847 0 0 0 632.11 63.77 A 10.024 10.024 0 0 0 632.227 64.063 A 4.453 4.453 0 0 0 632.787 64.243 A 6.021 6.021 0 0 0 633.35 64.356 Q 633.895 64.44 634.332 64.451 A 5.2 5.2 0 0 0 634.473 64.453 A 3.383 3.383 0 0 0 635.449 64.307 A 1.01 1.01 0 0 0 636.087 63.775 A 1.302 1.302 0 0 0 636.133 63.672 Q 637.598 63.477 639.063 63.526 A 87.934 87.934 0 0 0 641.992 63.574 A 41.866 41.866 0 0 0 644.873 63.477 A 13.479 13.479 0 0 0 647.656 62.988 Q 649.219 62.598 650.732 62.5 A 1394.239 1394.239 0 0 0 653.711 62.305 A 33.886 33.886 0 0 0 656.252 62.036 A 37.905 37.905 0 0 0 656.738 61.963 A 10.946 10.946 0 0 0 658.73 61.448 A 13.775 13.775 0 0 0 659.961 60.938 A 7.154 7.154 0 0 0 662.549 61.426 A 16.995 16.995 0 0 1 665.137 61.621 A 5.547 5.547 0 0 1 665.846 62.218 A 4.519 4.519 0 0 1 666.26 62.695 A 2.198 2.198 0 0 1 666.698 63.978 A 2.722 2.722 0 0 1 666.699 64.063 Q 666.699 65.43 665.723 66.797 A 23.686 23.686 0 0 0 664.943 67.956 Q 664.49 68.677 664.16 69.336 L 663.086 69.336 A 16.279 16.279 0 0 0 658.545 69.971 A 57.924 57.924 0 0 0 654.15 71.436 Q 651.953 72.266 649.756 72.901 A 16.279 16.279 0 0 1 645.215 73.535 A 0.503 0.503 0 0 0 645.032 73.566 Q 644.818 73.649 644.778 73.954 A 0.974 0.974 0 0 0 644.775 73.975 A 1.82 1.82 0 0 1 644.736 74.203 Q 644.672 74.469 644.531 74.61 A 3.736 3.736 0 0 0 644.218 74.562 Q 643.874 74.524 643.382 74.515 A 17.161 17.161 0 0 0 643.066 74.512 A 18.709 18.709 0 0 0 639.285 74.886 A 17.21 17.21 0 0 0 638.77 75 A 18.067 18.067 0 0 1 634.57 75.488 A 14.105 14.105 0 0 1 633.398 75.44 Q 632.813 75.391 632.227 75.293 A 2.626 2.626 0 0 1 631.734 75.882 A 2.131 2.131 0 0 1 630.957 76.319 A 4.021 4.021 0 0 0 629.763 76.933 A 4.79 4.79 0 0 0 629.492 77.149 Q 629.252 77.869 629.176 78.851 A 11.484 11.484 0 0 0 629.15 79.297 A 1821.055 1821.055 0 0 0 629.053 81.885 A 20.549 20.549 0 0 1 628.916 83.628 A 17.568 17.568 0 0 1 628.809 84.375 Q 628.648 85.341 628.221 85.975 A 2.747 2.747 0 0 1 628.027 86.231 A 0.516 0.516 0 0 0 628.104 86.423 Q 628.273 86.671 628.753 86.584 A 1.842 1.842 0 0 0 628.809 86.572 Q 629.415 86.442 629.484 87.043 A 1.457 1.457 0 0 1 629.492 87.207 A 8.879 8.879 0 0 1 629.408 88.403 A 10.744 10.744 0 0 1 629.297 89.063 A 9.937 9.937 0 0 0 629.102 91.016 Q 629.102 92.871 629.541 95.069 A 16.468 16.468 0 0 0 630.526 98.293 A 14.826 14.826 0 0 0 630.908 99.121 Q 631.836 100.977 633.398 102.197 A 5.663 5.663 0 0 0 635.916 103.299 A 7.762 7.762 0 0 0 637.305 103.418 A 7.358 7.358 0 0 0 640.234 102.832 A 4.872 4.872 0 0 0 642.238 101.228 A 6.053 6.053 0 0 0 642.48 100.879 L 642.969 100.781 Q 643.359 100.781 643.701 100.879 Q 644.043 100.977 644.434 100.977 Q 644.926 100.977 645.659 100.46 A 6.623 6.623 0 0 0 645.947 100.244 A 47.169 47.169 0 0 0 646.86 99.504 Q 647.401 99.054 647.998 98.535 A 64.679 64.679 0 0 1 650.293 96.631 A 10.41 10.41 0 0 1 651.264 95.944 Q 651.775 95.627 652.266 95.42 A 5.806 5.806 0 0 1 652.539 95.313 Q 653.223 93.945 653.857 92.578 A 4.879 4.879 0 0 1 655.762 90.43 L 655.762 87.598 Q 656.738 86.524 657.861 85.645 A 5.598 5.598 0 0 0 659.57 83.399 A 6.686 6.686 0 0 0 660.104 83.587 A 5.292 5.292 0 0 0 660.498 83.692 A 4.169 4.169 0 0 0 661.244 83.786 A 4.75 4.75 0 0 0 661.426 83.789 Q 661.914 83.789 662.451 83.692 A 5.312 5.312 0 0 0 663.477 83.399 Q 664.258 84.473 664.697 85.791 Q 665.137 87.11 665.82 88.281 Q 665.216 89.49 664.473 91.022 A 405.595 405.595 0 0 0 663.77 92.481 A 87.412 87.412 0 0 1 661.23 97.363 A 58.893 58.893 0 0 1 658.35 102.002 Q 657.191 103.684 656.06 104.766 A 10.384 10.384 0 0 1 655.371 105.371 A 1.334 1.334 0 0 1 655.182 105.524 Q 654.85 105.751 654.168 106.028 A 13.118 13.118 0 0 1 654.102 106.055 A 42.045 42.045 0 0 0 653.076 106.824 A 33.615 33.615 0 0 0 652.148 107.569 A 11.497 11.497 0 0 0 650.835 108.862 A 13.223 13.223 0 0 0 650.488 109.278 Q 647.656 110.156 645.068 111.621 A 277.223 277.223 0 0 1 639.941 114.453 A 9.843 9.843 0 0 0 638.258 114.19 A 11.929 11.929 0 0 0 637.402 114.16 A 18.878 18.878 0 0 0 635.059 114.307 A 18.836 18.836 0 0 1 633.558 114.431 A 23.458 23.458 0 0 1 632.52 114.453 Q 632.129 113.965 631.397 113.819 A 0.911 0.911 0 0 1 631.13 113.725 Q 630.721 113.497 630.849 112.845 A 2.075 2.075 0 0 1 630.859 112.793 Q 627.539 112.598 625.488 110.986 A 14.523 14.523 0 0 1 622.022 107.031 A 23.954 23.954 0 0 1 619.727 101.953 Q 618.848 99.219 617.871 96.68 L 617.871 96.387 Q 617.871 95.899 618.262 95.801 Q 618.642 95.706 618.652 95.239 A 1.185 1.185 0 0 0 618.652 95.215 A 0.623 0.623 0 0 0 618.643 95.105 Q 618.623 94.99 618.555 94.922 A 123.267 123.267 0 0 1 618.349 94.158 Q 618.269 93.856 618.198 93.583 A 65.12 65.12 0 0 1 618.066 93.067 Q 617.871 92.285 617.871 91.211 Q 617.871 89.649 618.066 88.135 A 24.015 24.015 0 0 0 618.262 85.059 A 10.614 10.614 0 0 0 618.187 83.766 Q 618.091 82.984 617.871 82.324 A 2.895 2.895 0 0 0 618.18 81.842 Q 618.367 81.479 618.506 81.006 A 9.931 9.931 0 0 0 618.848 79.297 A 31.977 31.977 0 0 0 618.994 77.539 A 8.446 8.446 0 0 1 619.076 76.734 Q 619.137 76.332 619.237 75.982 A 5.154 5.154 0 0 1 619.238 75.977 Q 618.903 75.054 618.639 74.311 A 152.223 152.223 0 0 1 618.555 74.072 A 4.772 4.772 0 0 1 618.349 73.25 Q 618.262 72.711 618.262 72.07 L 618.262 71.387 A 23.615 23.615 0 0 0 619.922 67.969 A 139.504 139.504 0 0 1 621.193 64.818 A 153.71 153.71 0 0 1 621.387 64.356 L 621.387 64.063 A 82.3 82.3 0 0 0 621.191 58.399 A 82.3 82.3 0 0 1 620.996 52.735 L 620.996 50.879 A 17.538 17.538 0 0 1 621.047 49.526 A 15.115 15.115 0 0 1 621.094 49.024 A 2.95 2.95 0 0 0 621.805 48.534 A 2.516 2.516 0 0 0 622.266 47.949 A 2.605 2.605 0 0 1 623.169 47.025 A 3.275 3.275 0 0 1 623.438 46.875 L 626.66 46.875 L 627.246 45.899 A 3.038 3.038 0 0 0 627.637 44.824 A 10.433 10.433 0 0 0 629.736 43.994 A 21.719 21.719 0 0 0 631.192 43.161 A 18.939 18.939 0 0 0 631.641 42.871 A 712.322 712.322 0 0 1 632.947 42.127 A 528.519 528.519 0 0 1 634.131 41.455 Q 635.254 40.82 636.377 40.381 A 16.756 16.756 0 0 1 638.299 39.764 A 18.878 18.878 0 0 1 638.77 39.649 A 22.124 22.124 0 0 1 639.955 39.411 Q 640.765 39.27 641.699 39.16 A 3.246 3.246 0 0 0 642.036 39.144 Q 642.538 39.092 642.725 38.867 Q 642.958 38.588 643.413 38.219 A 9.964 9.964 0 0 1 643.457 38.184 A 58.06 58.06 0 0 0 645.801 38.526 A 18.878 18.878 0 0 0 648.145 38.672 Q 650.488 38.672 652.539 37.793 Q 655.469 37.793 658.35 37.695 Q 661.23 37.598 664.16 37.598 A 66.187 66.187 0 0 1 669.238 37.793 A 41.668 41.668 0 0 1 674.219 38.477 A 5.659 5.659 0 0 1 675.394 38.225 A 7.132 7.132 0 0 1 676.172 38.184 A 12.11 12.11 0 0 1 678.412 38.398 A 13.391 13.391 0 0 1 678.564 38.428 A 6.826 6.826 0 0 0 679.906 38.564 A 6.384 6.384 0 0 0 680.957 38.477 Q 681.055 39.551 681.494 40.283 A 3.07 3.07 0 0 1 681.899 41.462 A 3.927 3.927 0 0 1 681.934 41.992 Z M 184.668 86.524 L 185.156 86.524 A 2.917 2.917 0 0 1 185.068 87.261 A 2.188 2.188 0 0 1 184.619 88.135 Q 184.082 88.77 183.35 89.258 A 17.527 17.527 0 0 1 181.976 90.088 A 16.071 16.071 0 0 1 181.885 90.137 Q 181.152 90.528 180.566 91.113 A 2.054 2.054 0 0 0 180.029 92.041 Q 179.911 92.477 179.631 92.688 A 0.894 0.894 0 0 1 179.492 92.774 A 2.726 2.726 0 0 1 178.812 93.195 A 2.356 2.356 0 0 1 178.223 93.36 A 25.167 25.167 0 0 0 177.17 93.533 A 28.297 28.297 0 0 0 176.807 93.604 Q 176.074 93.75 175.391 93.994 A 2.297 2.297 0 0 0 174.509 94.572 A 3.032 3.032 0 0 0 174.219 94.922 Q 169.629 95.41 165.186 96.192 A 52.636 52.636 0 0 1 156.055 96.973 A 12.136 12.136 0 0 0 155.02 97.019 A 15.529 15.529 0 0 0 154.15 97.119 A 69.432 69.432 0 0 1 153.162 97.254 A 54.784 54.784 0 0 1 152.246 97.363 A 87.94 87.94 0 0 1 148.193 97.656 A 83.175 83.175 0 0 1 144.141 97.754 Q 141.309 97.754 138.477 97.51 A 44.976 44.976 0 0 1 132.91 96.68 A 5.649 5.649 0 0 0 131.749 96.047 A 6.639 6.639 0 0 0 131.348 95.899 A 119.717 119.717 0 0 0 129.541 95.313 A 12.295 12.295 0 0 1 128.335 94.864 A 10.47 10.47 0 0 1 127.832 94.629 Q 127.051 94.238 126.66 93.457 A 8.938 8.938 0 0 1 125.281 93.262 A 6.778 6.778 0 0 1 124.072 92.871 A 12.722 12.722 0 0 1 122.498 92.056 A 11.233 11.233 0 0 1 122.022 91.748 A 215.905 215.905 0 0 1 120.239 90.515 A 234.332 234.332 0 0 1 120.117 90.43 A 9.735 9.735 0 0 0 118.709 89.617 A 11.933 11.933 0 0 0 117.871 89.258 A 82.109 82.109 0 0 0 115.869 86.572 A 8.968 8.968 0 0 0 113.379 84.375 Q 113.086 82.52 112.451 80.664 A 469.64 469.64 0 0 0 111.182 77.002 Q 110.547 75.195 110.107 73.34 A 16.469 16.469 0 0 1 109.668 69.531 A 12.101 12.101 0 0 1 109.723 68.424 Q 109.777 67.835 109.885 67.165 A 26.062 26.062 0 0 1 110.059 66.211 Q 110.449 64.258 111.084 62.256 A 26.21 26.21 0 0 1 112.382 58.94 A 23.834 23.834 0 0 1 112.598 58.496 A 21.116 21.116 0 0 1 113.257 57.274 Q 113.6 56.688 113.944 56.205 A 10.164 10.164 0 0 1 114.355 55.664 A 2.606 2.606 0 0 1 115.036 55.177 A 3.252 3.252 0 0 1 115.039 55.176 A 1.859 1.859 0 0 0 115.58 54.762 A 2.283 2.283 0 0 0 115.723 54.59 A 10.081 10.081 0 0 1 116.859 53.503 A 8.436 8.436 0 0 1 117.578 52.979 A 20.531 20.531 0 0 0 118.579 52.283 A 26.709 26.709 0 0 0 119.629 51.465 A 3.363 3.363 0 0 0 120.264 50.586 A 2.479 2.479 0 0 1 120.715 49.961 A 3.115 3.115 0 0 1 120.996 49.707 A 0.741 0.741 0 0 1 121.242 49.604 Q 121.485 49.547 121.826 49.61 A 1.501 1.501 0 0 0 122.018 49.632 Q 122.435 49.653 122.754 49.414 A 1.207 1.207 0 0 0 122.96 49.222 A 0.751 0.751 0 0 0 123.145 48.731 A 0.932 0.932 0 0 1 123.419 48.066 A 1.224 1.224 0 0 1 123.438 48.047 A 0.156 0.156 0 0 1 123.491 48.014 Q 123.613 47.967 123.921 47.989 A 3.924 3.924 0 0 1 124.023 47.998 A 39.122 39.122 0 0 0 124.193 48.015 Q 124.493 48.043 124.589 48.047 A 0.639 0.639 0 0 0 124.609 48.047 A 1.269 1.269 0 0 0 125.114 47.932 Q 125.602 47.721 126.172 47.119 Q 126.89 46.361 127.412 46.027 A 2.46 2.46 0 0 1 127.637 45.899 A 5.121 5.121 0 0 1 128.481 45.509 A 4.3 4.3 0 0 1 129.004 45.361 A 5.266 5.266 0 0 0 129.712 45.154 Q 130.055 45.028 130.42 44.849 A 8.64 8.64 0 0 0 130.469 44.824 A 13.898 13.898 0 0 1 131.792 44.187 A 11.544 11.544 0 0 1 132.568 43.897 A 20.855 20.855 0 0 0 134.134 43.302 A 23.804 23.804 0 0 0 134.668 43.067 A 2.629 2.629 0 0 0 135.508 42.596 A 3.228 3.228 0 0 0 135.742 42.383 A 3.837 3.837 0 0 1 136.139 42.035 Q 136.361 41.867 136.583 41.759 A 2.127 2.127 0 0 1 136.719 41.699 A 10.328 10.328 0 0 1 137.997 41.366 A 12.246 12.246 0 0 1 138.623 41.26 Q 139.648 41.113 140.576 40.967 Q 141.504 40.82 142.432 40.576 A 4.129 4.129 0 0 0 143.943 39.813 A 4.89 4.89 0 0 0 144.141 39.649 L 144.922 39.649 A 12.05 12.05 0 0 0 148.34 39.16 A 12.05 12.05 0 0 1 151.758 38.672 A 3.624 3.624 0 0 1 152.071 38.687 Q 152.38 38.715 152.809 38.789 A 17.286 17.286 0 0 1 153.223 38.867 A 3.235 3.235 0 0 1 154.916 38.38 A 3.867 3.867 0 0 1 154.98 38.379 Q 156.641 38.379 158.301 39.209 A 7.643 7.643 0 0 0 161.172 40.019 A 7.366 7.366 0 0 0 161.719 40.039 L 162.305 40.039 Q 162.695 40.039 163.086 39.942 Q 164.16 41.016 165.674 41.113 A 5.451 5.451 0 0 1 167.057 41.375 A 4.416 4.416 0 0 1 168.262 41.992 Q 168.945 42.578 169.385 43.36 A 9.513 9.513 0 0 1 170.117 45.02 L 170.703 46.778 A 6.135 6.135 0 0 0 171.197 47.891 A 5.337 5.337 0 0 0 171.484 48.34 A 9.999 9.999 0 0 1 170.651 51.235 A 8.254 8.254 0 0 1 168.604 53.955 A 8.379 8.379 0 0 1 164.022 55.967 A 11.266 11.266 0 0 1 162.598 56.055 A 9.108 9.108 0 0 1 161.634 56.007 Q 160.883 55.927 160.303 55.713 A 15.18 15.18 0 0 1 159.424 55.359 A 11.673 11.673 0 0 1 158.643 54.981 Q 157.91 54.59 157.129 54.199 A 6.514 6.514 0 0 0 156.019 53.771 A 7.986 7.986 0 0 0 155.371 53.613 A 11.802 11.802 0 0 0 156.738 49.414 A 9.37 9.37 0 0 0 155.06 48.83 A 8.415 8.415 0 0 0 154.59 48.731 A 7.605 7.605 0 0 1 152.539 48.047 A 34.522 34.522 0 0 1 148.666 48.825 A 30.465 30.465 0 0 1 147.412 48.975 A 7.853 7.853 0 0 0 143.799 50.293 A 10.172 10.172 0 0 0 142.773 51.074 A 57.58 57.58 0 0 0 142.014 50.928 A 66.014 66.014 0 0 0 141.748 50.879 A 6.063 6.063 0 0 0 141.048 50.792 A 5.136 5.136 0 0 0 140.723 50.781 A 1.555 1.555 0 0 0 140.397 50.824 Q 139.738 50.969 138.379 51.611 Q 136.621 52.442 134.619 53.516 A 102.555 102.555 0 0 0 131.726 55.127 A 91.201 91.201 0 0 0 130.811 55.664 Q 129.328 56.546 128.602 56.967 A 51.641 51.641 0 0 1 128.32 57.129 A 5.921 5.921 0 0 0 126.953 58.301 Q 126.367 58.985 125.781 59.717 A 26.307 26.307 0 0 1 124.902 60.761 A 23.244 23.244 0 0 1 124.609 61.084 A 3.387 3.387 0 0 1 123.307 61.954 A 4.015 4.015 0 0 1 123.145 62.012 A 5.993 5.993 0 0 1 122.876 63.013 A 4.621 4.621 0 0 1 122.461 63.867 Q 121.973 64.649 121.387 65.528 A 42.805 42.805 0 0 1 121.045 69.043 Q 120.801 70.801 120.801 72.559 L 120.801 73.828 A 3.06 3.06 0 0 0 120.876 74.518 A 2.619 2.619 0 0 0 120.996 74.903 A 12.064 12.064 0 0 1 122.607 77.735 A 3.793 3.793 0 0 0 123.579 79.151 A 3.807 3.807 0 0 0 124.805 79.883 Q 124.902 80.274 124.756 80.371 A 0.325 0.325 0 0 0 124.675 80.452 Q 124.612 80.539 124.56 80.693 A 2.141 2.141 0 0 0 124.512 80.86 Q 125.098 81.934 126.025 82.569 Q 126.953 83.203 127.93 83.838 A 26.889 26.889 0 0 1 129.785 85.156 A 4.573 4.573 0 0 1 131.12 86.843 A 5.342 5.342 0 0 1 131.152 86.914 A 7.948 7.948 0 0 1 133.936 87.403 Q 135.254 87.891 136.475 88.477 A 72.069 72.069 0 0 0 138.179 89.269 A 61.914 61.914 0 0 0 138.818 89.551 A 5.704 5.704 0 0 0 141.113 90.039 A 6.817 6.817 0 0 0 142.245 89.949 A 5.457 5.457 0 0 0 143.066 89.746 A 31.377 31.377 0 0 0 148.193 90.869 Q 150.781 91.211 153.418 91.211 A 53.516 53.516 0 0 0 159.863 90.82 Q 163.086 90.43 166.309 90.137 A 14.334 14.334 0 0 1 167.874 89.961 A 12.343 12.343 0 0 1 168.555 89.942 A 11.987 11.987 0 0 0 170.703 89.746 A 4.569 4.569 0 0 0 172.474 89.087 A 6.106 6.106 0 0 0 173.291 88.477 A 10.936 10.936 0 0 1 174.35 87.649 Q 175.024 87.189 175.684 86.914 A 4.347 4.347 0 0 0 177.43 87.544 A 5.642 5.642 0 0 0 178.223 87.598 A 9.846 9.846 0 0 0 181.445 87.061 Q 183.008 86.524 184.668 86.524 Z M 440.43 86.524 L 440.918 86.524 A 2.917 2.917 0 0 1 440.829 87.261 A 2.188 2.188 0 0 1 440.381 88.135 Q 439.844 88.77 439.111 89.258 A 17.527 17.527 0 0 1 437.738 90.088 A 16.071 16.071 0 0 1 437.647 90.137 Q 436.914 90.528 436.328 91.113 A 2.054 2.054 0 0 0 435.791 92.041 Q 435.672 92.477 435.393 92.688 A 0.894 0.894 0 0 1 435.254 92.774 A 2.726 2.726 0 0 1 434.574 93.195 A 2.356 2.356 0 0 1 433.984 93.36 A 25.167 25.167 0 0 0 432.932 93.533 A 28.297 28.297 0 0 0 432.568 93.604 Q 431.836 93.75 431.152 93.994 A 2.297 2.297 0 0 0 430.271 94.572 A 3.032 3.032 0 0 0 429.98 94.922 Q 425.391 95.41 420.947 96.192 A 52.636 52.636 0 0 1 411.816 96.973 A 12.136 12.136 0 0 0 410.781 97.019 A 15.529 15.529 0 0 0 409.912 97.119 A 69.432 69.432 0 0 1 408.923 97.254 A 54.784 54.784 0 0 1 408.008 97.363 A 87.94 87.94 0 0 1 403.955 97.656 A 83.175 83.175 0 0 1 399.902 97.754 Q 397.07 97.754 394.238 97.51 A 44.976 44.976 0 0 1 388.672 96.68 A 5.649 5.649 0 0 0 387.511 96.047 A 6.639 6.639 0 0 0 387.109 95.899 A 119.717 119.717 0 0 0 385.303 95.313 A 12.295 12.295 0 0 1 384.096 94.864 A 10.47 10.47 0 0 1 383.594 94.629 Q 382.813 94.238 382.422 93.457 A 8.938 8.938 0 0 1 381.043 93.262 A 6.778 6.778 0 0 1 379.834 92.871 A 12.722 12.722 0 0 1 378.259 92.056 A 11.233 11.233 0 0 1 377.783 91.748 A 215.905 215.905 0 0 1 376.001 90.515 A 234.332 234.332 0 0 1 375.879 90.43 A 9.735 9.735 0 0 0 374.471 89.617 A 11.933 11.933 0 0 0 373.633 89.258 A 82.109 82.109 0 0 0 371.631 86.572 A 8.968 8.968 0 0 0 369.141 84.375 Q 368.848 82.52 368.213 80.664 A 469.64 469.64 0 0 0 366.943 77.002 Q 366.309 75.195 365.869 73.34 A 16.469 16.469 0 0 1 365.43 69.531 A 12.101 12.101 0 0 1 365.485 68.424 Q 365.539 67.835 365.647 67.165 A 26.062 26.062 0 0 1 365.82 66.211 Q 366.211 64.258 366.846 62.256 A 26.21 26.21 0 0 1 368.143 58.94 A 23.834 23.834 0 0 1 368.359 58.496 A 21.116 21.116 0 0 1 369.019 57.274 Q 369.362 56.688 369.705 56.205 A 10.164 10.164 0 0 1 370.117 55.664 A 2.606 2.606 0 0 1 370.798 55.177 A 3.252 3.252 0 0 1 370.801 55.176 A 1.859 1.859 0 0 0 371.342 54.762 A 2.283 2.283 0 0 0 371.484 54.59 A 10.081 10.081 0 0 1 372.621 53.503 A 8.436 8.436 0 0 1 373.34 52.979 A 20.531 20.531 0 0 0 374.341 52.283 A 26.709 26.709 0 0 0 375.391 51.465 A 3.363 3.363 0 0 0 376.025 50.586 A 2.479 2.479 0 0 1 376.476 49.961 A 3.115 3.115 0 0 1 376.758 49.707 A 0.741 0.741 0 0 1 377.004 49.604 Q 377.247 49.547 377.588 49.61 A 1.501 1.501 0 0 0 377.78 49.632 Q 378.197 49.653 378.516 49.414 A 1.207 1.207 0 0 0 378.722 49.222 A 0.751 0.751 0 0 0 378.906 48.731 A 0.932 0.932 0 0 1 379.181 48.066 A 1.224 1.224 0 0 1 379.199 48.047 A 0.156 0.156 0 0 1 379.253 48.014 Q 379.374 47.967 379.683 47.989 A 3.924 3.924 0 0 1 379.785 47.998 A 39.122 39.122 0 0 0 379.955 48.015 Q 380.254 48.043 380.35 48.047 A 0.639 0.639 0 0 0 380.371 48.047 A 1.269 1.269 0 0 0 380.876 47.932 Q 381.364 47.721 381.934 47.119 Q 382.652 46.361 383.174 46.027 A 2.46 2.46 0 0 1 383.398 45.899 A 5.121 5.121 0 0 1 384.242 45.509 A 4.3 4.3 0 0 1 384.766 45.361 A 5.266 5.266 0 0 0 385.474 45.154 Q 385.817 45.028 386.182 44.849 A 8.64 8.64 0 0 0 386.23 44.824 A 13.898 13.898 0 0 1 387.554 44.187 A 11.544 11.544 0 0 1 388.33 43.897 A 20.855 20.855 0 0 0 389.896 43.302 A 23.804 23.804 0 0 0 390.43 43.067 A 2.629 2.629 0 0 0 391.27 42.596 A 3.228 3.228 0 0 0 391.504 42.383 A 3.837 3.837 0 0 1 391.901 42.035 Q 392.123 41.867 392.345 41.759 A 2.127 2.127 0 0 1 392.48 41.699 A 10.328 10.328 0 0 1 393.758 41.366 A 12.246 12.246 0 0 1 394.385 41.26 Q 395.41 41.113 396.338 40.967 Q 397.266 40.82 398.193 40.576 A 4.129 4.129 0 0 0 399.705 39.813 A 4.89 4.89 0 0 0 399.902 39.649 L 400.684 39.649 A 12.05 12.05 0 0 0 404.102 39.16 A 12.05 12.05 0 0 1 407.52 38.672 A 3.624 3.624 0 0 1 407.833 38.687 Q 408.142 38.715 408.57 38.789 A 17.286 17.286 0 0 1 408.984 38.867 A 3.235 3.235 0 0 1 410.678 38.38 A 3.867 3.867 0 0 1 410.742 38.379 Q 412.402 38.379 414.063 39.209 A 7.643 7.643 0 0 0 416.934 40.019 A 7.366 7.366 0 0 0 417.48 40.039 L 418.066 40.039 Q 418.457 40.039 418.848 39.942 Q 419.922 41.016 421.436 41.113 A 5.451 5.451 0 0 1 422.819 41.375 A 4.416 4.416 0 0 1 424.023 41.992 Q 424.707 42.578 425.147 43.36 A 9.513 9.513 0 0 1 425.879 45.02 L 426.465 46.778 A 6.135 6.135 0 0 0 426.958 47.891 A 5.337 5.337 0 0 0 427.246 48.34 A 9.999 9.999 0 0 1 426.413 51.235 A 8.254 8.254 0 0 1 424.365 53.955 A 8.379 8.379 0 0 1 419.783 55.967 A 11.266 11.266 0 0 1 418.359 56.055 A 9.108 9.108 0 0 1 417.396 56.007 Q 416.644 55.927 416.064 55.713 A 15.18 15.18 0 0 1 415.186 55.359 A 11.673 11.673 0 0 1 414.404 54.981 Q 413.672 54.59 412.891 54.199 A 6.514 6.514 0 0 0 411.781 53.771 A 7.986 7.986 0 0 0 411.133 53.613 A 11.802 11.802 0 0 0 412.5 49.414 A 9.37 9.37 0 0 0 410.822 48.83 A 8.415 8.415 0 0 0 410.352 48.731 A 7.605 7.605 0 0 1 408.301 48.047 A 34.522 34.522 0 0 1 404.428 48.825 A 30.465 30.465 0 0 1 403.174 48.975 A 7.853 7.853 0 0 0 399.561 50.293 A 10.172 10.172 0 0 0 398.535 51.074 A 57.58 57.58 0 0 0 397.775 50.928 A 66.014 66.014 0 0 0 397.51 50.879 A 6.063 6.063 0 0 0 396.81 50.792 A 5.136 5.136 0 0 0 396.484 50.781 A 1.555 1.555 0 0 0 396.159 50.824 Q 395.5 50.969 394.141 51.611 Q 392.383 52.442 390.381 53.516 A 102.555 102.555 0 0 0 387.488 55.127 A 91.201 91.201 0 0 0 386.572 55.664 Q 385.09 56.546 384.364 56.967 A 51.641 51.641 0 0 1 384.082 57.129 A 5.921 5.921 0 0 0 382.715 58.301 Q 382.129 58.985 381.543 59.717 A 26.307 26.307 0 0 1 380.664 60.761 A 23.244 23.244 0 0 1 380.371 61.084 A 3.387 3.387 0 0 1 379.068 61.954 A 4.015 4.015 0 0 1 378.906 62.012 A 5.993 5.993 0 0 1 378.638 63.013 A 4.621 4.621 0 0 1 378.223 63.867 Q 377.734 64.649 377.148 65.528 A 42.805 42.805 0 0 1 376.807 69.043 Q 376.563 70.801 376.563 72.559 L 376.563 73.828 A 3.06 3.06 0 0 0 376.638 74.518 A 2.619 2.619 0 0 0 376.758 74.903 A 12.064 12.064 0 0 1 378.369 77.735 A 3.793 3.793 0 0 0 379.341 79.151 A 3.807 3.807 0 0 0 380.566 79.883 Q 380.664 80.274 380.518 80.371 A 0.325 0.325 0 0 0 380.437 80.452 Q 380.374 80.539 380.322 80.693 A 2.141 2.141 0 0 0 380.273 80.86 Q 380.859 81.934 381.787 82.569 Q 382.715 83.203 383.691 83.838 A 26.889 26.889 0 0 1 385.547 85.156 A 4.573 4.573 0 0 1 386.881 86.843 A 5.342 5.342 0 0 1 386.914 86.914 A 7.948 7.948 0 0 1 389.697 87.403 Q 391.016 87.891 392.236 88.477 A 72.069 72.069 0 0 0 393.941 89.269 A 61.914 61.914 0 0 0 394.58 89.551 A 5.704 5.704 0 0 0 396.875 90.039 A 6.817 6.817 0 0 0 398.007 89.949 A 5.457 5.457 0 0 0 398.828 89.746 A 31.377 31.377 0 0 0 403.955 90.869 Q 406.543 91.211 409.18 91.211 A 53.516 53.516 0 0 0 415.625 90.82 Q 418.848 90.43 422.07 90.137 A 14.334 14.334 0 0 1 423.636 89.961 A 12.343 12.343 0 0 1 424.316 89.942 A 11.987 11.987 0 0 0 426.465 89.746 A 4.569 4.569 0 0 0 428.236 89.087 A 6.106 6.106 0 0 0 429.053 88.477 A 10.936 10.936 0 0 1 430.112 87.649 Q 430.786 87.189 431.445 86.914 A 4.347 4.347 0 0 0 433.191 87.544 A 5.642 5.642 0 0 0 433.984 87.598 A 9.846 9.846 0 0 0 437.207 87.061 Q 438.77 86.524 440.43 86.524 Z M 340.039 88.574 L 339.258 88.574 A 3.253 3.253 0 0 0 338.286 88.71 Q 337.308 89.016 336.832 90.006 A 3.252 3.252 0 0 0 336.816 90.039 A 5.871 5.871 0 0 1 336.206 89.616 A 7.291 7.291 0 0 1 335.84 89.307 A 4.823 4.823 0 0 0 334.766 88.574 A 49.03 49.03 0 0 1 330.383 89.684 A 53.64 53.64 0 0 1 330.078 89.746 A 24.841 24.841 0 0 1 325.195 90.235 L 323.828 90.235 A 4.069 4.069 0 0 1 323.158 90.176 A 5.46 5.46 0 0 1 322.559 90.039 A 9.423 9.423 0 0 0 321.308 90.646 A 8.093 8.093 0 0 0 320.801 90.967 Q 320.02 91.504 319.043 91.504 A 2.176 2.176 0 0 1 318.555 91.444 Q 318.152 91.351 317.676 91.113 A 1.031 1.031 0 0 0 317.478 91.131 Q 317.108 91.203 317.137 91.583 A 0.8 0.8 0 0 0 317.139 91.602 Q 317.18 92.012 316.703 92.078 A 1.473 1.473 0 0 1 316.504 92.09 L 315.625 92.09 Q 314.258 92.09 312.939 92.188 Q 311.621 92.285 310.254 92.285 A 15.309 15.309 0 0 1 307.174 91.963 A 17.496 17.496 0 0 1 306.445 91.797 Q 305.957 92.09 305.371 92.09 A 1.213 1.213 0 0 0 304.844 92.606 A 1.568 1.568 0 0 0 304.785 92.725 A 10.115 10.115 0 0 1 304.59 93.14 A 7.493 7.493 0 0 1 304.395 93.506 A 1.823 1.823 0 0 1 303.902 94.059 A 2.113 2.113 0 0 1 303.857 94.092 A 0.913 0.913 0 0 1 303.504 94.242 Q 303.31 94.281 303.072 94.258 A 2.164 2.164 0 0 1 302.93 94.238 A 3.541 3.541 0 0 1 302.647 95.17 A 2.797 2.797 0 0 1 301.953 96.094 Q 301.231 96.725 301.176 97.94 A 4.521 4.521 0 0 0 301.172 98.145 A 5.875 5.875 0 0 0 299.956 99.016 A 5.155 5.155 0 0 0 299.414 99.61 A 45.261 45.261 0 0 0 298.218 101.222 A 50.121 50.121 0 0 0 298.047 101.465 Q 297.363 102.442 296.631 103.32 A 5.022 5.022 0 0 1 294.824 104.688 Q 294.338 105.271 294.53 106.532 A 5.759 5.759 0 0 0 294.531 106.543 A 9.671 9.671 0 0 1 293.335 107.373 Q 292.696 107.752 291.943 108.084 A 15.401 15.401 0 0 1 291.895 108.106 A 8.952 8.952 0 0 1 290.565 108.573 Q 289.786 108.776 289.061 108.788 A 5.511 5.511 0 0 1 288.965 108.789 A 4.019 4.019 0 0 1 287.139 108.39 Q 286.223 107.93 285.613 106.942 A 6.175 6.175 0 0 1 285.059 105.762 A 14.878 14.878 0 0 1 285.11 104.551 A 18.582 18.582 0 0 1 285.205 103.662 A 14.848 14.848 0 0 1 285.606 101.65 A 13.632 13.632 0 0 1 285.645 101.514 A 6.092 6.092 0 0 1 286.523 99.658 A 3.234 3.234 0 0 1 287.737 98.63 A 4.142 4.142 0 0 1 288.184 98.438 Q 288.184 97.559 287.598 97.217 A 0.973 0.973 0 0 1 287.116 96.499 Q 287.078 96.275 287.109 95.996 A 15.651 15.651 0 0 0 291.699 92.676 A 37.74 37.74 0 0 0 295.264 88.33 A 1369.758 1369.758 0 0 1 298.535 83.692 A 25.563 25.563 0 0 1 302.246 79.492 L 302.246 77.442 A 15.526 15.526 0 0 0 305.251 72.904 A 14.403 14.403 0 0 0 306.055 70.41 A 2.64 2.64 0 0 0 306.628 70.243 Q 307.23 69.983 307.471 69.434 Q 307.813 68.653 307.813 67.578 A 0.822 0.822 0 0 0 308.06 67.544 Q 308.313 67.464 308.424 67.201 A 0.863 0.863 0 0 0 308.447 67.139 A 0.448 0.448 0 0 1 308.56 66.953 Q 308.771 66.75 309.277 66.895 A 34.86 34.86 0 0 1 310.515 63.987 A 29.304 29.304 0 0 1 311.23 62.598 A 434.59 434.59 0 0 0 313.379 58.643 Q 314.453 56.641 315.283 54.492 A 20.566 20.566 0 0 0 316.145 51.635 A 25.693 25.693 0 0 0 316.504 49.707 Q 317.871 49.61 318.018 48.389 Q 318.164 47.168 318.359 46.192 Q 319.824 44.824 320.557 42.969 A 44.692 44.692 0 0 0 321.875 39.111 A 63.871 63.871 0 0 1 323.193 35.108 A 11.209 11.209 0 0 1 325.293 31.543 L 325.293 31.25 Q 325.293 30.762 324.902 30.615 A 0.578 0.578 0 0 1 324.646 30.435 Q 324.512 30.267 324.512 29.981 Q 324.609 29.883 324.609 29.785 Q 325.781 29.297 326.367 28.174 Q 326.953 27.051 328.125 26.563 A 15.654 15.654 0 0 0 329.329 27.452 Q 330.602 28.294 331.656 28.546 A 4.406 4.406 0 0 0 331.738 28.565 A 18.841 18.841 0 0 0 332.81 28.764 Q 334.094 28.967 335.84 29.102 Q 337.109 30.469 337.256 32.373 Q 337.402 34.278 337.891 36.133 A 111.265 111.265 0 0 0 339.6 42.236 Q 340.527 45.215 341.016 48.34 A 12.959 12.959 0 0 0 342.09 51.856 A 13.025 13.025 0 0 1 343.164 55.274 A 9.821 9.821 0 0 1 343.254 56.3 Q 343.279 56.976 343.224 57.721 A 15.909 15.909 0 0 1 343.164 58.35 A 7.488 7.488 0 0 0 343.118 58.975 Q 343.095 59.744 343.247 60.415 A 4.582 4.582 0 0 0 343.555 61.328 L 344.238 62.891 Q 344.727 63.965 345.068 65.137 A 62.557 62.557 0 0 1 345.703 67.481 A 81.211 81.211 0 0 1 346.622 71.314 A 97.573 97.573 0 0 1 347.119 73.779 Q 347.754 77.149 349.121 79.883 A 2.716 2.716 0 0 0 350.635 81.25 A 8.679 8.679 0 0 0 351.975 81.636 A 10.958 10.958 0 0 0 352.93 81.787 A 16.365 16.365 0 0 0 354.807 81.897 A 15.346 15.346 0 0 0 355.42 81.885 A 72.181 72.181 0 0 1 356.287 81.855 Q 356.629 81.846 356.937 81.841 A 37.739 37.739 0 0 1 357.52 81.836 L 358.496 81.836 A 3.685 3.685 0 0 1 359.663 82.03 A 4.38 4.38 0 0 1 359.668 82.031 A 4.746 4.746 0 0 1 359.886 82.534 Q 359.978 82.787 360.021 83.015 A 2.078 2.078 0 0 1 360.059 83.399 A 2.832 2.832 0 0 1 359.944 84.224 A 2.188 2.188 0 0 1 359.277 85.254 A 2.61 2.61 0 0 0 358.818 85.769 A 1.855 1.855 0 0 0 358.496 86.817 Q 358.496 87.305 358.887 87.891 A 2.437 2.437 0 0 0 358.636 87.844 Q 358.361 87.805 357.967 87.796 A 10.984 10.984 0 0 0 357.715 87.793 Q 355.469 87.793 353.32 88.574 A 8.272 8.272 0 0 0 355.021 90.994 A 7.874 7.874 0 0 0 355.42 91.358 A 29.647 29.647 0 0 0 358.203 93.457 A 3.852 3.852 0 0 1 359.045 92.937 A 2.953 2.953 0 0 1 360.254 92.676 A 4.666 4.666 0 0 1 362.451 93.213 Q 363.477 93.75 364.648 93.75 A 4.201 4.201 0 0 0 365.081 93.729 Q 365.524 93.684 365.796 93.535 A 1.002 1.002 0 0 0 365.918 93.457 A 9.751 9.751 0 0 1 366.78 94.575 A 8.226 8.226 0 0 1 367.188 95.264 Q 367.676 96.192 368.457 96.973 A 4.459 4.459 0 0 1 368.024 98.171 A 3.69 3.69 0 0 1 367.236 99.17 A 6.872 6.872 0 0 1 365.503 100.293 A 8.055 8.055 0 0 1 365.039 100.488 Q 363.77 100.977 362.451 101.123 A 25.543 25.543 0 0 1 361.194 101.233 A 18.617 18.617 0 0 1 360.059 101.27 A 8.769 8.769 0 0 1 359.382 101.244 A 7.557 7.557 0 0 1 359.131 101.221 A 8.082 8.082 0 0 0 358.459 101.175 A 9.384 9.384 0 0 0 358.203 101.172 Q 357.816 101.172 357.736 101.479 A 0.719 0.719 0 0 0 357.715 101.66 A 0.747 0.747 0 0 1 357.655 101.967 Q 357.575 102.147 357.388 102.263 A 1.026 1.026 0 0 1 357.227 102.344 A 5.581 5.581 0 0 0 356.281 102.057 A 5.197 5.197 0 0 0 356.25 102.051 Q 355.762 101.953 355.273 101.953 A 8.738 8.738 0 0 0 354.075 102.033 A 7.998 7.998 0 0 0 353.955 102.051 A 8.314 8.314 0 0 1 353.032 102.142 A 7.259 7.259 0 0 1 352.734 102.149 Q 351.953 102.149 351.611 101.953 A 2.991 2.991 0 0 1 351.24 101.704 A 2.46 2.46 0 0 1 351.025 101.514 A 7.708 7.708 0 0 1 350.667 101.129 A 8.947 8.947 0 0 1 350.537 100.977 A 1.376 1.376 0 0 0 350.277 100.739 Q 350.079 100.598 349.805 100.488 Q 349.216 100.236 348.809 100.346 A 0.867 0.867 0 0 0 348.682 100.391 A 0.466 0.466 0 0 1 348.501 100.43 Q 348.084 100.439 347.384 99.823 A 6.228 6.228 0 0 1 347.363 99.805 Q 346.191 98.828 345.361 97.412 A 50.312 50.312 0 0 1 343.946 94.822 A 55.255 55.255 0 0 1 343.75 94.434 Q 342.969 92.871 342.09 91.309 A 12.846 12.846 0 0 0 340.546 89.116 A 11.544 11.544 0 0 0 340.039 88.574 Z M 309.18 41.309 L 309.473 41.309 A 6.865 6.865 0 0 1 308.203 43.653 L 306.543 45.703 Q 305.762 46.68 305.225 47.803 A 4.064 4.064 0 0 0 304.845 49.261 Q 304.804 49.798 304.883 50.391 A 2.025 2.025 0 0 1 304.73 50.384 Q 304.656 50.379 304.572 50.368 A 4.617 4.617 0 0 1 304.395 50.342 Q 304.198 50.309 304.045 50.298 A 1.981 1.981 0 0 0 303.906 50.293 A 5.359 5.359 0 0 0 303.001 50.365 Q 302.503 50.45 302.108 50.638 A 2.526 2.526 0 0 0 301.514 51.026 Q 300.684 51.758 299.316 52.246 Q 299.121 51.66 298.828 51.123 Q 298.535 50.586 297.949 50.391 Q 295.605 50.879 293.262 51.123 A 77.09 77.09 0 0 0 288.574 51.758 Q 287.5 51.953 286.426 52.295 A 36.559 36.559 0 0 1 284.471 52.856 A 40.548 40.548 0 0 1 284.18 52.93 Q 283.594 53.125 282.91 53.076 Q 282.227 53.028 281.543 53.125 A 95.764 95.764 0 0 0 279.102 53.259 A 121.213 121.213 0 0 0 276.465 53.467 A 12.158 12.158 0 0 0 273.276 54.173 A 10.652 10.652 0 0 0 271.582 54.981 A 18.995 18.995 0 0 0 269.931 54.728 A 21.434 21.434 0 0 0 269.531 54.688 Q 268.457 54.59 267.383 54.59 Q 265.039 54.59 262.256 55.029 Q 259.473 55.469 257.324 56.738 A 5.312 5.312 0 0 0 256.299 56.445 A 5.78 5.78 0 0 0 255.735 56.373 Q 255.445 56.349 255.121 56.348 A 9.47 9.47 0 0 0 255.078 56.348 A 1.257 1.257 0 0 0 254.976 56.352 Q 254.874 56.36 254.809 56.386 A 0.303 0.303 0 0 0 254.785 56.397 Q 254.697 56.441 254.529 56.445 A 1.452 1.452 0 0 1 254.492 56.445 Q 254.395 57.324 254.736 58.154 A 2.554 2.554 0 0 0 255.646 59.278 A 3.331 3.331 0 0 0 255.957 59.473 A 6.539 6.539 0 0 0 255.591 61.194 A 7.805 7.805 0 0 0 255.566 61.817 A 22.792 22.792 0 0 0 255.811 65.137 Q 256.055 66.797 256.055 68.457 A 11.524 11.524 0 0 1 256.007 69.541 Q 255.955 70.086 255.848 70.542 A 4.589 4.589 0 0 1 255.566 71.387 A 19.352 19.352 0 0 1 256.528 76.813 A 22.097 22.097 0 0 1 256.543 77.637 A 17.727 17.727 0 0 1 256.397 79.932 A 17.553 17.553 0 0 0 256.264 81.545 A 20.847 20.847 0 0 0 256.25 82.324 A 2.381 2.381 0 0 0 256.379 83.125 A 2.031 2.031 0 0 0 257.031 84.033 A 2.05 2.05 0 0 1 257.804 85.529 A 2.78 2.78 0 0 1 257.813 85.742 A 1.663 1.663 0 0 1 257.698 86.34 A 2.042 2.042 0 0 1 257.617 86.524 A 14.604 14.604 0 0 0 260.254 85.694 Q 261.523 85.156 262.891 85.156 Q 263.672 85.156 264.404 85.449 Q 265.137 85.742 265.723 86.231 A 8.546 8.546 0 0 0 265.628 86.811 A 10.961 10.961 0 0 0 265.576 87.305 A 14.105 14.105 0 0 0 265.527 88.477 A 42.593 42.593 0 0 0 265.54 89.514 A 34.26 34.26 0 0 0 265.576 90.479 A 47.285 47.285 0 0 0 265.637 91.443 A 59.145 59.145 0 0 0 265.723 92.481 A 12.565 12.565 0 0 1 264.059 94.77 A 11.68 11.68 0 0 1 263.916 94.922 A 5.439 5.439 0 0 0 262.774 96.757 A 6.99 6.99 0 0 0 262.5 97.656 A 5.751 5.751 0 0 0 261.08 97.825 A 4.727 4.727 0 0 0 259.912 98.291 A 19.469 19.469 0 0 0 257.874 99.613 A 17.988 17.988 0 0 0 257.813 99.658 A 35.528 35.528 0 0 1 255.859 101.026 Q 254.883 101.66 253.711 101.66 Q 252.562 101.66 251.953 101.39 A 1.508 1.508 0 0 1 251.66 101.221 A 4.189 4.189 0 0 1 251.218 100.841 Q 251.001 100.625 250.848 100.398 A 2.423 2.423 0 0 1 250.781 100.293 A 66.809 66.809 0 0 0 250.501 99.829 A 48.657 48.657 0 0 0 250.244 99.414 Q 250.024 99.063 249.37 99.107 A 2.646 2.646 0 0 0 249.219 99.121 Q 249.023 97.852 248.438 96.729 Q 247.852 95.606 247.217 94.531 Q 246.582 93.457 245.947 92.334 A 9.304 9.304 0 0 1 245.109 90.368 A 8.556 8.556 0 0 1 245.02 90.039 A 19.932 19.932 0 0 1 244.517 85.543 A 21.776 21.776 0 0 1 244.531 84.766 A 13.883 13.883 0 0 0 244.54 84.27 A 13.199 13.199 0 0 0 243.652 79.492 A 38.317 38.317 0 0 0 243.945 76.709 A 40.452 40.452 0 0 0 244.043 73.926 A 99.499 99.499 0 0 0 243.897 68.506 A 275.978 275.978 0 0 1 243.652 62.988 A 4.056 4.056 0 0 1 242.822 60.986 Q 242.676 59.863 242.578 58.789 A 10.92 10.92 0 0 0 242.111 58.35 A 12.367 12.367 0 0 0 241.943 58.203 A 1.301 1.301 0 0 1 241.54 57.57 A 1.673 1.673 0 0 1 241.504 57.422 Q 240.887 57.268 240.514 57.235 A 2.112 2.112 0 0 0 240.332 57.227 A 4.877 4.877 0 0 0 239.275 57.336 A 3.516 3.516 0 0 0 238.037 57.861 A 4.642 4.642 0 0 1 237.444 58.21 Q 236.853 58.496 236.328 58.496 A 5.542 5.542 0 0 1 235.278 58.4 A 4.846 4.846 0 0 1 234.863 58.301 A 4.956 4.956 0 0 0 233.496 58.106 A 2.15 2.15 0 0 0 233.295 58.114 Q 232.901 58.151 232.861 58.35 A 0.422 0.422 0 0 1 232.771 58.533 Q 232.66 58.67 232.422 58.789 Q 232.167 58.959 231.324 59.128 A 14.79 14.79 0 0 1 231.055 59.18 A 30.354 30.354 0 0 1 229.919 59.363 A 40.633 40.633 0 0 1 228.662 59.522 A 85.364 85.364 0 0 1 226.74 59.714 A 75.663 75.663 0 0 1 226.123 59.766 Q 224.902 59.863 224.512 59.863 A 6.166 6.166 0 0 1 223.607 59.801 Q 223.148 59.733 222.776 59.59 A 2.63 2.63 0 0 1 222.119 59.229 Q 221.548 58.792 220.816 58.287 A 51.729 51.729 0 0 0 220.117 57.813 A 9.713 9.713 0 0 0 220.193 57.575 Q 220.292 57.25 220.309 57.09 A 0.567 0.567 0 0 0 220.313 57.031 A 2.671 2.671 0 0 0 220.208 56.268 A 2.127 2.127 0 0 0 219.727 55.42 A 3.55 3.55 0 0 1 219.457 55.093 Q 219.197 54.734 219.151 54.427 A 0.871 0.871 0 0 1 219.141 54.297 A 2.214 2.214 0 0 1 219.262 53.546 A 1.871 1.871 0 0 1 219.971 52.637 Q 220.801 52.051 220.898 50.781 A 23.515 23.515 0 0 1 225.488 49.317 Q 227.832 48.828 230.273 48.535 Q 232.715 48.242 235.107 47.852 A 24.884 24.884 0 0 0 239.844 46.582 Q 240.527 46.68 241.162 46.729 A 16.956 16.956 0 0 0 242.3 46.777 A 18.872 18.872 0 0 0 242.48 46.778 Q 245.41 46.778 248.291 46.143 Q 251.172 45.508 254.199 45.508 Q 254.98 45.508 255.762 45.606 Q 256.543 45.703 257.324 45.899 A 296.812 296.812 0 0 0 265.088 44.629 Q 268.945 43.945 273.047 43.457 A 169.153 169.153 0 0 1 276.904 43.115 A 53.839 53.839 0 0 0 280.762 42.676 A 3.976 3.976 0 0 0 281.147 42.603 Q 281.536 42.507 281.771 42.346 A 1.128 1.128 0 0 0 281.787 42.334 A 0.66 0.66 0 0 0 281.995 42.076 Q 282.105 41.846 282.125 41.475 A 3.182 3.182 0 0 0 282.129 41.309 A 4.555 4.555 0 0 0 283.557 41.675 A 5.535 5.535 0 0 0 284.082 41.699 A 9.106 9.106 0 0 0 287.305 41.113 A 9.106 9.106 0 0 1 290.527 40.528 A 5.287 5.287 0 0 1 290.849 40.537 Q 290.996 40.546 291.126 40.564 A 2.925 2.925 0 0 1 291.211 40.576 A 3.558 3.558 0 0 0 291.797 40.625 A 1.079 1.079 0 0 0 292.074 40.593 Q 292.397 40.507 292.492 40.194 A 0.94 0.94 0 0 0 292.529 39.99 A 0.783 0.783 0 0 1 292.942 39.352 Q 293.084 39.267 293.274 39.209 A 2.334 2.334 0 0 1 293.457 39.16 A 5.527 5.527 0 0 1 293.935 39.049 Q 294.532 38.935 295.41 38.867 A 94.437 94.437 0 0 0 296.716 38.757 A 111.636 111.636 0 0 0 298.096 38.623 A 30.571 30.571 0 0 0 299.789 38.402 A 24.979 24.979 0 0 0 300.732 38.233 Q 301.932 37.993 302.518 37.517 A 1.983 1.983 0 0 0 302.539 37.5 L 303.223 36.426 A 3.589 3.589 0 0 1 304.366 36.666 A 2.9 2.9 0 0 1 305.811 37.94 Q 306.641 39.356 306.738 41.016 Q 307.124 41.401 307.841 41.359 A 2.564 2.564 0 0 0 307.861 41.358 A 23.75 23.75 0 0 1 308.537 41.322 Q 308.856 41.31 309.142 41.309 A 14.208 14.208 0 0 1 309.18 41.309 Z M 564.941 41.309 L 565.234 41.309 A 6.865 6.865 0 0 1 563.965 43.653 L 562.305 45.703 Q 561.523 46.68 560.986 47.803 A 4.064 4.064 0 0 0 560.606 49.261 Q 560.565 49.798 560.645 50.391 A 2.025 2.025 0 0 1 560.492 50.384 Q 560.418 50.379 560.334 50.368 A 4.617 4.617 0 0 1 560.156 50.342 Q 559.959 50.309 559.807 50.298 A 1.981 1.981 0 0 0 559.668 50.293 A 5.359 5.359 0 0 0 558.763 50.365 Q 558.265 50.45 557.869 50.638 A 2.526 2.526 0 0 0 557.275 51.026 Q 556.445 51.758 555.078 52.246 Q 554.883 51.66 554.59 51.123 Q 554.297 50.586 553.711 50.391 Q 551.367 50.879 549.023 51.123 A 77.09 77.09 0 0 0 544.336 51.758 Q 543.262 51.953 542.188 52.295 A 36.559 36.559 0 0 1 540.233 52.856 A 40.548 40.548 0 0 1 539.941 52.93 Q 539.355 53.125 538.672 53.076 Q 537.988 53.028 537.305 53.125 A 95.764 95.764 0 0 0 534.863 53.259 A 121.213 121.213 0 0 0 532.227 53.467 A 12.158 12.158 0 0 0 529.037 54.173 A 10.652 10.652 0 0 0 527.344 54.981 A 18.995 18.995 0 0 0 525.692 54.728 A 21.434 21.434 0 0 0 525.293 54.688 Q 524.219 54.59 523.145 54.59 Q 520.801 54.59 518.018 55.029 Q 515.234 55.469 513.086 56.738 A 5.312 5.312 0 0 0 512.061 56.445 A 5.78 5.78 0 0 0 511.496 56.373 Q 511.206 56.349 510.883 56.348 A 9.47 9.47 0 0 0 510.84 56.348 A 1.257 1.257 0 0 0 510.738 56.352 Q 510.636 56.36 510.57 56.386 A 0.303 0.303 0 0 0 510.547 56.397 Q 510.459 56.441 510.291 56.445 A 1.452 1.452 0 0 1 510.254 56.445 Q 510.156 57.324 510.498 58.154 A 2.554 2.554 0 0 0 511.408 59.278 A 3.331 3.331 0 0 0 511.719 59.473 A 6.539 6.539 0 0 0 511.353 61.194 A 7.805 7.805 0 0 0 511.328 61.817 A 22.792 22.792 0 0 0 511.572 65.137 Q 511.816 66.797 511.816 68.457 A 11.524 11.524 0 0 1 511.769 69.541 Q 511.717 70.086 511.61 70.542 A 4.589 4.589 0 0 1 511.328 71.387 A 19.352 19.352 0 0 1 512.289 76.813 A 22.097 22.097 0 0 1 512.305 77.637 A 17.727 17.727 0 0 1 512.158 79.932 A 17.553 17.553 0 0 0 512.026 81.545 A 20.847 20.847 0 0 0 512.012 82.324 A 2.381 2.381 0 0 0 512.141 83.125 A 2.031 2.031 0 0 0 512.793 84.033 A 2.05 2.05 0 0 1 513.566 85.529 A 2.78 2.78 0 0 1 513.574 85.742 A 1.663 1.663 0 0 1 513.46 86.34 A 2.042 2.042 0 0 1 513.379 86.524 A 14.604 14.604 0 0 0 516.016 85.694 Q 517.285 85.156 518.652 85.156 Q 519.434 85.156 520.166 85.449 Q 520.898 85.742 521.484 86.231 A 8.546 8.546 0 0 0 521.39 86.811 A 10.961 10.961 0 0 0 521.338 87.305 A 14.105 14.105 0 0 0 521.289 88.477 A 42.593 42.593 0 0 0 521.301 89.514 A 34.26 34.26 0 0 0 521.338 90.479 A 47.285 47.285 0 0 0 521.399 91.443 A 59.145 59.145 0 0 0 521.484 92.481 A 12.565 12.565 0 0 1 519.821 94.77 A 11.68 11.68 0 0 1 519.678 94.922 A 5.439 5.439 0 0 0 518.536 96.757 A 6.99 6.99 0 0 0 518.262 97.656 A 5.751 5.751 0 0 0 516.842 97.825 A 4.727 4.727 0 0 0 515.674 98.291 A 19.469 19.469 0 0 0 513.635 99.613 A 17.988 17.988 0 0 0 513.574 99.658 A 35.528 35.528 0 0 1 511.621 101.026 Q 510.645 101.66 509.473 101.66 Q 508.323 101.66 507.715 101.39 A 1.508 1.508 0 0 1 507.422 101.221 A 4.189 4.189 0 0 1 506.98 100.841 Q 506.762 100.625 506.61 100.398 A 2.423 2.423 0 0 1 506.543 100.293 A 66.809 66.809 0 0 0 506.262 99.829 A 48.657 48.657 0 0 0 506.006 99.414 Q 505.786 99.063 505.131 99.107 A 2.646 2.646 0 0 0 504.98 99.121 Q 504.785 97.852 504.199 96.729 Q 503.613 95.606 502.979 94.531 Q 502.344 93.457 501.709 92.334 A 9.304 9.304 0 0 1 500.87 90.368 A 8.556 8.556 0 0 1 500.781 90.039 A 19.932 19.932 0 0 1 500.279 85.543 A 21.776 21.776 0 0 1 500.293 84.766 A 13.883 13.883 0 0 0 500.302 84.27 A 13.199 13.199 0 0 0 499.414 79.492 A 38.317 38.317 0 0 0 499.707 76.709 A 40.452 40.452 0 0 0 499.805 73.926 A 99.499 99.499 0 0 0 499.658 68.506 A 275.978 275.978 0 0 1 499.414 62.988 A 4.056 4.056 0 0 1 498.584 60.986 Q 498.438 59.863 498.34 58.789 A 10.92 10.92 0 0 0 497.873 58.35 A 12.367 12.367 0 0 0 497.705 58.203 A 1.301 1.301 0 0 1 497.302 57.57 A 1.673 1.673 0 0 1 497.266 57.422 Q 496.649 57.268 496.275 57.235 A 2.112 2.112 0 0 0 496.094 57.227 A 4.877 4.877 0 0 0 495.037 57.336 A 3.516 3.516 0 0 0 493.799 57.861 A 4.642 4.642 0 0 1 493.206 58.21 Q 492.615 58.496 492.09 58.496 A 5.542 5.542 0 0 1 491.04 58.4 A 4.846 4.846 0 0 1 490.625 58.301 A 4.956 4.956 0 0 0 489.258 58.106 A 2.15 2.15 0 0 0 489.057 58.114 Q 488.663 58.151 488.623 58.35 A 0.422 0.422 0 0 1 488.533 58.533 Q 488.422 58.67 488.184 58.789 Q 487.929 58.959 487.086 59.128 A 14.79 14.79 0 0 1 486.816 59.18 A 30.354 30.354 0 0 1 485.681 59.363 A 40.633 40.633 0 0 1 484.424 59.522 A 85.364 85.364 0 0 1 482.501 59.714 A 75.663 75.663 0 0 1 481.885 59.766 Q 480.664 59.863 480.273 59.863 A 6.166 6.166 0 0 1 479.368 59.801 Q 478.91 59.733 478.538 59.59 A 2.63 2.63 0 0 1 477.881 59.229 Q 477.31 58.792 476.578 58.287 A 51.729 51.729 0 0 0 475.879 57.813 A 9.713 9.713 0 0 0 475.955 57.575 Q 476.054 57.25 476.071 57.09 A 0.567 0.567 0 0 0 476.074 57.031 A 2.671 2.671 0 0 0 475.97 56.268 A 2.127 2.127 0 0 0 475.488 55.42 A 3.55 3.55 0 0 1 475.218 55.093 Q 474.959 54.734 474.912 54.427 A 0.871 0.871 0 0 1 474.902 54.297 A 2.214 2.214 0 0 1 475.024 53.546 A 1.871 1.871 0 0 1 475.732 52.637 Q 476.563 52.051 476.66 50.781 A 23.515 23.515 0 0 1 481.25 49.317 Q 483.594 48.828 486.035 48.535 Q 488.477 48.242 490.869 47.852 A 24.884 24.884 0 0 0 495.605 46.582 Q 496.289 46.68 496.924 46.729 A 16.956 16.956 0 0 0 498.061 46.777 A 18.872 18.872 0 0 0 498.242 46.778 Q 501.172 46.778 504.053 46.143 Q 506.934 45.508 509.961 45.508 Q 510.742 45.508 511.523 45.606 Q 512.305 45.703 513.086 45.899 A 296.812 296.812 0 0 0 520.85 44.629 Q 524.707 43.945 528.809 43.457 A 169.153 169.153 0 0 1 532.666 43.115 A 53.839 53.839 0 0 0 536.523 42.676 A 3.976 3.976 0 0 0 536.908 42.603 Q 537.298 42.507 537.533 42.346 A 1.128 1.128 0 0 0 537.549 42.334 A 0.66 0.66 0 0 0 537.757 42.076 Q 537.867 41.846 537.886 41.475 A 3.182 3.182 0 0 0 537.891 41.309 A 4.555 4.555 0 0 0 539.319 41.675 A 5.535 5.535 0 0 0 539.844 41.699 A 9.106 9.106 0 0 0 543.066 41.113 A 9.106 9.106 0 0 1 546.289 40.528 A 5.287 5.287 0 0 1 546.611 40.537 Q 546.758 40.546 546.888 40.564 A 2.925 2.925 0 0 1 546.973 40.576 A 3.558 3.558 0 0 0 547.559 40.625 A 1.079 1.079 0 0 0 547.836 40.593 Q 548.158 40.507 548.254 40.194 A 0.94 0.94 0 0 0 548.291 39.99 A 0.783 0.783 0 0 1 548.703 39.352 Q 548.845 39.267 549.036 39.209 A 2.334 2.334 0 0 1 549.219 39.16 A 5.527 5.527 0 0 1 549.696 39.049 Q 550.294 38.935 551.172 38.867 A 94.437 94.437 0 0 0 552.478 38.757 A 111.636 111.636 0 0 0 553.857 38.623 A 30.571 30.571 0 0 0 555.551 38.402 A 24.979 24.979 0 0 0 556.494 38.233 Q 557.693 37.993 558.28 37.517 A 1.983 1.983 0 0 0 558.301 37.5 L 558.984 36.426 A 3.589 3.589 0 0 1 560.128 36.666 A 2.9 2.9 0 0 1 561.572 37.94 Q 562.402 39.356 562.5 41.016 Q 562.885 41.401 563.603 41.359 A 2.564 2.564 0 0 0 563.623 41.358 A 23.75 23.75 0 0 1 564.298 41.322 Q 564.618 41.31 564.904 41.309 A 14.208 14.208 0 0 1 564.941 41.309 Z M 612.695 55.957 L 612.695 57.422 A 5.942 5.942 0 0 1 612.295 58.442 A 6.983 6.983 0 0 1 612.109 58.789 A 6.487 6.487 0 0 0 611.665 59.729 A 5.592 5.592 0 0 0 611.523 60.156 A 20.672 20.672 0 0 0 610.205 66.014 A 19.142 19.142 0 0 0 610.156 67.383 L 610.156 67.578 Q 609.668 68.75 609.229 69.727 A 86.437 86.437 0 0 0 608.497 71.398 A 78.657 78.657 0 0 0 608.398 71.631 A 9.69 9.69 0 0 0 607.813 73.584 A 7.221 7.221 0 0 0 607.707 74.401 Q 607.661 75.02 607.7 75.737 A 13.542 13.542 0 0 0 607.715 75.977 A 24.004 24.004 0 0 1 604.102 82.178 A 155.818 155.818 0 0 0 599.707 87.891 A 15.556 15.556 0 0 0 595.947 89.942 A 29.534 29.534 0 0 0 592.676 92.774 A 65.711 65.711 0 0 0 586.719 95.02 Q 583.789 96.289 581.445 98.438 A 36.604 36.604 0 0 0 577.734 99.024 Q 575.879 99.414 574.121 100.195 L 572.949 100.195 Q 572.431 100.195 572.082 100.06 A 1.152 1.152 0 0 1 571.68 99.805 Q 570.41 100.488 569.043 100.733 Q 567.676 100.977 566.309 100.977 Q 564.551 100.977 562.842 100.733 Q 561.133 100.488 559.375 100.195 A 5.879 5.879 0 0 0 557.471 98.502 A 7.483 7.483 0 0 0 556.641 98.096 A 59.438 59.438 0 0 1 555.029 97.398 Q 554.271 97.055 553.604 96.724 A 36.118 36.118 0 0 1 553.516 96.68 Q 550.731 92.838 549.457 89.233 A 21.611 21.611 0 0 1 549.414 89.111 A 168.361 168.361 0 0 1 548.12 85.217 A 231.094 231.094 0 0 1 546.777 80.86 A 13.011 13.011 0 0 1 547.461 78.174 Q 547.868 77.075 547.868 75.807 A 8.24 8.24 0 0 0 547.852 75.293 A 38.096 38.096 0 0 1 551.874 66.984 A 35.323 35.323 0 0 1 552.49 66.065 A 62.383 62.383 0 0 1 559.082 58.106 A 2.327 2.327 0 0 1 559.119 57.678 Q 559.167 57.42 559.278 57.213 A 1.387 1.387 0 0 1 559.326 57.129 Q 559.57 56.738 559.375 55.957 Q 559.454 56.036 559.662 56.051 A 1.449 1.449 0 0 0 559.766 56.055 Q 560.547 56.055 560.742 55.615 Q 560.917 55.222 560.857 54.71 A 2.534 2.534 0 0 0 560.84 54.59 Q 564.355 52.344 567.236 49.414 A 26.47 26.47 0 0 1 573.828 44.531 A 3.239 3.239 0 0 1 574.805 43.067 A 4.35 4.35 0 0 0 575.879 41.699 A 18.82 18.82 0 0 0 581.543 39.063 A 39.871 39.871 0 0 1 586.914 35.938 Q 588.47 35.062 589.881 34.72 A 8.833 8.833 0 0 1 589.893 34.717 A 489.728 489.728 0 0 1 591.37 34.363 A 620.231 620.231 0 0 1 592.969 33.985 A 10.623 10.623 0 0 1 593.522 33.816 Q 593.791 33.742 594.035 33.693 A 6.765 6.765 0 0 1 594.043 33.692 A 4.931 4.931 0 0 1 594.623 33.613 A 6.304 6.304 0 0 1 595.117 33.594 Q 596.875 33.594 598.535 34.229 Q 600.195 34.863 601.953 34.863 Q 602.327 34.863 602.615 34.835 A 3.962 3.962 0 0 0 602.783 34.815 A 6.575 6.575 0 0 0 603.183 34.744 A 8.278 8.278 0 0 0 603.516 34.668 Q 605.176 36.719 607.715 37.793 A 11.629 11.629 0 0 0 608.451 39.317 A 9.28 9.28 0 0 0 609.131 40.332 Q 609.961 41.406 610.84 42.432 Q 611.719 43.457 612.451 44.678 A 6.538 6.538 0 0 1 613.157 46.375 A 8.471 8.471 0 0 1 613.379 47.559 Q 612.793 48.438 612.695 49.512 A 25.302 25.302 0 0 0 612.622 50.537 A 18.615 18.615 0 0 0 612.598 51.465 A 52.844 52.844 0 0 0 612.647 53.76 A 50.599 50.599 0 0 1 612.695 55.957 Z M 584.277 50.781 L 582.52 50.781 Q 581.934 51.856 580.859 52.393 Q 579.785 52.93 579.004 53.906 A 14.258 14.258 0 0 0 576.123 55.811 Q 574.805 56.934 573.535 58.154 Q 572.266 59.375 571.045 60.645 A 25.103 25.103 0 0 1 568.457 62.988 A 29.828 29.828 0 0 1 567.126 65.54 A 22.625 22.625 0 0 1 565.674 67.725 A 65.011 65.011 0 0 0 562.842 71.778 A 24.708 24.708 0 0 0 560.596 76.221 Q 559.668 78.613 559.668 82.129 L 559.668 83.106 Q 559.668 83.594 559.766 84.082 Q 561.035 85.449 561.865 87.012 A 4.447 4.447 0 0 0 563.69 88.833 A 6.196 6.196 0 0 0 564.648 89.258 A 9.777 9.777 0 0 0 568.314 89.952 A 10.928 10.928 0 0 0 568.799 89.942 A 14.071 14.071 0 0 1 569.424 89.928 A 13.124 13.124 0 0 1 573.047 90.43 Q 577.734 89.551 582.08 87.549 A 48.852 48.852 0 0 0 590.332 82.715 A 15.803 15.803 0 0 1 590.964 82.217 Q 591.296 81.967 591.675 81.706 A 25.112 25.112 0 0 1 591.699 81.69 A 7.44 7.44 0 0 0 592.367 81.175 Q 592.688 80.896 592.936 80.605 A 4.584 4.584 0 0 0 592.969 80.567 A 5.269 5.269 0 0 0 593.799 79.492 A 9.094 9.094 0 0 1 594.375 78.621 A 8.07 8.07 0 0 1 594.531 78.418 A 29.256 29.256 0 0 1 596.018 76.236 A 32.628 32.628 0 0 1 596.289 75.879 A 24.015 24.015 0 0 1 598.34 73.535 Q 598.828 71.387 599.609 69.385 A 503.981 503.981 0 0 1 601.172 65.43 A 33.887 33.887 0 0 0 602.49 61.426 A 16.795 16.795 0 0 0 603.025 57.409 A 18.635 18.635 0 0 0 603.027 57.129 A 11.31 11.31 0 0 0 603.015 56.616 A 14.941 14.941 0 0 0 602.979 56.055 Q 602.93 55.469 602.832 54.981 A 3.901 3.901 0 0 0 603.613 52.637 A 4.204 4.204 0 0 0 603.589 52.173 A 3.142 3.142 0 0 0 603.516 51.758 Q 602.539 51.465 601.66 50.977 A 3.92 3.92 0 0 0 599.849 50.491 A 4.643 4.643 0 0 0 599.707 50.488 A 3.373 3.373 0 0 0 598.553 50.697 A 3.966 3.966 0 0 0 598.34 50.781 Q 598.266 50.265 597.997 49.971 A 1.061 1.061 0 0 0 597.803 49.805 A 6.568 6.568 0 0 0 597.152 49.425 A 7.771 7.771 0 0 0 596.826 49.268 A 7.166 7.166 0 0 0 595.819 48.896 A 6.606 6.606 0 0 0 595.752 48.877 A 2.054 2.054 0 0 1 594.824 48.34 A 52.979 52.979 0 0 0 594.357 47.141 A 59.086 59.086 0 0 0 594.189 46.729 A 2.219 2.219 0 0 0 593.077 45.559 A 2.897 2.897 0 0 0 592.969 45.508 Q 592.09 46.387 590.918 46.924 Q 589.746 47.461 588.525 47.949 Q 587.305 48.438 586.182 49.121 A 7.219 7.219 0 0 0 584.277 50.781 Z M 86.914 49.707 L 86.816 49.219 A 10.218 10.218 0 0 1 86.983 48.624 Q 87.071 48.346 87.167 48.108 A 5.26 5.26 0 0 1 87.256 47.901 A 4.072 4.072 0 0 0 87.499 47.192 A 5.189 5.189 0 0 0 87.598 46.68 Q 87.696 46.141 87.572 45.749 A 1.204 1.204 0 0 0 87.109 45.117 A 2.012 2.012 0 0 1 87.377 44.616 A 1.494 1.494 0 0 1 88.086 44.092 A 1.099 1.099 0 0 0 88.782 43.369 A 1.897 1.897 0 0 0 88.867 42.969 A 1.605 1.605 0 0 0 88.916 42.578 A 1.605 1.605 0 0 0 88.867 42.188 A 23.36 23.36 0 0 1 90.479 41.651 A 3.284 3.284 0 0 1 91.19 41.521 Q 91.288 41.515 91.386 41.515 A 2.892 2.892 0 0 1 92.09 41.602 A 5.985 5.985 0 0 1 93.562 42.018 A 5.218 5.218 0 0 1 94.336 42.432 A 15.526 15.526 0 0 1 96.191 43.848 A 25.996 25.996 0 0 1 97.507 52.123 A 29.226 29.226 0 0 1 97.461 53.76 A 144.629 144.629 0 0 1 96.484 64.258 A 115.109 115.109 0 0 0 95.618 74.246 A 106.162 106.162 0 0 0 95.605 74.561 Q 95.444 78.724 96.62 82.385 A 20.657 20.657 0 0 0 97.168 83.887 L 97.363 83.985 Q 97.852 84.082 98.145 83.643 Q 98.424 83.223 98.882 83.293 A 0.976 0.976 0 0 1 98.926 83.301 A 6.903 6.903 0 0 0 99.062 83.367 Q 99.33 83.494 99.411 83.496 A 0.104 0.104 0 0 0 99.414 83.496 A 14.71 14.71 0 0 0 100.684 87.207 Q 101.563 88.965 102.637 90.723 A 6.957 6.957 0 0 1 101.465 92.139 A 16.084 16.084 0 0 0 100.195 93.457 Q 99.512 93.75 98.682 93.75 A 25.23 25.23 0 0 1 97.682 93.731 A 20.964 20.964 0 0 1 97.119 93.701 Q 96.387 93.653 95.752 93.701 A 1.854 1.854 0 0 0 95.26 93.803 A 1.438 1.438 0 0 0 94.727 94.141 Q 93.945 93.945 93.555 93.408 A 1.338 1.338 0 0 0 93.044 92.994 Q 92.837 92.893 92.574 92.834 A 3.265 3.265 0 0 0 92.188 92.774 A 1.605 1.605 0 0 0 91.797 92.725 A 1.605 1.605 0 0 0 91.406 92.774 Q 89.941 91.113 88.721 89.258 Q 87.5 87.403 86.426 85.742 Q 86.328 82.129 85.84 78.418 Q 85.742 77.539 85.547 76.66 A 19.335 19.335 0 0 1 85.341 75.6 A 15.799 15.799 0 0 1 85.254 75 A 12.193 12.193 0 0 1 85.4 73.096 A 61.368 61.368 0 0 0 85.535 72.205 A 47.116 47.116 0 0 0 85.645 71.387 Q 86.035 68.555 86.523 65.82 Q 87.012 63.086 87.402 60.254 A 34.198 34.198 0 0 0 87.779 55.967 A 38.702 38.702 0 0 0 87.793 54.932 A 15.632 15.632 0 0 0 87.235 50.713 A 14.358 14.358 0 0 0 86.914 49.707 Z M 332.324 57.031 L 332.324 56.738 A 5.592 5.592 0 0 1 331.265 54.985 A 6.867 6.867 0 0 1 331.055 54.346 A 90.511 90.511 0 0 1 330.322 51.514 A 16.185 16.185 0 0 0 329.7 49.5 A 14.224 14.224 0 0 0 329.443 48.877 A 4.588 4.588 0 0 0 327.807 46.924 A 5.475 5.475 0 0 0 327.734 46.875 A 2.729 2.729 0 0 0 327.484 47.673 A 3.631 3.631 0 0 0 327.441 48.242 A 5.609 5.609 0 0 0 327.499 49.059 A 4.668 4.668 0 0 0 327.588 49.512 A 4.922 4.922 0 0 1 327.719 50.354 A 5.964 5.964 0 0 1 327.734 50.781 A 2.924 2.924 0 0 0 326.318 52.295 Q 325.879 53.32 324.902 53.906 Q 324.121 57.031 322.656 59.815 Q 321.191 62.598 319.58 65.332 Q 317.969 68.067 316.504 70.85 Q 315.039 73.633 314.16 76.66 A 4.581 4.581 0 0 0 313.02 77.768 A 4.131 4.131 0 0 0 312.451 78.906 A 8.892 8.892 0 0 0 312.012 81.641 A 4.28 4.28 0 0 0 313.501 82.131 A 5.255 5.255 0 0 0 314.014 82.178 A 50.599 50.599 0 0 0 316.211 82.227 A 10.662 10.662 0 0 1 317.892 82.356 A 9.576 9.576 0 0 1 318.262 82.422 A 3.295 3.295 0 0 1 319.732 83.137 A 4.143 4.143 0 0 1 320.02 83.399 A 13.035 13.035 0 0 1 321.702 83.006 A 16.013 16.013 0 0 1 322.803 82.861 A 6.539 6.539 0 0 0 323.939 82.655 Q 324.588 82.473 325.102 82.157 A 3.866 3.866 0 0 0 325.293 82.031 A 12.367 12.367 0 0 0 328.797 82.698 A 14.328 14.328 0 0 0 329.492 82.715 A 13.37 13.37 0 0 0 331.787 82.52 A 23.928 23.928 0 0 0 333.984 82.031 Q 334.661 82.182 335.106 82.477 A 2.103 2.103 0 0 1 335.352 82.666 A 1.313 1.313 0 0 0 335.868 82.947 Q 336.217 83.049 336.686 83.019 A 3.748 3.748 0 0 0 336.816 83.008 A 2.237 2.237 0 0 0 337.095 82.746 Q 337.235 82.588 337.316 82.423 A 1.098 1.098 0 0 0 337.402 82.178 A 1.502 1.502 0 0 1 337.622 81.673 A 2.106 2.106 0 0 1 337.891 81.348 Q 337.729 79.97 337.398 79.232 A 2.595 2.595 0 0 0 337.256 78.955 Q 336.878 78.326 336.609 77.444 A 10.144 10.144 0 0 1 336.523 77.149 A 15.541 15.541 0 0 1 336.075 74.991 A 18.098 18.098 0 0 1 335.986 74.219 A 29.444 29.444 0 0 0 335.547 71.192 A 162.42 162.42 0 0 0 334.033 64.551 Q 333.203 61.231 331.934 58.106 Q 332.207 57.695 332.289 57.332 A 1.364 1.364 0 0 0 332.324 57.031 Z" vector-effect="non-scaling-stroke"/></g></svg>