<svg width="98.145" height="118.36" viewBox="0 0 98.145 118.36" xmlns="http://www.w3.org/2000/svg"><g id="svgGroup" stroke-linecap="round" fill-rule="evenodd" font-size="9pt" stroke="#0d1706" stroke-width="0.25mm" fill="#0d1706" style="stroke:#0d1706;stroke-width:0.25mm;fill:#0d1706"><path d="M 20.313 117.383 L 18.262 116.699 A 9.701 9.701 0 0 0 16.965 116.409 A 12.052 12.052 0 0 0 16.113 116.309 A 17.276 17.276 0 0 0 15.182 115.54 Q 14.71 115.177 14.17 114.804 A 28.124 28.124 0 0 0 14.014 114.697 A 4.003 4.003 0 0 0 13.313 114.312 Q 12.455 113.952 11.621 114.16 Q 11.133 112.696 10.156 111.621 Q 9.18 110.547 7.91 109.668 A 3.931 3.931 0 0 0 7.286 109.331 A 4.278 4.278 0 0 0 7.275 109.326 A 2.246 2.246 0 0 1 7.031 109.204 Q 6.911 109.135 6.818 109.057 A 1.19 1.19 0 0 1 6.738 108.985 Q 6.25 108.692 5.859 107.813 A 3.176 3.176 0 0 0 5.685 107.473 Q 5.48 107.13 5.251 107.005 A 0.559 0.559 0 0 0 4.98 106.934 Q 4.892 106.934 4.764 107.013 A 1.057 1.057 0 0 0 4.736 107.031 Q 4.59 107.129 4.492 107.129 A 8.161 8.161 0 0 0 3.906 105.42 A 1.757 1.757 0 0 0 2.788 104.458 A 2.466 2.466 0 0 0 2.539 104.395 A 28.255 28.255 0 0 1 1.465 99.317 Q 1.172 96.778 0.684 94.238 Q 0.549 93.701 0.392 93.003 A 91.848 91.848 0 0 1 0.244 92.334 Q 0 91.211 0 90.332 A 12.173 12.173 0 0 1 0.062 89.151 Q 0.125 88.51 0.251 87.783 A 25.468 25.468 0 0 1 0.439 86.817 A 182.44 182.44 0 0 0 0.796 85.116 Q 0.954 84.341 1.087 83.652 A 100.045 100.045 0 0 0 1.172 83.203 A 77.306 77.306 0 0 1 4.297 72.217 A 194.296 194.296 0 0 1 8.545 61.621 Q 10.84 56.348 13.281 51.172 A 190.917 190.917 0 0 0 17.871 40.625 A 1.203 1.203 0 0 0 18.033 40.615 Q 18.284 40.581 18.359 40.43 L 18.652 39.942 Q 18.787 39.74 18.898 39.585 A 7.445 7.445 0 0 1 18.994 39.453 A 0.379 0.379 0 0 1 19.135 39.342 Q 19.308 39.258 19.629 39.258 L 19.629 38.965 Q 19.531 38.379 19.873 37.988 Q 20.195 37.621 20.04 36.82 A 3.657 3.657 0 0 0 20.02 36.719 A 17.459 17.459 0 0 0 22.656 32.764 A 180.728 180.728 0 0 1 24.854 28.418 A 66.523 66.523 0 0 1 27.246 24.219 A 12.751 12.751 0 0 1 30.469 20.703 L 30.469 20.02 Q 30.384 19.596 30.483 19.134 A 2.679 2.679 0 0 1 30.518 18.994 A 1.182 1.182 0 0 1 30.689 18.621 A 1.012 1.012 0 0 1 31.152 18.262 A 25.977 25.977 0 0 0 32.922 16.312 A 20.337 20.337 0 0 0 34.082 14.746 A 130.624 130.624 0 0 1 36.475 11.279 Q 37.695 9.571 39.209 8.057 A 14.136 14.136 0 0 1 40.991 6.561 Q 41.931 5.889 43.066 5.274 A 3.385 3.385 0 0 0 44.018 4.64 A 3.001 3.001 0 0 0 44.629 3.809 A 3.732 3.732 0 0 1 45.046 3.147 Q 45.382 2.726 45.809 2.489 A 2.331 2.331 0 0 1 45.898 2.442 Q 46.289 2.246 46.729 2.197 Q 47.168 2.149 47.559 1.953 A 27.332 27.332 0 0 0 50.879 0.733 A 8.614 8.614 0 0 1 54.395 0 A 6.644 6.644 0 0 1 55.796 0.139 Q 56.674 0.328 57.331 0.777 A 3.688 3.688 0 0 1 57.959 1.319 A 9.661 9.661 0 0 1 59.542 3.652 A 11.571 11.571 0 0 1 59.912 4.492 A 28.705 28.705 0 0 1 61.102 8.271 A 31.343 31.343 0 0 1 61.133 8.399 A 10.801 10.801 0 0 0 61.816 10.411 A 8.616 8.616 0 0 0 62.695 11.914 Q 65.625 12.11 68.652 12.549 Q 71.68 12.988 73.926 15.039 A 0.86 0.86 0 0 0 74.13 15.109 Q 74.258 15.137 74.414 15.137 A 0.896 0.896 0 0 0 74.592 15.121 Q 74.902 15.058 74.902 14.746 Q 74.902 14.356 75.391 14.356 L 75.684 14.356 A 55.308 55.308 0 0 1 81.299 18.213 A 163.55 163.55 0 0 1 86.621 22.559 A 11.664 11.664 0 0 0 87.646 23.291 A 3.772 3.772 0 0 1 88.574 24.121 A 8.182 8.182 0 0 1 89.108 24.842 A 10.437 10.437 0 0 1 89.502 25.488 A 25.827 25.827 0 0 0 89.903 26.178 Q 90.097 26.499 90.28 26.777 A 15.041 15.041 0 0 0 90.332 26.856 A 54.779 54.779 0 0 1 96.875 45.117 Q 97.07 46.192 97.217 47.168 A 13.306 13.306 0 0 1 97.346 48.408 A 11.177 11.177 0 0 1 97.363 49.024 A 3.059 3.059 0 0 0 97.384 49.395 Q 97.453 49.959 97.754 50.147 A 0.709 0.709 0 0 1 98.021 50.463 Q 98.135 50.711 98.144 51.102 A 2.983 2.983 0 0 1 98.145 51.172 Q 98.145 56.738 97.412 61.963 A 98.242 98.242 0 0 1 95.313 72.559 A 4.334 4.334 0 0 0 94.275 73.677 A 3.88 3.88 0 0 0 93.75 75 Q 93.457 76.465 92.773 77.735 A 13.135 13.135 0 0 1 92.138 78.774 Q 91.784 79.3 91.347 79.858 A 22.343 22.343 0 0 1 91.211 80.029 Q 90.234 81.25 89.063 82.569 A 197.864 197.864 0 0 0 86.719 85.254 A 19.249 19.249 0 0 0 85.436 86.92 A 15.746 15.746 0 0 0 84.766 87.988 A 6.484 6.484 0 0 0 80.98 91.28 A 9.241 9.241 0 0 0 80.566 92.188 A 59.563 59.563 0 0 0 78.168 93.149 A 67.498 67.498 0 0 0 77.344 93.506 A 4.302 4.302 0 0 0 75.022 95.942 A 5.509 5.509 0 0 0 75 95.996 Q 71.387 97.852 68.213 100.244 A 39.462 39.462 0 0 1 61.328 104.395 A 3.195 3.195 0 0 1 60.205 105.127 A 21.132 21.132 0 0 0 58.936 105.664 A 5.448 5.448 0 0 0 57.764 106.397 A 1.718 1.718 0 0 0 57.129 107.52 A 1.637 1.637 0 0 1 56.949 107.511 Q 56.765 107.49 56.657 107.424 A 0.351 0.351 0 0 1 56.592 107.373 A 0.468 0.468 0 0 0 56.49 107.299 Q 56.317 107.201 55.961 107.13 A 4.082 4.082 0 0 0 55.957 107.129 Q 54.884 107.714 54.98 108.981 A 2.887 2.887 0 0 0 54.98 108.985 Q 54.705 108.847 54.283 108.806 A 3.947 3.947 0 0 0 53.906 108.789 A 3.924 3.924 0 0 0 52.211 109.184 A 5.075 5.075 0 0 0 51.611 109.522 A 13.651 13.651 0 0 0 50.574 110.266 A 10.198 10.198 0 0 0 49.707 111.035 A 26.639 26.639 0 0 1 48.45 111.621 Q 47.778 111.914 47.021 112.207 A 4.247 4.247 0 0 0 45.698 113.004 A 3.861 3.861 0 0 0 44.824 114.16 Q 44.434 113.77 43.652 113.77 A 3.272 3.272 0 0 0 42.691 113.921 Q 42.309 114.038 41.911 114.246 A 5.709 5.709 0 0 0 41.797 114.307 Q 40.988 114.752 40.514 115.298 A 3.088 3.088 0 0 0 40.332 115.528 A 7.59 7.59 0 0 0 37.782 115.953 A 7.268 7.268 0 0 0 37.744 115.967 A 214.55 214.55 0 0 1 35.254 116.846 A 111.549 111.549 0 0 1 32.764 117.676 A 8.371 8.371 0 0 1 30.389 118.064 A 9.452 9.452 0 0 1 30.176 118.067 A 2.49 2.49 0 0 1 29.736 118.03 Q 29.495 117.987 29.306 117.892 A 1.158 1.158 0 0 1 29.004 117.676 A 3.35 3.35 0 0 0 28.472 117.247 A 4.36 4.36 0 0 0 28.027 116.992 Q 27.539 117.383 26.318 117.871 A 12.636 12.636 0 0 1 25.748 118.085 Q 24.951 118.36 24.512 118.36 A 7.605 7.605 0 0 1 22.412 118.067 Q 21.387 117.774 20.313 117.383 Z M 90.43 47.071 L 90.43 46.582 L 89.258 44.434 A 9.39 9.39 0 0 0 88.944 42.579 A 8.264 8.264 0 0 0 88.721 41.895 Q 88.281 40.723 87.695 39.551 A 76.7 76.7 0 0 1 86.572 37.207 A 9.047 9.047 0 0 1 85.894 35.007 A 10.225 10.225 0 0 1 85.84 34.668 A 15.536 15.536 0 0 1 83.057 31.983 A 26.26 26.26 0 0 1 80.859 28.809 A 6.692 6.692 0 0 0 80.24 28.577 Q 79.922 28.477 79.629 28.425 A 4.043 4.043 0 0 0 79.59 28.418 A 0.503 0.503 0 0 1 79.329 28.3 Q 79.057 28.054 79.199 27.344 A 11.512 11.512 0 0 1 76.661 26.313 A 10.443 10.443 0 0 1 76.025 25.928 A 26.799 26.799 0 0 1 73.585 24.117 A 29.491 29.491 0 0 1 73.242 23.828 A 42.78 42.78 0 0 1 68.799 22.608 A 13.969 13.969 0 0 0 64.355 21.875 A 8.08 8.08 0 0 0 61.328 22.461 A 3.162 3.162 0 0 1 61.816 24.17 A 8.303 8.303 0 0 0 62.012 25.977 A 5.811 5.811 0 0 1 63.818 26.743 Q 65.219 27.668 65.725 29.415 A 6.378 6.378 0 0 1 65.82 29.785 Q 65.332 30.078 64.941 30.518 A 21.222 21.222 0 0 1 64.563 30.933 A 15.826 15.826 0 0 1 64.209 31.299 A 3.846 3.846 0 0 1 63.778 31.668 A 4.933 4.933 0 0 1 63.379 31.934 A 2.016 2.016 0 0 1 62.692 32.186 A 2.737 2.737 0 0 1 62.207 32.227 A 6.156 6.156 0 0 1 61.424 32.18 Q 60.614 32.076 60.107 31.738 A 1.667 1.667 0 0 0 59.607 31.519 Q 58.969 31.35 57.975 31.514 A 7.834 7.834 0 0 0 57.813 31.543 Q 56.152 30.078 54.59 28.467 Q 53.027 26.856 51.074 25.586 Q 50.781 24.61 50.146 23.828 A 62.191 62.191 0 0 0 48.877 22.315 Q 48.242 21.582 47.705 20.752 A 3.362 3.362 0 0 1 47.176 19.113 A 4.123 4.123 0 0 1 47.168 18.848 A 7.656 7.656 0 0 1 47.174 18.53 Q 47.192 18.091 47.266 17.871 A 6.646 6.646 0 0 0 46.991 17.786 Q 46.606 17.676 46.387 17.676 A 2.252 2.252 0 0 0 45.16 18.044 A 2.913 2.913 0 0 0 44.922 18.213 A 3.843 3.843 0 0 1 43.359 18.946 A 12.896 12.896 0 0 1 41.823 22.102 A 11.708 11.708 0 0 1 41.113 23.047 Q 39.648 24.805 38.086 26.465 A 36.137 36.137 0 0 0 35.205 29.932 Q 33.887 31.738 33.301 34.375 A 54.571 54.571 0 0 0 29.235 40.231 A 64.705 64.705 0 0 0 27.539 43.213 A 54.819 54.819 0 0 0 24.856 48.983 A 44.738 44.738 0 0 0 23.535 52.832 A 22.004 22.004 0 0 0 20.811 56.633 A 19.47 19.47 0 0 0 20.02 58.203 A 17.021 17.021 0 0 0 18.692 62.986 A 20.195 20.195 0 0 0 18.555 64.453 Q 18.066 64.746 17.773 65.235 L 16.797 67.188 A 1.561 1.561 0 0 1 16.206 67.91 A 1.962 1.962 0 0 1 16.113 67.969 L 16.113 68.457 A 3.597 3.597 0 0 1 16.011 69.328 A 3.061 3.061 0 0 1 15.82 69.873 A 14.382 14.382 0 0 1 15.186 71.094 A 48.595 48.595 0 0 0 14.856 71.668 A 41.627 41.627 0 0 0 14.551 72.217 A 2.409 2.409 0 0 0 14.272 73.141 A 2.979 2.979 0 0 0 14.258 73.438 A 3.325 3.325 0 0 0 14.487 74.634 A 4.083 4.083 0 0 0 14.648 75 Q 13.574 75.196 13.232 76.123 A 5.479 5.479 0 0 1 12.663 77.26 A 4.81 4.81 0 0 1 12.305 77.735 Q 11.914 80.86 11.523 84.082 Q 11.133 87.305 11.133 90.43 Q 11.133 94.043 11.914 97.754 Q 12.793 98.633 13.477 99.707 Q 14.16 100.781 14.893 101.758 A 10.217 10.217 0 0 0 16.286 103.28 A 9.376 9.376 0 0 0 16.504 103.467 A 3.769 3.769 0 0 0 17.598 104.092 Q 18.071 104.27 18.635 104.363 A 6.895 6.895 0 0 0 18.848 104.395 A 2.513 2.513 0 0 0 18.87 104.739 Q 18.923 105.127 19.11 105.339 A 0.721 0.721 0 0 0 19.141 105.371 Q 19.415 105.646 19.604 106.092 A 3.302 3.302 0 0 1 19.629 106.153 A 34.373 34.373 0 0 0 23.646 107.22 A 37.584 37.584 0 0 0 23.926 107.276 A 23.345 23.345 0 0 0 28.418 107.715 A 13.359 13.359 0 0 0 31.391 107.372 A 14.818 14.818 0 0 0 31.592 107.324 A 5.223 5.223 0 0 0 34.277 105.762 A 26.931 26.931 0 0 0 42.956 103.925 A 31.185 31.185 0 0 0 44.189 103.418 A 74.807 74.807 0 0 0 50.578 100.279 A 63.567 63.567 0 0 0 53.223 98.731 L 55.273 98.731 A 8.823 8.823 0 0 1 57.91 96.338 A 38.003 38.003 0 0 1 61.133 94.629 A 2.937 2.937 0 0 1 61.377 94.484 Q 61.506 94.415 61.66 94.346 A 6.591 6.591 0 0 1 61.914 94.238 A 6.295 6.295 0 0 0 62.24 94.098 Q 62.39 94.028 62.516 93.957 A 2.767 2.767 0 0 0 62.695 93.848 Q 63.77 93.067 64.893 92.09 Q 66.016 91.113 67.188 90.235 Q 69.141 88.77 71.191 87.403 A 49.646 49.646 0 0 0 75.146 84.473 A 39.183 39.183 0 0 0 78.76 81.104 Q 80.469 79.297 81.641 77.051 Q 82.227 77.051 82.568 76.709 A 4.133 4.133 0 0 0 83.154 75.977 A 2.961 2.961 0 0 1 83.74 75.293 A 1.077 1.077 0 0 1 84.097 75.095 Q 84.254 75.042 84.446 75.018 A 2.642 2.642 0 0 1 84.766 75 A 3.797 3.797 0 0 1 84.831 74.278 A 2.769 2.769 0 0 1 85.107 73.487 Q 85.449 72.852 85.889 72.315 A 28.734 28.734 0 0 1 86.754 71.305 A 26.283 26.283 0 0 1 86.768 71.289 Q 87.207 70.801 87.598 70.02 L 87.598 67.285 Q 89.16 64.746 89.893 61.914 A 22.92 22.92 0 0 0 90.625 56.153 A 28.695 28.695 0 0 0 89.648 48.633 A 1.255 1.255 0 0 0 89.966 48.453 A 0.954 0.954 0 0 0 90.283 47.998 A 2.913 2.913 0 0 0 90.43 47.074 A 3.636 3.636 0 0 0 90.43 47.071 Z" vector-effect="non-scaling-stroke"/></g></svg>