<svg width="83.496" height="150.586" viewBox="0 0 83.496 150.586" xmlns="http://www.w3.org/2000/svg"><g id="svgGroup" stroke-linecap="round" fill-rule="evenodd" font-size="9pt" stroke="#ffffff" stroke-width="0.25mm" fill="#ffffff" style="stroke:#ffffff;stroke-width:0.25mm;fill:#ffffff"><path d="M 70.801 19.531 L 70.801 21.68 A 2.844 2.844 0 0 0 70.614 21.639 Q 69.989 21.527 69.775 21.826 A 1.383 1.383 0 0 1 69.418 22.168 Q 69.263 22.272 69.069 22.353 A 2.409 2.409 0 0 1 69.043 22.363 Q 67.09 26.074 65.039 29.736 A 28.515 28.515 0 0 1 59.961 36.328 A 43.864 43.864 0 0 1 58.203 40.332 Q 57.227 42.285 56.152 44.238 A 112.566 112.566 0 0 0 54.102 48.145 Q 53.125 50.098 52.539 52.148 A 21.696 21.696 0 0 0 49.219 56.689 Q 47.852 59.18 46.631 61.67 A 80.103 80.103 0 0 1 43.994 66.602 A 23.824 23.824 0 0 1 40.625 71.094 A 3.167 3.167 0 0 1 40.643 71.351 Q 40.654 71.704 40.576 72.005 A 1.791 1.791 0 0 1 40.332 72.559 Q 39.941 73.145 39.941 73.828 A 5.589 5.589 0 0 0 40.29 75.703 Q 40.57 76.489 41.074 77.331 A 14.565 14.565 0 0 0 42.139 78.857 A 44.143 44.143 0 0 0 45.125 82.249 A 55.174 55.174 0 0 0 47.363 84.424 A 95.281 95.281 0 0 0 52.567 88.883 A 85.628 85.628 0 0 0 53.418 89.551 Q 56.445 91.895 58.105 93.164 A 48.145 48.145 0 0 0 60.498 92.078 A 35.565 35.565 0 0 0 62.598 90.967 A 9.579 9.579 0 0 1 65.117 89.978 A 13.073 13.073 0 0 1 67.285 89.648 A 6.373 6.373 0 0 1 68.784 90.675 A 5.635 5.635 0 0 1 69.482 91.455 A 4.238 4.238 0 0 1 70.313 94.043 Q 70.313 96.289 68.945 98.291 A 15.533 15.533 0 0 1 67.338 100.287 A 12.427 12.427 0 0 1 65.918 101.563 Q 64.355 101.855 62.793 102.051 A 25.171 25.171 0 0 1 59.668 102.246 Q 56.543 102.246 53.467 101.611 A 127.704 127.704 0 0 1 47.363 100.195 A 22.356 22.356 0 0 0 43.826 96.537 A 20.901 20.901 0 0 0 43.701 96.436 A 17.272 17.272 0 0 0 39.258 93.848 A 5.472 5.472 0 0 0 39.114 92.96 Q 38.962 92.358 38.672 91.895 A 6.957 6.957 0 0 0 37.5 90.479 A 8.693 8.693 0 0 0 35.986 89.355 A 17.322 17.322 0 0 1 34.375 88.281 A 6.386 6.386 0 0 0 32.943 88.903 A 5.818 5.818 0 0 0 32.617 89.111 A 6.157 6.157 0 0 1 31.1 89.864 A 7.02 7.02 0 0 1 30.859 89.941 A 33.796 33.796 0 0 1 30.83 90.012 A 34.455 34.455 0 0 1 25.879 98.34 Q 26.054 99.912 25.408 100.821 A 2.346 2.346 0 0 1 25.244 101.025 Q 24.414 101.953 23.145 102.93 A 15.771 15.771 0 0 1 22.146 106.394 A 13.731 13.731 0 0 1 21.338 108.008 A 34.311 34.311 0 0 1 18.587 111.999 A 37.951 37.951 0 0 1 18.262 112.402 L 18.359 113.184 Q 18.359 113.574 18.115 113.867 Q 17.876 114.155 17.965 114.818 A 3.315 3.315 0 0 0 17.969 114.844 A 15.772 15.772 0 0 0 15.911 118.055 A 18.243 18.243 0 0 0 15.527 118.896 Q 14.551 121.191 13.721 123.633 Q 12.891 126.074 12.158 128.516 A 52.091 52.091 0 0 1 10.977 132.013 A 45.269 45.269 0 0 1 10.547 133.105 A 4.404 4.404 0 0 1 10.863 134.187 A 5.999 5.999 0 0 1 10.938 135.156 A 11.987 11.987 0 0 1 10.742 137.305 A 11.987 11.987 0 0 0 10.547 139.453 Q 10.547 140.332 10.84 141.162 A 2.912 2.912 0 0 0 11.649 142.36 A 3.662 3.662 0 0 0 11.914 142.578 A 4.025 4.025 0 0 1 14.03 141.575 A 5.597 5.597 0 0 1 14.941 141.504 A 7.605 7.605 0 0 1 17.041 141.797 A 9.046 9.046 0 0 1 18.821 142.51 A 8.39 8.39 0 0 1 18.945 142.578 A 4.746 4.746 0 0 1 19.164 143.081 Q 19.255 143.333 19.298 143.562 A 2.078 2.078 0 0 1 19.336 143.945 A 2.333 2.333 0 0 1 19.203 144.74 A 2.138 2.138 0 0 1 18.994 145.166 A 10.818 10.818 0 0 1 18.427 145.972 A 12.326 12.326 0 0 1 18.213 146.24 A 28.734 28.734 0 0 1 17.348 147.25 A 26.283 26.283 0 0 1 17.334 147.266 A 2.167 2.167 0 0 0 16.797 148.435 A 2.142 2.142 0 0 0 16.797 148.437 A 34.063 34.063 0 0 0 12.354 149.121 Q 10.156 149.609 8.105 150.586 Q 6.934 150.391 6.006 149.756 Q 5.078 149.121 3.906 148.828 A 14.022 14.022 0 0 1 1.904 145.215 A 18.176 18.176 0 0 0 0 141.504 A 17.174 17.174 0 0 1 0.586 137.061 Q 1.172 134.863 1.807 132.715 A 65.412 65.412 0 0 0 2.93 128.369 A 14.542 14.542 0 0 0 3.278 125.205 A 14.763 14.763 0 0 0 3.223 123.926 A 3.623 3.623 0 0 0 4.662 122.615 A 4.451 4.451 0 0 0 4.785 122.412 A 9.734 9.734 0 0 0 5.624 120.468 A 10.971 10.971 0 0 0 5.713 120.166 A 67.333 67.333 0 0 0 6.348 117.725 A 18.072 18.072 0 0 1 6.686 116.497 A 13.85 13.85 0 0 1 7.031 115.527 A 4.811 4.811 0 0 0 8.094 114.623 A 4.2 4.2 0 0 0 8.643 113.818 A 4.363 4.363 0 0 1 9.901 112.354 A 5.335 5.335 0 0 1 10.254 112.109 A 1.327 1.327 0 0 0 10.245 111.948 Q 10.234 111.862 10.212 111.788 A 0.789 0.789 0 0 0 10.205 111.768 A 0.907 0.907 0 0 1 10.168 111.609 Q 10.158 111.534 10.156 111.45 A 1.526 1.526 0 0 1 10.156 111.426 A 1.154 1.154 0 0 0 10.107 111.337 Q 10.034 111.218 9.961 111.182 A 0.148 0.148 0 0 1 9.895 111.112 Q 9.863 111.048 9.863 110.938 A 1.327 1.327 0 0 0 9.854 110.776 Q 9.843 110.69 9.821 110.617 A 0.789 0.789 0 0 0 9.814 110.596 Q 9.771 110.466 9.843 110.298 A 0.802 0.802 0 0 1 9.863 110.254 L 10.84 108.984 A 21.455 21.455 0 0 0 11.838 107.596 Q 12.485 106.612 12.891 105.713 A 2308.376 2308.376 0 0 0 13.526 104.304 Q 13.959 103.345 14.453 102.246 Q 15.234 100.391 16.406 98.535 Q 17.578 96.68 18.652 94.824 Q 21.191 90.234 23.584 85.693 Q 25.977 81.152 28.711 76.66 Q 27.93 76.074 27.441 75.244 Q 26.953 74.414 26.514 73.535 A 28.564 28.564 0 0 0 25.586 71.826 A 4.231 4.231 0 0 0 24.535 70.638 A 5.064 5.064 0 0 0 24.219 70.41 Q 22.168 65.039 19.58 59.912 A 589.371 589.371 0 0 1 14.551 49.707 Q 13.672 47.852 12.939 45.947 A 24.151 24.151 0 0 0 11.352 42.591 A 22.297 22.297 0 0 0 11.23 42.383 A 1.311 1.311 0 0 0 11.104 42.205 Q 10.861 41.921 10.559 41.989 A 0.587 0.587 0 0 0 10.547 41.992 A 0.644 0.644 0 0 1 10.427 42.011 Q 10.11 42.029 9.863 41.699 A 404.904 404.904 0 0 1 9.217 39.827 Q 8.924 38.97 8.665 38.199 A 235.879 235.879 0 0 1 8.496 37.695 L 7.031 33.301 A 5.47 5.47 0 0 1 7.427 32.06 A 3.698 3.698 0 0 1 8.789 30.469 A 5.509 5.509 0 0 1 11.06 29.652 A 7.092 7.092 0 0 1 12.012 29.59 A 9.95 9.95 0 0 1 13.721 29.744 A 12.838 12.838 0 0 1 15.137 30.078 A 21.411 21.411 0 0 1 16.797 32.178 A 12.365 12.365 0 0 0 18.519 34.155 A 13.694 13.694 0 0 0 18.652 34.277 L 18.652 36.816 A 259.645 259.645 0 0 1 23.975 48.34 A 203.936 203.936 0 0 0 29.395 59.863 A 3.637 3.637 0 0 1 30.344 60.167 A 2.988 2.988 0 0 1 31.152 60.742 A 13.655 13.655 0 0 1 32.422 62.207 Q 33.008 62.988 33.643 63.672 A 2.317 2.317 0 0 0 34.616 64.287 Q 34.965 64.406 35.385 64.447 A 4.326 4.326 0 0 0 35.449 64.453 A 1.046 1.046 0 0 0 35.654 64.311 Q 35.961 64.048 36.426 63.409 A 15.515 15.515 0 0 0 36.621 63.135 A 59.438 59.438 0 0 0 37.617 61.655 A 72.139 72.139 0 0 0 38.232 60.693 A 31.381 31.381 0 0 0 39.368 58.743 A 27.291 27.291 0 0 0 39.697 58.105 A 14.554 14.554 0 0 0 39.945 57.587 Q 40.283 56.838 40.326 56.452 A 0.949 0.949 0 0 0 40.332 56.348 L 40.332 55.664 A 102.467 102.467 0 0 0 51.172 36.816 A 4.292 4.292 0 0 0 52.319 35.995 A 3.944 3.944 0 0 0 52.734 35.498 A 23.213 23.213 0 0 0 53.853 33.747 A 23.466 23.466 0 0 0 53.857 33.74 Q 54.395 32.813 54.98 31.934 Q 55.566 31.055 56.445 30.469 Q 56.934 28.418 58.008 26.66 A 105.751 105.751 0 0 1 60.254 23.145 Q 61.426 21.387 62.5 19.58 A 16.247 16.247 0 0 0 64.16 15.723 A 3.649 3.649 0 0 0 65.417 14.966 A 3.497 3.497 0 0 0 65.869 14.453 Q 66.504 13.574 66.992 12.598 Q 67.48 11.621 68.066 10.742 A 3.224 3.224 0 0 1 69.521 9.554 A 4.027 4.027 0 0 1 69.727 9.473 A 12.296 12.296 0 0 1 70.646 6.709 A 9.641 9.641 0 0 1 72.363 4.199 Q 74.316 2.148 77.441 1.074 L 77.832 0 A 1.923 1.923 0 0 0 78.081 0.1 Q 78.35 0.19 78.763 0.268 A 11.6 11.6 0 0 0 79.199 0.342 Q 80.176 0.488 81.104 0.635 A 8.725 8.725 0 0 1 82.034 0.832 A 6.707 6.707 0 0 1 82.764 1.074 A 1.745 1.745 0 0 1 83.084 1.239 Q 83.496 1.514 83.496 1.953 A 7.4 7.4 0 0 1 83.433 2.936 A 6.278 6.278 0 0 1 83.35 3.418 A 2.874 2.874 0 0 0 83.287 4.022 Q 83.287 4.32 83.344 4.634 A 3.999 3.999 0 0 0 83.398 4.883 A 10.721 10.721 0 0 0 80.774 7.103 A 9.323 9.323 0 0 0 79.199 9.766 A 7.157 7.157 0 0 0 77.185 11.24 A 6.725 6.725 0 0 0 76.66 11.865 Q 75.684 13.184 74.854 14.6 Q 74.023 16.016 73.145 17.334 A 7.125 7.125 0 0 1 71.158 19.305 A 8.355 8.355 0 0 1 70.801 19.531 Z" vector-effect="non-scaling-stroke"/></g></svg>